<svg width="205" height="36" viewBox="0 0 205 36" fill="none" xmlns="http://www.w3.org/2000/svg">
<path d="M7.68045 35.2314L19.1189 8.85483L30.5809 35.2314H38.2379L22.9474 0H15.2904L0 35.2314H7.68045ZM80.4216 35.2314L63.8863 21.1389H66.0707C73.8999 21.1389 77.8145 17.6157 77.8145 10.5694C77.8145 3.52314 73.8999 0 66.0707 0H42.5831V7.04629H64.8963C68.8109 7.04629 70.7682 8.22067 70.7682 10.5694C70.7682 12.9182 68.8109 14.0926 64.8963 14.0926H42.5831V21.1389H53.0585L69.5938 35.2314H80.4216ZM120.092 7.04629V0H84.8608V7.04629H120.092ZM120.092 21.1389V14.0926H84.8608V21.1389H120.092ZM120.092 35.2314V28.1852H84.8608V35.2314H120.092ZM134.185 35.2314V10.6869L155.206 35.2314H162.37V0H155.324V24.5446L134.326 0H127.139V35.2314H134.185ZM174.443 35.2314L185.881 8.85483L197.343 35.2314H205L189.71 0H182.053L166.762 35.2314H174.443Z" fill="white"/>
</svg>
