<svg width="105" height="19" viewBox="0 0 105 19" fill="none" xmlns="http://www.w3.org/2000/svg">
<path d="M3.93389 18.2776L9.79262 4.59378L15.6634 18.2776H19.5852L11.7536 0H7.83169L0 18.2776H3.93389ZM41.1916 18.2776L32.7223 10.9666H33.8411C37.8512 10.9666 39.8562 9.13881 39.8562 5.48329C39.8562 1.82776 37.8512 0 33.8411 0H21.8108V3.65552H33.2396C35.2446 3.65552 36.2471 4.26478 36.2471 5.48329C36.2471 6.70179 35.2446 7.31105 33.2396 7.31105H21.8108V10.9666H27.1763L35.6456 18.2776H41.1916ZM61.5107 3.65552V0H43.4653V3.65552H61.5107ZM61.5107 10.9666V7.31105H43.4653V10.9666H61.5107ZM61.5107 18.2776V14.6221H43.4653V18.2776H61.5107ZM68.7288 18.2776V5.54421L79.4959 18.2776H83.1651V0H79.556V12.7334L68.801 0H65.1197V18.2776H68.7288ZM89.3486 18.2776L95.2074 4.59378L101.078 18.2776H105L97.1683 0H93.2465L85.4148 18.2776H89.3486Z" fill="#111111"/>
</svg>
