<svg width="18" height="18" viewBox="0 0 18 18" fill="none" xmlns="http://www.w3.org/2000/svg">
<path fill-rule="evenodd" clip-rule="evenodd" d="M0 0H18V18H0V0Z" fill="white"/>
<path fill-rule="evenodd" clip-rule="evenodd" d="M4.79588 14.3236C5.76818 16.3961 7.2919 17.7354 8.99996 17.7354C11.9241 17.7354 14.3092 13.8113 14.3092 9C14.3092 7.10509 13.939 5.34782 13.3117 3.91366L13.212 3.69309C12.24 1.61103 10.7127 0.264648 8.99987 0.264648C6.07578 0.264648 3.6908 4.18867 3.6908 8.99991C3.6908 10.9025 4.06405 12.666 4.69578 14.1032L4.79588 14.3236Z" fill="white"/>
<path fill-rule="evenodd" clip-rule="evenodd" d="M13.3116 3.91357C13.9388 5.34774 14.3091 7.10491 14.3091 8.99992C14.3091 13.8112 11.924 17.7353 8.99985 17.7353C7.29188 17.7353 5.76807 16.396 4.79578 14.3236L5.90871 12.963C6.77007 13.6216 7.84434 14.0137 9.00723 14.0137C11.8282 14.0137 14.1289 11.7083 14.1289 8.8817C14.1289 7.35368 13.4562 5.97826 12.3929 5.03668L13.3116 3.91357ZM6.22527 12.5761L12.0765 5.42357C13.0282 6.27297 13.6296 7.50917 13.6296 8.8817C13.6296 11.4327 11.5531 13.5135 9.00723 13.5135C7.96424 13.5134 7.00007 13.1639 6.22527 12.5761Z" fill="black"/>
<path fill-rule="evenodd" clip-rule="evenodd" d="M8.99987 0.264648C10.7126 0.264648 12.24 1.61103 13.2119 3.69308L12.2275 4.89621C11.3468 4.17988 10.2256 3.74957 9.00725 3.74957C6.18635 3.74957 3.88569 6.05499 3.88569 8.88166C3.88569 10.4653 4.60791 11.8852 5.73914 12.8278L4.69578 14.1032C4.06405 12.666 3.6908 10.9025 3.6908 8.99998C3.69089 4.18875 6.07578 0.264648 8.99987 0.264648ZM11.9114 5.283L6.05552 12.4412C5.03597 11.5904 4.385 10.3098 4.385 8.88175C4.385 6.33074 6.46136 4.2501 9.00725 4.2501C10.1059 4.25001 11.1167 4.63764 11.9114 5.283Z" fill="#1E71B8"/>
<path fill-rule="evenodd" clip-rule="evenodd" d="M8.90574 13.3766C8.79343 13.2091 8.67909 13.0429 8.56275 12.8782C8.15868 12.3056 7.77712 11.813 7.52135 11.5241V11.5205H7.51686C7.4655 11.4479 7.3513 11.3662 7.2073 11.3067C7.14047 11.2786 7.07077 11.2579 6.99943 11.2449C6.10829 11.1498 5.44564 10.8878 5.45741 10.6092C5.46012 10.5443 5.49934 10.4836 5.5691 10.428H5.56919C5.55966 10.4355 5.55089 10.4431 5.54258 10.4508V10.4497C5.58329 10.4181 5.61467 10.2326 5.61467 10.0097C5.61467 9.97602 5.61401 9.94315 5.61261 9.91159C5.59776 9.88992 5.58815 9.85686 5.58815 9.81988C5.58815 9.79308 5.59319 9.76824 5.60169 9.74835C5.59701 9.73125 5.59466 9.7136 5.59468 9.69587L5.59478 9.6899L5.59468 9.68457C5.59468 9.64022 5.60841 9.60156 5.62858 9.58148C5.63875 9.57985 5.64809 9.57493 5.65519 9.56747C5.65671 9.56726 5.65824 9.56713 5.65977 9.5671H5.66005C5.66162 9.5635 5.66308 9.55986 5.66444 9.55617C5.67938 9.53469 5.689 9.50145 5.689 9.46447C5.689 9.46139 5.689 9.45849 5.68881 9.45551C5.69208 9.43272 5.69441 9.40863 5.69554 9.3836C5.69927 9.30189 5.68975 9.22896 5.67219 9.18479H5.67294C5.67018 9.17778 5.66687 9.17101 5.66304 9.16453L5.66463 9.16238L5.65491 9.15285C5.65325 9.15094 5.65144 9.14916 5.6495 9.14753L5.63848 9.13698L5.4661 8.96936C5.42314 8.93518 5.39597 8.88531 5.39597 8.82994C5.39597 8.75981 5.43939 8.69864 5.50335 8.6668L6.24696 7.85213C6.30019 7.81123 6.35752 7.66499 6.38544 7.48523C6.3903 7.45414 6.39404 7.4236 6.39674 7.39419C6.41906 7.30566 6.56885 7.07519 6.77167 6.8239C6.89139 6.67551 7.00802 6.54665 7.10029 6.45775H7.10038C7.10178 6.45654 7.10309 6.45522 7.1043 6.45383L7.10486 6.45336H7.10477C7.12615 6.42899 7.14539 6.36707 7.15678 6.28686C7.17032 5.99719 7.36652 5.74337 7.65647 5.59527L7.66142 5.59275L7.6645 5.59125C7.77852 5.53336 7.91495 5.49965 8.06119 5.49965C8.12151 5.49965 8.17997 5.50543 8.236 5.51608C8.41165 5.53718 8.59599 5.56464 8.78537 5.59872C9.37013 5.70415 9.88962 5.85179 10.2456 6.00223C10.4425 6.09689 10.6474 6.17383 10.8579 6.23214C11.6405 6.45065 12.3761 6.39406 12.7099 6.12465L12.7232 6.14258C12.8032 6.07367 12.9523 6.18404 13.0462 6.18404C13.0462 6.19656 13.0964 6.23428 13.0964 6.24689C13.2341 6.30974 13.2968 6.59885 13.3344 6.72454L13.5348 7.22741C13.7101 7.6297 13.6599 8.15759 13.7602 8.57239C13.8354 8.89923 13.7728 9.36427 13.7602 9.70372C13.7602 9.77926 13.7227 9.87974 13.7101 9.95501L13.5222 10.6842C13.5096 10.7598 13.4345 10.8854 13.4345 10.9733C13.4095 10.9986 13.3844 11.0614 13.3593 11.0866V11.1118C13.3467 11.1118 13.3092 11.1369 13.3092 11.162C13.2968 11.162 13.2716 11.1746 13.2592 11.1746L13.2217 11.2123L12.9961 11.2249C12.9961 11.2304 12.9888 11.2335 12.9794 11.2353L12.9725 11.2471L12.8049 11.2481C12.0135 12.5246 10.603 13.3777 8.99996 13.3777C8.96849 13.3778 8.93712 13.3772 8.90574 13.3766ZM5.44434 4.02962L5.32565 3.51574L5.32836 3.51396L5.73765 3.83893L5.44434 4.02962ZM5.85718 3.92214L6.12911 4.13626L6.26853 4.04568L5.31332 3.32374L5.16858 3.41778L5.42659 4.59272L5.55817 4.50727L5.47842 4.16839L5.85718 3.92214ZM5.65734 3.05667L6.48667 2.67212L6.54354 2.79455L6.19784 2.95479L6.61507 3.85416L6.47715 3.91812L6.05982 3.01876L5.71412 3.17909L5.65734 3.05667ZM7.08357 3.16938L7.12279 2.64345L7.12587 2.64261L7.42021 3.07451L7.08357 3.16938ZM7.50958 3.18946L7.70568 3.47474L7.86565 3.42964L7.1678 2.4565L7.00177 2.50329L6.89951 3.70213L7.05051 3.65955L7.07489 3.31207L7.50958 3.18946ZM8.15224 3.22355L8.71888 3.15435L8.73532 3.28817L8.01767 3.37585L7.88021 2.25807L8.03121 2.23967L8.15224 3.22355ZM9.22604 2.84665L9.45072 2.36956L9.4538 2.36984L9.57436 2.8785L9.22604 2.84665ZM9.61666 3.01792L9.69762 3.35447L9.86319 3.36969L9.5597 2.211L9.38787 2.19531L8.86362 3.27817L9.01976 3.29246L9.16684 2.97674L9.61666 3.01792ZM11.055 2.50347L11.1961 2.5455L10.8741 3.62481L10.7103 3.57597L10.4219 2.54073L10.4188 2.53989L10.1587 3.41171L10.0174 3.36959L10.3395 2.29038L10.5124 2.34183L10.7916 3.37436L10.7948 3.37529L11.055 2.50347ZM11.3863 2.60601L12.2155 2.99177L12.1586 3.11401L11.813 2.9532L11.3951 3.85201L11.2573 3.78776L11.6749 2.88905L11.3293 2.72825L11.3863 2.60601ZM12.1031 3.72099L12.5291 3.41022L12.5316 3.41199L12.3935 3.91607L12.1031 3.72099ZM12.364 4.05857L12.2739 4.39269L12.412 4.48542L12.7007 3.32337L12.5575 3.22709L11.5783 3.92569L11.7086 4.01319L11.9891 3.80672L12.364 4.05857ZM6.92034 15.4764L6.74459 15.4204L7.04164 14.4873L6.73488 14.3897L6.77653 14.2588C6.99448 14.3117 7.08899 14.3191 7.20973 14.1207L7.33878 14.1619L6.92034 15.4764ZM8.07772 15.1438C7.96286 15.1298 7.80345 15.0768 7.83548 14.8141C7.8578 14.6311 7.97808 14.5195 8.13758 14.5391C8.33415 14.563 8.39727 14.7088 8.37832 14.8646C8.34545 15.135 8.16727 15.1547 8.07772 15.1438ZM8.03364 15.2944C8.16017 15.3099 8.30352 15.2682 8.36692 15.1693L8.37038 15.1735C8.28447 15.5226 8.16587 15.6681 7.97911 15.6452C7.83894 15.6282 7.76769 15.5326 7.77479 15.3933L7.60362 15.3723C7.58755 15.5045 7.64461 15.7485 7.96575 15.7878C8.43668 15.8452 8.53819 15.2236 8.55602 15.0777C8.5831 14.8559 8.59057 14.438 8.15457 14.3848C7.86658 14.3498 7.68794 14.5511 7.65759 14.8001C7.62425 15.0726 7.78067 15.2636 8.03364 15.2944ZM9.76756 15.1188C9.78895 15.4632 9.71172 15.6762 9.51422 15.6884C9.31653 15.7006 9.21362 15.4989 9.19233 15.1545C9.17085 14.81 9.24798 14.5971 9.44568 14.5847C9.64318 14.5726 9.74599 14.7743 9.76756 15.1188ZM9.95134 15.1073C9.93369 14.8214 9.83116 14.4056 9.43587 14.4303C9.04068 14.4549 8.99044 14.8802 9.00818 15.1658C9.02583 15.4517 9.12836 15.8675 9.52356 15.8429C9.91894 15.8185 9.96908 15.3929 9.95134 15.1073ZM10.1754 14.3445L11.0914 14.083L11.1329 14.2282C11.0403 14.4035 10.8444 14.9161 10.9177 15.5355L10.7349 15.5879C10.676 15.2111 10.7812 14.6671 10.951 14.2984L10.2216 14.5066L10.1754 14.3445Z" fill="white"/>
<path fill-rule="evenodd" clip-rule="evenodd" d="M9.25982 6.49889C9.06157 6.43493 8.82148 6.39748 8.56309 6.39748C8.18723 6.39748 7.85002 6.47686 7.62488 6.60133C7.63039 6.5849 7.63655 6.56865 7.64327 6.55259C7.84713 6.28757 8.43217 6.11949 9.10714 6.15908C9.28223 6.16935 9.44948 6.19279 9.60449 6.22697C10.0362 6.34061 10.4134 6.47312 10.6891 6.60311C10.8819 6.70571 11.0835 6.79099 11.2913 6.85795C11.8777 7.04788 12.4435 7.07842 12.8329 6.97075C12.8325 6.9723 12.832 6.97383 12.8314 6.97532C12.6605 7.43289 11.7413 7.51516 10.7848 7.15835C10.58 7.08239 10.3824 6.98836 10.1943 6.87737C9.95299 6.75037 9.63036 6.61777 9.25972 6.49637V6.49889H9.25982Z" fill="black"/>
<path fill-rule="evenodd" clip-rule="evenodd" d="M11.5623 7.73159C11.7705 7.78491 12.017 7.80985 12.2765 7.79687C12.6536 7.77791 12.9805 7.68257 13.1884 7.54801C13.1853 7.56452 13.1816 7.58091 13.1771 7.59712C13.0112 7.86942 12.4485 8.06506 11.7653 8.05983C11.5947 8.05879 11.4244 8.04471 11.2559 8.01772C10.8062 7.92714 10.408 7.81508 10.1122 7.7004C9.90468 7.60897 9.69001 7.53482 9.47034 7.47872C8.85402 7.32034 8.28168 7.31857 7.90637 7.44472L7.90731 7.44015C8.0118 6.97903 8.92265 6.85147 9.93482 7.15618C10.1526 7.22141 10.3646 7.30443 10.5688 7.40438C10.8296 7.51784 11.1729 7.6327 11.5627 7.73402L11.5623 7.73159ZM13.353 10.5661C12.9598 11.0198 12.3945 11.313 11.7605 11.3316C11.019 11.3534 10.3487 10.9949 9.92623 10.4276C10.3522 10.6529 10.8584 10.8084 11.4076 10.8626C12.1329 10.9342 12.8133 10.8173 13.353 10.5661ZM13.5057 9.62192C13.2266 10.0972 12.4685 10.4484 11.5749 10.464C10.973 10.4746 10.4271 10.3309 10.0445 10.0938H10.0393C9.80437 9.96006 9.48612 9.85762 9.12977 9.81494C9.09326 9.81062 9.05668 9.80692 9.02005 9.80383C9.1732 9.75443 9.3749 9.72408 9.59556 9.72408C9.89009 9.72408 10.1511 9.77787 10.3072 9.85958C10.5753 10.0456 11.0755 10.1711 11.646 10.1711C12.1397 10.1711 12.5805 10.077 12.8641 9.9313C12.9804 9.88539 13.0949 9.83496 13.2072 9.78011C13.3085 9.73085 13.408 9.67809 13.5057 9.62192Z" fill="black"/>
<path fill-rule="evenodd" clip-rule="evenodd" d="M13.4596 8.65845C13.4663 8.6873 13.4707 8.71663 13.4722 8.74623C13.4977 9.2731 12.6648 9.72891 11.6179 9.76047C10.8519 9.78382 10.1779 9.57371 9.86163 9.25284C9.69569 9.12938 9.44739 9.0303 9.16276 8.98763C9.00251 8.96353 8.84815 8.95998 8.70911 8.97381C8.85665 8.87034 9.09001 8.80319 9.35204 8.80319C9.61323 8.80319 9.84632 8.86996 9.99386 8.97306C10.2562 9.20839 10.8888 9.37797 11.625 9.38255C12.5944 9.38852 13.3852 9.10622 13.3852 8.75407V8.75258C13.4206 8.72354 13.4566 8.68282 13.4566 8.66013L13.4596 8.65845Z" fill="black"/>
<path fill-rule="evenodd" clip-rule="evenodd" d="M13.4223 7.84814C13.4236 7.86411 13.4242 7.88008 13.4242 7.89614C13.4242 8.49097 12.5541 8.97599 11.4871 8.97599C10.7887 8.97599 10.1748 8.76822 9.83396 8.45782C9.57623 8.26098 9.03059 8.12474 8.40148 8.12474C8.27859 8.12474 8.15887 8.12997 8.04382 8.13977C8.15504 7.89231 8.80554 7.81266 9.5385 7.96487C9.96638 8.05367 10.3342 8.20318 10.5651 8.36575C10.8667 8.49088 11.2761 8.56801 11.7263 8.56801C12.1928 8.56801 12.6155 8.48518 12.9198 8.35202H12.9219V8.351C13.2176 8.2211 13.4003 8.0435 13.4003 7.84814H13.4223Z" fill="black"/>
</svg>
