<svg width="45" height="45" viewBox="0 0 45 45" fill="none" xmlns="http://www.w3.org/2000/svg">
<path d="M0 0H44.9431V44.9431H0V0Z" fill="white"/>
<path d="M6.4613 27.9555C6.4607 29.7628 7.30781 31.4657 8.74954 32.5555L22.4713 42.9603L36.2007 32.5515C37.6376 31.4603 38.4814 29.7598 38.4813 27.9555V1.98279H6.4613V27.9555Z" fill="#F9DC30"/>
<path d="M7.36877 27.9554C7.37274 29.4808 8.08458 30.9126 9.29725 31.8278L22.4713 41.818L35.6493 31.824C36.8608 30.9067 37.573 29.4751 37.5738 27.9554V2.89417H7.36877V27.9554Z" fill="#33348E"/>
<path d="M22.4716 41.8182L35.6496 31.8243C36.8611 30.9069 37.5733 29.4753 37.5741 27.9557V2.89417L9.29333 31.824L22.4716 41.8182Z" fill="#CD3529"/>
<path fill-rule="evenodd" clip-rule="evenodd" d="M32.5241 3.3479L32.1216 4.4666L30.9362 4.50181L31.8747 5.22927L31.5422 6.36756L32.5241 5.70259L33.5059 6.36756L33.1734 5.22927L34.1126 4.50181L32.9272 4.4666L32.5241 3.3479ZM30.5919 10.0366L34.5388 5.99987V32.6688L30.5919 35.6612V10.0366ZM23.6098 17.1792L27.5568 13.1385V37.9613L23.6098 40.9537V17.1792ZM20.5743 20.281L16.6276 24.3177V37.3863L20.5743 40.3787V20.281ZM9.2933 31.824L13.5923 27.4234V35.0862L9.2933 31.824ZM9.49687 15.1295L9.09397 16.2442L7.90881 16.2834L8.84355 17.0069L8.51503 18.1492L9.49687 17.4805L10.4747 18.1492L10.1462 17.0069L11.081 16.2834L9.89581 16.2442L9.49687 15.1295ZM24.4469 12.3171L24.8498 11.1984L25.2487 12.3171L26.4378 12.3523L25.4991 13.0798L25.8316 14.222L24.8498 13.5531L23.868 14.222L24.2004 13.0798L23.2615 12.3523L24.4469 12.3171ZM9.09397 4.4666L9.49687 3.3479L9.89581 4.4666L11.081 4.50181L10.1462 5.22927L10.4747 6.36756L9.49687 5.70259L8.51503 6.36756L8.84355 5.22927L7.90881 4.50181L9.09397 4.4666ZM21.0087 3.3479L20.6096 4.4666L19.4204 4.50181L20.3594 5.22927L20.0269 6.36756L21.0087 5.70259L21.9903 6.36756L21.6578 5.22927L22.5968 4.50181L21.4114 4.4666L21.0087 3.3479ZM9.09397 28.0259L9.49687 26.9072L9.89581 28.0259L11.081 28.0613L10.1462 28.7888L10.4747 29.927L9.49687 29.2621L8.51503 29.927L8.84355 28.7888L7.90881 28.0613L9.09397 28.0259ZM17.1793 19.045L16.7764 20.1637L15.5912 20.1989L16.5299 20.9263L16.1974 22.0646L17.1793 21.3997L18.1609 22.0646L17.8284 20.9263L18.7673 20.1989L17.5822 20.1637L17.1793 19.045ZM11.6207 7.14212V23.3633L27.4742 7.14212H11.6207Z" fill="white"/>
<path d="M15.6656 12.2115C15.6108 12.3836 15.5287 13.033 15.5092 13.1071C15.4856 13.1815 15.2902 13.2127 15.1844 13.1034C15.0787 12.9938 14.8987 12.4853 14.6642 12.2115V14.3746C14.8167 14.5035 15.0671 14.5543 15.2196 14.5506C15.3837 14.93 15.5558 15.2858 15.8845 15.6341C15.7869 16.1583 15.9277 16.4791 16.2522 16.7607C16.5768 17.0424 16.2562 17.359 16.135 17.363C15.3056 17.3672 17.3008 17.6057 17.3162 17.5118C17.3318 17.4178 17.3278 17.2965 17.2886 17.1949C17.1166 16.7216 17.0774 16.4516 17.3278 16.037C17.813 16.123 17.8951 15.7514 17.6367 15.4348C17.4805 15.0475 17.6838 15.0475 17.3122 14.5937C16.9445 14.1437 16.706 12.9938 16.9797 12.5363C17.2145 12.1414 17.3749 11.883 16.8349 11.9378C16.6901 11.8282 16.5885 11.6837 16.4399 11.6445C16.2912 11.6014 16.1818 11.7109 16.045 11.6757C15.8102 11.617 15.5793 11.0849 15.4231 11.6014C15.3721 11.7695 15.7241 12.0355 15.6656 12.2115Z" fill="black"/>
<path d="M14.7775 12.3524L14.7814 14.3902L14.7854 16.8155C14.801 17.1247 14.9652 17.2497 15.2352 17.2576L16.8897 17.3047C17.1361 17.3126 17.6094 17.6176 16.8976 17.6136L12.6028 17.6057C12.3251 17.5978 12.5128 17.3476 12.8376 17.3397L13.7879 17.2574C14.0188 17.2494 14.1323 17.0853 14.1323 16.7645V11.7028C14.1274 11.6287 14.1001 11.5578 14.0542 11.4995C14.1754 11.5111 14.2967 11.5151 14.4219 11.5151C14.5744 11.5151 14.7231 11.5074 14.8679 11.4878C14.816 11.5481 14.7845 11.6234 14.7779 11.7028V12.3524H14.7775Z" fill="#5E3729"/>
<path d="M15.8102 11.2689L15.7946 11.2493L15.4894 11.4253L15.3917 11.4174C15.0904 11.5035 14.7619 11.5503 14.4215 11.5503C12.9547 11.5503 11.7616 10.6937 11.7616 9.64143C11.7616 8.58941 12.9547 7.73254 14.4215 7.73254C15.8885 7.73254 17.0854 8.58918 17.0854 9.64143C17.0854 10.3302 16.5729 10.9324 15.8102 11.2689Z" fill="#43644A"/>
<path fill-rule="evenodd" clip-rule="evenodd" d="M14.179 8.56209C14.178 8.66099 14.0981 8.74096 13.9992 8.74209C13.9515 8.74228 13.9056 8.72337 13.8718 8.68957C13.8381 8.65576 13.8192 8.60987 13.8195 8.56209C13.8193 8.51436 13.8382 8.46853 13.8719 8.43477C13.9057 8.40102 13.9515 8.38214 13.9992 8.38233C14.098 8.38346 14.1779 8.46328 14.179 8.56209ZM13.033 9.07458C13.0319 9.17348 12.9519 9.25334 12.853 9.25435C12.7513 9.25435 12.6732 9.17227 12.6732 9.07458C12.6725 9.02665 12.6912 8.98046 12.725 8.94654C12.7589 8.91263 12.8051 8.89388 12.853 8.89458C12.9008 8.89445 12.9466 8.91338 12.9804 8.94716C13.0142 8.98095 13.0331 9.0268 13.033 9.07458ZM13.8505 10.4358C13.8982 10.4359 13.9441 10.417 13.9779 10.3832C14.0117 10.3494 14.0306 10.3035 14.0305 10.2558C14.0292 10.1569 13.9493 10.077 13.8505 10.0758C13.8027 10.0756 13.7569 10.0946 13.7231 10.1284C13.6894 10.1622 13.6705 10.208 13.6707 10.2558C13.6698 10.3037 13.6884 10.35 13.7223 10.384C13.7562 10.4179 13.8025 10.4366 13.8505 10.4358ZM15.73 10.246C15.73 10.3464 15.6486 10.4278 15.5481 10.4278C15.4477 10.4278 15.3663 10.3464 15.3663 10.246C15.3663 10.1455 15.4477 10.0641 15.5481 10.0641C15.6486 10.0641 15.73 10.1455 15.73 10.246ZM14.7931 9.5831C14.8415 9.58404 14.8883 9.56551 14.9228 9.53166C14.9574 9.49782 14.977 9.4515 14.9771 9.4031C14.9754 9.30284 14.8934 9.22258 14.7931 9.2231C14.6942 9.22424 14.6144 9.3042 14.6134 9.4031C14.6132 9.45086 14.6321 9.49671 14.6658 9.53051C14.6995 9.5643 14.7454 9.58323 14.7931 9.5831ZM16.27 9.1782C16.2363 9.21199 16.1904 9.23092 16.1427 9.2308C16.0949 9.23092 16.0491 9.212 16.0153 9.17821C15.9815 9.14443 15.9626 9.09857 15.9627 9.0508C15.9627 8.95333 16.045 8.87103 16.1427 8.87103C16.2404 8.87103 16.3225 8.9531 16.3225 9.0508C16.3226 9.09855 16.3038 9.14441 16.27 9.1782Z" fill="#CD3529"/>
</svg>
