<svg width="32" height="32" viewBox="0 0 32 32" fill="none" xmlns="http://www.w3.org/2000/svg">
<path d="M20.3445 0.898502C18.9126 1.88023 17.5321 2.33753 16.0003 2.33753C14.4683 2.33753 13.0878 1.88023 11.6558 0.898502L11.2827 0.642746L10.9042 0.890362C9.28568 1.94877 7.97067 2.14239 5.96415 2.14239C5.27236 2.14239 4.52854 2.01345 3.81323 1.76947L3.33673 1.607L3.04683 2.01421C2.89264 2.23079 2.77808 2.36835 2.66736 2.50136C2.53092 2.66518 2.40202 2.82001 2.25064 3.0603L2.00821 3.44515L2.28415 3.80732C3.51042 5.41674 3.97319 7.07251 3.97319 8.63113C3.97319 11.5376 2.36405 14.106 1.09668 15.4047L0.640015 15.8727L1.1058 16.3318C1.35565 16.5781 1.80067 17.0341 2.16871 17.4161L2.15393 17.6164L2.15069 17.6529C2.13558 17.9306 2.12796 18.2087 2.12783 18.4869C2.12783 21.4386 3.01122 23.8926 4.75948 25.7907C6.78353 27.9884 9.9484 29.3003 13.6888 29.5045C14.6177 30.34 15.5616 31.0334 15.6039 31.0644L16.0037 31.3572L16.4031 31.0633C16.445 31.0324 17.3838 30.3394 18.3116 29.5044C22.0519 29.3002 25.2167 27.9883 27.2408 25.7906C28.9889 23.8925 29.8724 21.4384 29.8724 18.487C29.8724 18.2132 29.8647 17.9351 29.8496 17.6527L29.8491 17.6462L29.8458 17.61C29.8458 17.61 29.8326 17.4307 29.8316 17.416C30.1723 17.0623 30.6317 16.5906 30.8944 16.3316L31.36 15.8726L30.9035 15.4046C29.6363 14.1058 28.0271 11.5372 28.0271 8.6307C28.0271 7.07218 28.4898 5.41647 29.7159 3.80721L29.9918 3.4452L29.7496 3.0604C29.5982 2.8199 29.4693 2.66508 29.3328 2.50114C29.2222 2.36819 29.1076 2.23068 28.9536 2.01416L28.6637 1.60678L28.1872 1.76931C27.4718 2.01329 26.728 2.14222 26.0363 2.14222C24.0296 2.14222 22.7145 1.9486 21.0962 0.890199L20.7175 0.642746L20.3445 0.898502Z" fill="black"/>
<path d="M16.0029 30.5333C16.0029 30.5333 14.9337 29.75 13.9678 28.8589C7.64877 28.6002 2.41994 25.1005 2.81947 17.688C2.8431 17.4924 2.82304 17.5056 2.85733 17.1719C2.495 16.7933 1.89547 16.1756 1.57886 15.8636C3.84545 13.5407 6.49031 8.22745 2.81919 3.40947C3.06058 3.02619 3.23531 2.8991 3.59456 2.39442C4.32833 2.64464 5.14425 2.80359 5.96407 2.80359C8.06929 2.80359 9.50667 2.59727 11.2738 1.44156C12.6709 2.39936 14.186 2.99867 16.0003 2.99867C17.8145 2.99867 19.3295 2.39936 20.7265 1.44156C22.4936 2.59721 23.931 2.80359 26.0364 2.80359C26.856 2.80359 27.6721 2.6447 28.4059 2.39442C28.7651 2.89904 28.9398 3.02619 29.181 3.40947C25.5101 8.22745 28.1551 13.5407 30.4215 15.8636C30.1049 16.1756 29.5053 16.7933 29.143 17.1719C29.1771 17.5056 29.1573 17.4924 29.1809 17.688C29.5804 25.1005 24.3514 28.6001 18.0327 28.8589C17.0668 29.75 16.0029 30.5333 16.0029 30.5333Z" fill="#E2B900"/>
<path d="M4.01802 17.2458H3.92885L3.89082 17.5648L3.8634 17.7701C3.71592 20.6254 4.43678 22.9321 6.00547 24.6313C7.80477 26.5805 10.7198 27.6911 14.4355 27.8431C14.4392 27.8432 14.4979 27.8436 14.4979 27.8436C15.6128 27.8495 16.6658 27.8552 17.5616 27.8432C21.2801 27.6911 24.1952 26.5805 25.9945 24.6314C27.5632 22.9322 28.284 20.6256 28.137 17.7753C28.1366 17.7702 28.109 17.5639 28.109 17.5639L28.0713 17.2496L27.9817 17.2459H4.01802V17.2458Z" fill="black"/>
<path d="M4.10712 17.444L4.08905 17.5954C4.08905 17.5954 4.06366 17.7856 4.06338 17.7856C4.05118 18.0194 4.04503 18.2536 4.04492 18.4877C4.04492 20.961 4.75292 22.9804 6.15382 24.4979C6.48862 24.8607 6.86352 25.1936 7.27591 25.4962V17.444H4.10712ZM27.937 17.7906L27.9109 17.5944L27.8929 17.444H24.7241V25.4962C25.1366 25.1937 25.5115 24.8608 25.8463 24.498C27.2475 22.9802 27.9554 20.9603 27.9554 18.4903C27.9553 18.2611 27.9494 18.0278 27.937 17.7906Z" fill="#004B95"/>
<path d="M10.7656 17.444H7.276V25.4961C8.24159 26.2048 9.41421 26.7461 10.7656 27.1107V17.444ZM21.2344 17.444V27.1105C22.5861 26.7458 23.7586 26.2046 24.724 25.4961V17.444H21.2344Z" fill="#A4234B"/>
<path d="M12.655 22.4036C12.655 21.2107 13.2955 20.1656 14.2552 19.5849V17.444H10.7655V27.1107C11.8234 27.3962 12.991 27.5729 14.2552 27.6361V25.2224C13.2955 24.6418 12.655 23.5966 12.655 22.4036ZM17.7448 17.444V19.5849C18.7046 20.1655 19.345 21.2106 19.345 22.4036C19.345 23.5965 18.7046 24.6417 17.7448 25.2224V27.6359C19.0092 27.5725 20.1768 27.3958 21.2345 27.1105V17.444H17.7448Z" fill="#004B95"/>
<path d="M17.7451 19.585V17.444H14.2554V19.5849C14.7633 19.2774 15.3607 19.1001 16.0001 19.1001C16.6396 19.1001 17.2371 19.2775 17.7451 19.585ZM14.2554 25.2226V27.6362C14.317 27.6394 14.3783 27.6428 14.4404 27.6453L14.4992 27.6456C15.6131 27.6515 16.6652 27.6572 17.5564 27.6454C17.6196 27.6428 17.6821 27.6393 17.7451 27.6361V25.2226C17.237 25.5299 16.6395 25.7073 16.0001 25.7073C15.3607 25.7074 14.7633 25.5299 14.2554 25.2226Z" fill="#A4234B"/>
<path d="M14.2931 23.0032C13.6878 22.4588 13.686 21.3526 13.8486 20.6178C13.8937 20.4131 13.9506 20.2128 14.0093 19.9839C13.2977 20.5555 12.8431 21.4272 12.8431 22.4037C12.8426 22.8043 12.9204 23.2012 13.0724 23.5726C13.1262 23.5796 13.1809 23.5833 13.2364 23.5833C13.7039 23.5833 14.0856 23.37 14.2931 23.0032ZM17.5432 23.2418C17.4396 23.7643 16.8738 24.1558 16.3406 24.4698C15.7912 24.7935 14.905 24.9607 14.2382 24.9912C14.7414 25.326 15.3477 25.5215 16 25.5215C17.1907 25.5215 18.2273 24.8705 18.7648 23.9095C18.6707 23.1404 17.9303 23.05 17.5432 23.2418Z" fill="#E2B900"/>
<path d="M13.9935 24.8107C14.6521 24.8157 15.6643 24.6521 16.2445 24.3104C16.9944 23.8685 17.5771 23.3969 17.3002 22.7433C17.1603 22.4129 16.6953 22.0306 16.0923 22.4523C16.0538 22.9403 15.4438 23.3707 15.0059 23.3152C14.784 23.2871 14.5981 23.218 14.4432 23.1179C14.197 23.5332 13.7564 23.7689 13.2365 23.7689C13.2109 23.7689 13.1854 23.7682 13.1602 23.7668C13.3589 24.1698 13.6431 24.5258 13.9935 24.8107ZM15.992 20.4606C16.5142 20.2468 17.238 20.5247 17.7895 20.8288C18.3101 21.1161 18.8537 21.6522 19.1516 22.2152C19.0535 20.5895 17.6946 19.2997 16.0274 19.2858C15.5292 19.6089 15.5973 20.218 15.992 20.4606Z" fill="#E2B900"/>
<path d="M15.9036 22.45C15.2572 21.9843 15.2969 21.2516 15.575 20.8163C15.6433 20.7095 15.7227 20.6256 15.811 20.5613C15.4352 20.2651 15.3599 19.6902 15.724 19.2974C15.1949 19.3425 14.6861 19.5194 14.2451 19.8116C14.1072 20.3971 13.9317 20.9318 13.9405 21.5434C13.9523 22.3676 14.2978 23.0385 15.0297 23.1312C15.3712 23.1744 15.8641 22.8155 15.9036 22.45Z" fill="#E2B900"/>
<path d="M19.1441 22.6903C18.9639 22.0453 18.3163 21.3322 17.6977 20.991C16.9351 20.5702 16.1008 20.3414 15.734 20.9156C15.4985 21.2841 15.4657 21.8927 15.9999 22.2894C16.726 21.7941 17.306 22.2757 17.4735 22.6717C17.5273 22.7985 17.5545 22.9192 17.5593 23.0339C17.9879 22.885 18.6844 22.9809 18.8989 23.6414C19.0312 23.3393 19.114 23.0182 19.1441 22.6903Z" fill="#E2B900"/>
<path d="M13.1222 13.6514H10.9154V16.7158H11.5878V15.4515H12.5035V14.8045H11.5878V14.3027H13.1546V13.6515L13.1222 13.6514ZM14.4056 15.1836C14.4056 16.1431 14.9396 16.7629 15.766 16.7629C16.3047 16.7629 16.6928 16.5289 16.9192 16.0677L16.9322 16.0412L16.3667 15.71L16.3501 15.7373C16.1888 16.004 16.0353 16.1032 15.7834 16.1032C15.3719 16.1032 15.0953 15.7336 15.0953 15.1836C15.0953 14.6164 15.3574 14.264 15.7791 14.264C16.0241 14.264 16.1963 14.365 16.3057 14.5727L16.32 14.5998L16.9425 14.3161L16.9281 14.2868C16.7094 13.8403 16.3151 13.6043 15.7877 13.6043C14.9739 13.6043 14.4056 14.2537 14.4056 15.1836ZM20.6827 15.0562C20.8706 14.9246 20.9809 14.718 20.9809 14.4763C20.9809 13.9598 20.6085 13.6514 19.9849 13.6514H18.5594V16.7158H19.9718C20.6689 16.7158 21.0849 16.3417 21.0849 15.7152C21.0849 15.4217 20.9365 15.1866 20.6827 15.0562ZM19.2187 14.2684H19.9589C20.2609 14.2684 20.2996 14.4047 20.2996 14.5235C20.2996 14.6924 20.1981 14.7745 19.9893 14.7745H19.2187L19.2187 14.2684ZM19.9935 16.0818H19.2187V15.37H19.9935C20.2676 15.37 20.3952 15.4824 20.3952 15.7237C20.3952 15.9579 20.2564 16.0818 19.9935 16.0818ZM20.6918 2.69625C19.1885 3.59436 17.6538 4.03153 16 4.03272C14.3463 4.03158 12.8117 3.59436 11.3083 2.69625L11.2581 2.66624L11.2071 2.69479C9.49452 3.65058 7.98774 3.83753 5.9638 3.83753C5.4774 3.83753 4.97561 3.78928 4.47218 3.6941L4.25525 3.65308L4.36668 3.84143C6.44602 7.35561 5.70785 10.7531 4.72252 12.9845L4.66126 13.1233H27.339L27.2777 12.9845C26.2924 10.7531 25.5542 7.35561 27.6334 3.84143L27.7449 3.65308L27.5281 3.6941C27.0247 3.78928 26.5228 3.83753 26.0364 3.83753C24.0125 3.83753 22.5057 3.65058 20.7932 2.69479L20.7421 2.66624L20.6918 2.69625Z" fill="black"/>
<path d="M9.04463 3.75286C8.09481 3.97541 7.11059 4.03565 5.96383 4.03565C5.53013 4.03565 5.08412 3.99131 4.63635 3.91745C5.16764 4.85567 5.50568 5.78406 5.69745 6.68391H9.04469L9.04463 3.75286ZM15.8998 6.68391V4.22911C14.6989 4.21559 13.5593 3.97487 12.4486 3.49987V6.68391H15.8998ZM5.79239 10.0457C5.63431 11.1218 5.31886 12.0972 4.96455 12.925H9.04469V10.0457H5.79239ZM12.4486 12.925H15.8998V10.0457H12.4486V12.925Z" fill="white"/>
<path d="M12.4485 6.68395V3.49993C12.0472 3.32834 11.6495 3.12696 11.2543 2.89351C10.4985 3.30962 9.78197 3.58014 9.04463 3.75287V6.6839H5.69739C5.832 7.31559 5.89982 7.95939 5.89976 8.60492C5.89976 9.10151 5.86042 9.5828 5.79239 10.0457H9.04463V12.9249H12.4486V10.0457H15.8998V6.6839L12.4485 6.68395Z" fill="#DB2F36"/>
<path d="M20.7456 2.89351L20.7408 2.89628V12.925H21.9374V3.44356C21.5454 3.29676 21.1512 3.11676 20.7456 2.89351ZM18.3476 3.91926V12.925H19.5442V3.50298C19.1556 3.66918 18.7558 3.80828 18.3476 3.91926ZM16.1003 4.22917V12.925H17.1509V4.15624C16.8025 4.2007 16.4517 4.22505 16.1003 4.22917ZM23.1342 3.79135V12.925H24.3307V3.96897C23.9192 3.93125 23.5231 3.87389 23.1342 3.79135ZM26.1003 8.60502C26.1003 7.13787 26.4438 5.54199 27.3638 3.91752C26.916 3.99132 26.4699 4.03571 26.0363 4.03571C25.8626 4.03571 25.694 4.03371 25.5274 4.03056V12.925H27.0356C26.5288 11.741 26.1003 10.256 26.1003 8.60502Z" fill="#FFDF00"/>
<path d="M24.3308 3.96895V12.9249H25.5274V4.03054C25.1105 4.02273 24.7136 4.00401 24.3308 3.96895ZM17.1511 4.15623V12.9249H18.3477V3.91924C17.9549 4.02577 17.5551 4.10496 17.1511 4.15623ZM19.5443 3.50297V12.9249H20.7409V2.89627C20.3449 3.12994 19.9464 3.33143 19.5443 3.50297ZM21.9375 3.44355V12.9249H23.1342V3.79134C22.727 3.70543 22.3269 3.58916 21.9375 3.44355Z" fill="#DB2F36"/>
</svg>
