<svg width="16" height="16" viewBox="0 0 16 16" fill="none" xmlns="http://www.w3.org/2000/svg">
<path d="M7.99192 0.5C6.73508 0.501285 5.49864 0.817607 4.39572 1.42002C3.2928 2.02244 2.35862 2.89171 1.67867 3.9483C0.72234 5.44748 0.328949 7.23712 0.568461 8.99895C0.807973 10.7608 1.66486 12.3806 2.98674 13.5703C4.30862 14.7601 6.0098 15.4426 7.78774 15.4965C9.56569 15.5505 11.3052 14.9724 12.6968 13.865C13.908 12.8905 14.787 11.5645 15.2128 10.0697C15.6385 8.57494 15.59 6.98498 15.0739 5.51894C14.5578 4.05289 13.5995 2.78292 12.3312 1.88403C11.0628 0.985147 9.54673 0.50159 7.99192 0.5ZM9.49507 2.19785C10.5336 2.46657 11.4813 3.00815 12.2399 3.7664C12.9985 4.52466 13.5403 5.47198 13.8091 6.5101C12.5525 6.54548 11.3259 6.90243 10.2467 7.54684C9.7047 6.9323 9.10018 6.37586 8.44287 5.88655C9.10511 4.76789 9.46752 3.49741 9.49507 2.19785ZM7.99192 2.00253C7.98945 3.08061 7.69325 4.13765 7.13512 5.06016C7.02239 5.00006 6.91716 4.93245 6.80443 4.87986C5.83667 4.36945 4.80188 3.99768 3.73048 3.7755C4.28893 3.21395 4.95289 2.76824 5.68421 2.46397C6.41553 2.15971 7.19978 2.00289 7.99192 2.00253ZM2.73088 5.12778C3.90967 5.29146 5.05131 5.65745 6.10546 6.2096L6.20317 6.2697C5.64844 6.82368 4.98979 7.26279 4.26498 7.56187C3.54017 7.86096 2.76344 8.01413 1.9793 8.01263C1.98348 7.00318 2.24196 6.01104 2.73088 5.12778ZM6.48877 13.8274C5.45021 13.5587 4.50249 13.0171 3.74392 12.2588C2.98535 11.5006 2.44355 10.5533 2.17471 9.51515C3.17856 9.49287 4.16751 9.26773 5.082 8.85328C5.99649 8.43883 6.8176 7.84366 7.49588 7.1036C8.0392 7.50507 8.54258 7.95792 8.99903 8.45587C8.23797 9.13418 7.62294 9.96019 7.19138 10.8836C6.75983 11.8071 6.52077 12.8087 6.48877 13.8274ZM7.99192 14.0227C7.99354 13.1974 8.16521 12.3812 8.49624 11.6251C8.82726 10.8689 9.31054 10.1891 9.91596 9.62784C9.96105 9.68794 10.0061 9.74053 10.0437 9.80063C10.6735 10.7647 11.1407 11.8255 11.4266 12.9409C10.4207 13.6469 9.22103 14.0248 7.99192 14.0227ZM12.6592 11.7689C12.3328 10.775 11.878 9.82794 11.3064 8.9517L11.1485 8.76389C12.0224 8.27794 13.0046 8.01959 14.0045 8.01263C13.9971 9.38133 13.5225 10.7065 12.6592 11.7689Z" fill="#6DAAFD"/>
</svg>
