<svg width="18" height="18" viewBox="0 0 18 18" fill="none" xmlns="http://www.w3.org/2000/svg">
<path fill-rule="evenodd" clip-rule="evenodd" d="M0 0H18V18H0V0Z" fill="white"/>
<path fill-rule="evenodd" clip-rule="evenodd" d="M9.00009 17.5929C13.7457 17.5929 17.593 13.7456 17.593 8.99992C17.593 4.25431 13.7457 0.407043 9.00009 0.407043C4.25449 0.407137 0.407227 4.2544 0.407227 9.00001C0.407227 13.7456 4.25449 17.5929 9.00009 17.5929Z" fill="white"/>
<path d="M9 17.4504C11.3335 17.4504 13.4461 16.5046 14.9754 14.9754C16.5046 13.4461 17.4504 11.3335 17.4504 9C17.4504 6.66657 16.5046 4.55379 14.9754 3.02466C13.4461 1.49543 11.3335 0.549558 9 0.549558C6.66647 0.549558 4.55379 1.49543 3.02466 3.02466C1.49543 4.55379 0.549558 6.66657 0.549558 9C0.549558 11.3335 1.49543 13.4461 3.02466 14.9754C4.55379 16.5046 6.66657 17.4504 9 17.4504ZM9 17.7354C6.58794 17.7354 4.40401 16.7576 2.82323 15.1769C1.24245 13.5959 0.264648 11.4123 0.264648 9C0.264648 6.58794 1.24245 4.4041 2.82323 2.82323C4.4041 1.24255 6.58803 0.264648 9 0.264648C11.4122 0.264648 13.596 1.24245 15.1768 2.82323C16.7576 4.40401 17.7353 6.58784 17.7353 8.99991C17.7353 11.4121 16.7575 13.5958 15.1768 15.1766C13.5961 16.7576 11.4122 17.7354 9 17.7354Z" fill="#346BA5"/>
<path d="M8.99997 14.0353C10.3905 14.0353 11.6494 13.4717 12.5605 12.5607C13.4716 11.6494 14.0351 10.3906 14.0351 8.99999C14.0351 7.60943 13.4716 6.35045 12.5605 5.43951C11.6493 4.52838 10.3905 3.96481 8.99997 3.96481C7.60931 3.96481 6.35043 4.52838 5.43939 5.43951C4.52826 6.35054 3.96469 7.60943 3.96469 8.99999C3.96469 10.3906 4.52826 11.6494 5.43939 12.5607C6.35052 13.4717 7.60941 14.0353 8.99997 14.0353ZM8.99997 17.0258C6.78391 17.0258 4.77749 16.1274 3.32502 14.6748C1.87255 13.2225 0.974121 11.216 0.974121 8.99989C0.974121 6.78384 1.87255 4.77743 3.32502 3.32496C4.77749 1.87249 6.78391 0.97406 8.99997 0.97406C11.216 0.97406 13.2224 1.87249 14.675 3.32496C16.1274 4.77743 17.0258 6.78384 17.0258 8.99989C17.0258 11.2159 16.1274 13.2225 14.675 14.6748C13.2225 16.1274 11.216 17.0258 8.99997 17.0258Z" fill="#CC2229"/>
<path fill-rule="evenodd" clip-rule="evenodd" d="M1.92934 6.54945L2.43967 5.38852L2.80246 5.54802L2.49972 6.23671L2.79452 6.36623L3.05329 5.77783L3.39422 5.92771L3.13556 6.51611L3.82528 6.81932L3.61769 7.29156L1.92934 6.54945ZM4.36699 4.61653L4.77152 4.37C4.8592 4.48327 4.91813 4.59496 4.94829 4.70515C4.97836 4.81534 4.98069 4.92254 4.95548 5.02676C4.93017 5.13106 4.86985 5.23995 4.77432 5.3535C4.65768 5.49217 4.54049 5.5864 4.42245 5.63617C4.30442 5.68603 4.16257 5.69547 3.99682 5.66446C3.83116 5.63355 3.66064 5.54437 3.48546 5.39702C3.25191 5.20054 3.11931 4.99389 3.08774 4.77658C3.05618 4.55947 3.1265 4.34852 3.29869 4.14383C3.43307 3.98405 3.57464 3.88871 3.7234 3.85761C3.87225 3.82661 4.03996 3.85126 4.22663 3.93157L4.02091 4.3502C3.96759 4.3262 3.92538 4.31266 3.89419 4.3093C3.84539 4.30279 3.79574 4.30814 3.74945 4.32489C3.704 4.34209 3.66387 4.37095 3.6331 4.40857C3.55811 4.49775 3.54037 4.59963 3.58005 4.71402C3.60891 4.79965 3.68651 4.89555 3.81295 5.00192C3.96955 5.13359 4.09496 5.20241 4.18909 5.2082C4.28331 5.21408 4.36288 5.1785 4.42768 5.10146C4.49081 5.02638 4.51518 4.9499 4.50071 4.87193C4.48605 4.79395 4.4415 4.70879 4.36699 4.61653ZM5.871 2.63794L6.07709 2.544C6.14731 2.51197 6.20306 2.5031 6.24424 2.51757C6.28533 2.53195 6.31708 2.56361 6.33949 2.61245C6.36349 2.66512 6.3676 2.712 6.35163 2.7529C6.33567 2.79389 6.2914 2.83078 6.21903 2.86393L6.0163 2.95638L5.871 2.63794ZM6.00976 4.19182L6.81593 3.82418C6.85029 3.80849 6.9166 3.76899 7.01502 3.70558C7.08842 3.65833 7.13931 3.61295 7.16742 3.56971C7.21159 3.5007 7.23606 3.4231 7.241 3.33691C7.24605 3.25072 7.22859 3.16406 7.18899 3.07703C7.14015 2.9701 7.07413 2.89306 6.99074 2.84581C6.90735 2.79856 6.80482 2.78511 6.68333 2.80556C6.74169 2.74571 6.77886 2.68351 6.79473 2.61908C6.81798 2.52271 6.80706 2.42494 6.76177 2.32558C6.70779 2.20726 6.62338 2.12593 6.50852 2.08138C6.39366 2.03684 6.26376 2.04767 6.11874 2.11388L5.24384 2.513L6.00976 4.19182ZM6.16198 3.27584L6.39898 3.16779C6.48069 3.13053 6.54466 3.11961 6.59088 3.13492C6.63701 3.15024 6.67147 3.18274 6.69407 3.23232C6.71844 3.28583 6.72133 3.33588 6.70312 3.38248C6.68473 3.42917 6.63542 3.47073 6.55521 3.50724L6.31708 3.61594L6.16198 3.27584ZM8.00562 2.75551L8.10208 2.07494L8.36859 2.70882L8.00562 2.75551ZM8.64519 3.38211L9.17794 3.31366L8.32442 1.5647L7.76936 1.63595L7.38556 3.54384L7.90561 3.47708L7.94669 3.16499L8.52548 3.09075L8.64519 3.38211ZM9.19596 1.48822L9.76008 1.57068L10.001 2.23547L10.4237 1.66779L10.984 1.74978L10.1899 2.71713L10.0781 3.48165L9.56893 3.40704L9.68071 2.64261L9.19596 1.48822ZM11.5828 1.96933L12.8238 2.5567L12.6554 2.91239L11.8781 2.54447L11.7528 2.80921L12.4745 3.1508L12.3136 3.49062L11.592 3.14912L11.4366 3.47754L12.2367 3.85612L12.0581 4.23338L10.7944 3.63536L11.5828 1.96933ZM13.6055 3.60865L13.7721 3.75993C13.8416 3.82296 13.8783 3.87778 13.8822 3.92419C13.8858 3.9706 13.8678 4.0158 13.8278 4.05988C13.8026 4.08846 13.7692 4.10858 13.7321 4.11749C13.6981 4.12647 13.6619 4.12167 13.6314 4.10414C13.5705 4.07146 13.5313 4.04727 13.5139 4.03149L13.3538 3.88609L13.6055 3.60865ZM12.6171 4.69805L13.1198 4.14401L13.1533 4.17446C13.1879 4.20593 13.2095 4.24459 13.2176 4.29053C13.2234 4.32527 13.2146 4.38111 13.191 4.45815L13.0156 5.05953L13.4447 5.44903L13.6204 4.88678C13.6292 4.85848 13.637 4.81403 13.6437 4.75352C13.6507 4.69291 13.652 4.65061 13.6478 4.62652C13.6424 4.59122 13.625 4.54453 13.5947 4.48663C13.6642 4.52361 13.725 4.54584 13.7769 4.55349C13.8581 4.56558 13.9411 4.55707 14.0182 4.52875C14.0974 4.50027 14.1713 4.44816 14.2398 4.37243C14.3186 4.28549 14.3663 4.19453 14.3831 4.09938C14.4 4.00413 14.3873 3.91728 14.3456 3.83865C14.3039 3.76002 14.2243 3.66748 14.107 3.56093L13.4747 2.98729L12.2363 4.35254L12.6171 4.69805ZM15.0865 4.61214L15.3243 5.02862L14.7484 6.07833L15.6349 5.57183L15.8746 5.99149L14.2723 6.9072L14.0326 6.48744L14.6037 5.44474L13.7239 5.94751L13.4842 5.52785L15.0865 4.61214ZM3.31952 9.44056L3.47799 10.0893L2.45956 10.6035L3.60004 10.5891L3.75823 11.2367L1.98387 11.6699L1.88536 11.2669L3.23856 10.9365L1.80925 10.9546L1.71988 10.5891L2.99716 9.94754L1.64396 10.278L1.54517 9.87367L3.31952 9.44056ZM4.48586 12.3633L4.769 12.7834L3.86692 13.3915C3.78134 13.4499 3.6873 13.4948 3.58809 13.5246C3.49481 13.5529 3.39652 13.5605 3.3 13.5471C3.20438 13.5334 3.12472 13.5055 3.06122 13.4632C2.97232 13.4041 2.88912 13.317 2.81171 13.202C2.76328 13.1292 2.71964 13.0534 2.68107 12.9749C2.63848 12.8895 2.61476 12.8102 2.60991 12.7369C2.60505 12.6636 2.61626 12.5862 2.64343 12.5049C2.6707 12.4236 2.70861 12.3545 2.75736 12.2975C2.83599 12.2065 2.91265 12.136 2.98689 12.0857L3.88896 11.4778L4.1721 11.8978L3.24836 12.5205C3.16572 12.576 3.1152 12.6401 3.09662 12.7128C3.07794 12.7853 3.09325 12.8582 3.14247 12.9311C3.19112 13.0033 3.25228 13.0447 3.32587 13.0551C3.39945 13.0655 3.47817 13.0425 3.56213 12.986L4.48586 12.3633ZM4.98293 13.0092L5.36132 13.2951L5.2459 14.4735L5.85475 13.6683L6.23612 13.9564L5.13552 15.4123L4.75415 15.1241L4.86798 13.9537L4.2637 14.7531L3.88233 14.4649L4.98293 13.0092ZM7.20739 15.4639L7.58101 15.7471C7.50845 15.869 7.42693 15.9636 7.33635 16.0313C7.24567 16.0988 7.1479 16.14 7.04276 16.1546C6.93761 16.1689 6.81537 16.1529 6.67614 16.106C6.50618 16.0488 6.37694 15.9751 6.28832 15.8844C6.19979 15.7937 6.13966 15.6665 6.10809 15.5027C6.07653 15.3389 6.0968 15.1496 6.16907 14.9347C6.26526 14.6484 6.40776 14.4514 6.5963 14.3436C6.78493 14.2358 7.00465 14.2242 7.25567 14.3086C7.45149 14.3744 7.59063 14.4701 7.67318 14.596C7.75563 14.7219 7.79364 14.8853 7.78738 15.0863L7.32729 15.0484C7.33009 14.9907 7.32729 14.9468 7.31898 14.9169C7.30734 14.8696 7.28443 14.8259 7.25221 14.7894C7.21983 14.7538 7.17873 14.7273 7.13296 14.7125C7.02361 14.6758 6.92332 14.6964 6.83237 14.7745C6.76401 14.8319 6.70378 14.9383 6.65158 15.0931C6.58705 15.285 6.56903 15.4256 6.59788 15.5144C6.62664 15.6032 6.68828 15.6637 6.78269 15.6954C6.87467 15.7264 6.95395 15.7211 7.02044 15.6795C7.08692 15.638 7.1493 15.566 7.20739 15.4639ZM8.19994 14.6162L8.70794 14.6167L8.7072 15.2556L9.26123 15.2561L9.26198 14.6174L9.77241 14.618L9.77026 16.4433L9.25974 16.4427L9.26067 15.7045L8.70673 15.7037L8.70589 16.442L8.1978 16.4414L8.19994 14.6162ZM10.0946 14.5519L11.3876 14.1352L11.5072 14.5058L10.6972 14.767L10.7862 15.0429L11.5382 14.8005L11.6523 15.1545L10.9002 15.397L11.0105 15.7393L11.8442 15.4704L11.9709 15.8637L10.6541 16.2881L10.0946 14.5519ZM11.6469 14.0142L12.0315 13.7363L13.1249 14.1922L12.5331 13.3737L12.9206 13.0934L13.9903 14.5731L13.6028 14.8533L12.5168 14.4013L13.1041 15.2138L12.7166 15.494L11.6469 14.0142ZM13.669 12.1896L14.3006 10.9866L14.6455 11.1678L14.2497 11.9212L14.5063 12.056L14.8736 11.3563L15.2032 11.5292L14.8359 12.2289L15.1541 12.3959L15.5614 11.6204L15.9271 11.8125L15.284 13.0374L13.669 12.1896ZM14.3684 10.8732L14.4629 10.3499L15.8215 10.219L14.5931 9.62807L14.6845 9.12064L16.3728 10.0451L16.2754 10.5855L14.3684 10.8732Z" fill="white"/>
<path fill-rule="evenodd" clip-rule="evenodd" d="M4.21149 11.9667L4.43402 12.2962L3.90894 12.4028L4.21149 11.9667Z" fill="white"/>
<path fill-rule="evenodd" clip-rule="evenodd" d="M9.00007 13.8292C11.667 13.8292 13.8291 11.667 13.8291 9.00001C13.8291 6.33301 11.667 4.17093 9.00007 4.17093C6.33298 4.17093 4.1709 6.33301 4.1709 9.00001C4.1709 11.667 6.33307 13.8292 9.00007 13.8292Z" fill="#346BA5"/>
<path fill-rule="evenodd" clip-rule="evenodd" d="M9.21371 4.73255V6.71441L10.1986 8.36634V6.42725L9.21371 4.73255ZM8.00328 5.15978V7.14163L8.98819 8.79356V6.85448L8.00328 5.15978ZM6.79277 5.587V7.56885L7.77777 9.22079V7.2817L6.79277 5.587ZM5.58225 6.01422V7.99608L6.56725 9.64792V7.70883L5.58225 6.01422ZM4.37183 7.73022V8.4233L5.35673 10.0753V8.13606L4.7108 6.93161L4.37183 7.73022ZM10.4242 4.30533V6.28718L11.4091 7.93911V5.99994L10.4242 4.30533ZM11.6346 5.02923L12.6196 5.96912V7.55457L11.6346 5.85996V5.02923ZM8.83159 13.1512V11.2121L7.84659 9.51755V11.4994L8.83159 13.1512ZM10.0419 12.7241V10.7849L9.05701 9.09024V11.072L10.0419 12.7241ZM11.2524 12.2968V10.3576L10.2675 8.66311V10.6449L11.2524 12.2968ZM12.463 11.8696V9.93049L11.478 8.23579V10.2177L12.463 11.8696ZM13.6735 10.1535V9.318L12.6886 7.80866V9.79042L13.3344 10.8098L13.6735 10.1535ZM7.62107 13.5357V11.6395L6.63616 9.94469V11.9694L7.62107 13.5357ZM6.41065 12.9543L5.42565 12.0998V10.3718L6.41065 12.1093V12.9543Z" fill="white"/>
<path d="M8.99997 13.6156C10.2745 13.6156 11.4285 13.0989 12.2637 12.2637C13.0989 11.4285 13.6156 10.2746 13.6156 8.99998C13.6156 7.72541 13.0989 6.57148 12.2637 5.73627C11.4285 4.90106 10.2745 4.38447 8.99997 4.38447C7.7254 4.38447 6.57148 4.90106 5.73627 5.73627C4.90106 6.57148 4.38447 7.72541 4.38447 8.99998C4.38447 10.2746 4.90106 11.4286 5.73627 12.2637C6.57148 13.0988 7.7254 13.6156 8.99997 13.6156ZM8.99997 14.0427C7.60755 14.0427 6.3468 13.4782 5.43418 12.5658C4.52165 11.6533 3.95715 10.3925 3.95715 8.99998C3.95715 7.60756 4.52165 6.3468 5.43418 5.43427C6.34671 4.52174 7.60755 3.95724 8.99997 3.95724C10.3924 3.95724 11.6532 4.52174 12.5657 5.43427C13.4781 6.3468 14.0426 7.60756 14.0426 8.99998C14.0426 10.3924 13.4781 11.6533 12.5657 12.5658C11.6532 13.4783 10.3924 14.0427 8.99997 14.0427Z" fill="white"/>
</svg>
