<svg width="18" height="18" viewBox="0 0 18 18" fill="none" xmlns="http://www.w3.org/2000/svg">
<path d="M8.99997 17.28C13.5729 17.28 17.28 13.5729 17.28 8.99997C17.28 4.42705 13.5729 0.719971 8.99997 0.719971C4.42705 0.719971 0.719971 4.42705 0.719971 8.99997C0.719971 13.5729 4.42705 17.28 8.99997 17.28Z" fill="#F8E944" stroke="black" stroke-width="0.76498"/>
<path d="M8.99986 15.7067C12.7039 15.7067 15.7066 12.704 15.7066 8.99998C15.7066 5.29593 12.7039 2.29321 8.99986 2.29321C5.29581 2.29321 2.29309 5.29593 2.29309 8.99998C2.29309 12.704 5.29581 15.7067 8.99986 15.7067Z" stroke="black" stroke-width="0.76498"/>
<path d="M9.00001 16.4893C13.1362 16.4893 16.4893 13.1362 16.4893 9.00001C16.4893 4.8638 13.1362 1.51074 9.00001 1.51074C4.8638 1.51074 1.51074 4.8638 1.51074 9.00001C1.51074 13.1362 4.8638 16.4893 9.00001 16.4893Z" stroke="black" stroke-width="2.44816"/>
<path d="M4.68842 9.14133H5.82727C6.15412 9.14133 6.47718 9.33264 6.47718 9.83476C6.47718 10.4166 6.22597 10.6716 5.78917 10.6716H4.68842V9.14133ZM3.82507 11.6612H5.64557C6.52505 11.6612 6.75858 11.4618 7.00413 11.1425C7.23168 10.8471 7.37536 10.4166 7.37536 9.96223C7.37536 9.39642 7.23765 8.83836 6.71078 8.57528C6.8855 8.45564 7.23323 8.22445 7.23323 7.40074C7.23323 6.80909 6.9634 5.93116 5.91075 5.93116H3.82507V11.6612ZM4.68842 6.92081H5.71741C6.11944 6.92081 6.36988 7.06481 6.36988 7.53667C6.36988 7.99263 6.08965 8.17658 5.73781 8.17658H4.68842V6.92081ZM12.2287 9.14133H13.3676C13.6944 9.14133 14.0175 9.33264 14.0175 9.83476C14.0175 10.4166 13.7662 10.6716 13.3295 10.6716H12.2287V9.14133ZM11.3654 11.6612H13.1859C14.0654 11.6612 14.2989 11.4618 14.5444 11.1425C14.772 10.8471 14.9157 10.4166 14.9157 9.96223C14.9157 9.39642 14.778 8.83836 14.2511 8.57528C14.4258 8.45564 14.7736 8.22445 14.7736 7.40074C14.7736 6.80909 14.5037 5.93116 13.4511 5.93116H11.3654V11.6612ZM12.2287 6.92081H13.2577C13.6598 6.92081 13.9102 7.06481 13.9102 7.53667C13.9102 7.99263 13.63 8.17658 13.2782 8.17658H12.2288V6.92081H12.2287ZM10.0862 3.40295H11.0203L9.55926 9.13302H8.70297L7.25402 3.40295H8.218L9.14007 7.74444H9.1521L10.0862 3.40295ZM7.69803 13.2169C7.69803 12.6337 7.76856 12.4139 8.02481 12.4139C8.28107 12.4139 8.35159 12.6337 8.35159 13.2169C8.35159 13.8 8.28107 14.0231 8.02481 14.0231C7.76856 14.0231 7.69803 13.8 7.69803 13.2169ZM7.23726 13.2169C7.23726 14.0104 7.49003 14.3807 8.02481 14.3807C8.55967 14.3807 8.81244 14.0104 8.81244 13.2169C8.81244 12.4235 8.55967 12.0563 8.02481 12.0563C7.49003 12.0563 7.23726 12.4235 7.23726 13.2169ZM9.8121 12.8054C9.8121 12.4797 10.019 12.4222 10.1335 12.4222C10.3626 12.4222 10.474 12.5819 10.474 12.8406C10.474 13.1089 10.3022 13.2206 10.1463 13.2206C9.97766 13.2206 9.8121 13.1472 9.8121 12.8054ZM9.40867 13.7975C9.44707 14.1572 9.72567 14.3808 10.1113 14.3808C10.5189 14.3808 10.9349 14.0966 10.9349 13.2206C10.9349 12.9012 10.9221 12.0563 10.1368 12.0563C9.69371 12.0563 9.3639 12.314 9.3639 12.8693C9.3639 13.2493 9.6169 13.5782 10.0508 13.5782C10.2036 13.5782 10.3786 13.5398 10.4806 13.3866L10.487 13.393C10.4837 13.8674 10.2992 14.0232 10.1146 14.0232C9.97774 14.0232 9.87905 13.9565 9.85361 13.8007V13.7975H9.40867Z" fill="black"/>
</svg>
