<svg width="30" height="30" viewBox="0 0 30 30" fill="none" xmlns="http://www.w3.org/2000/svg">
<g opacity="0.3">
<circle cx="15" cy="15" r="15" fill="#C4C4C4"/>
<path d="M15 20.25C15.1483 20.25 15.2933 20.206 15.4167 20.1236C15.54 20.0412 15.6361 19.9241 15.6929 19.787C15.7497 19.65 15.7645 19.4992 15.7356 19.3537C15.7066 19.2082 15.6352 19.0746 15.5303 18.9697C15.4254 18.8648 15.2918 18.7934 15.1463 18.7644C15.0008 18.7355 14.85 18.7503 14.713 18.8071C14.5759 18.8639 14.4588 18.96 14.3764 19.0833C14.294 19.2067 14.25 19.3517 14.25 19.5C14.25 19.6989 14.329 19.8897 14.4697 20.0303C14.6103 20.171 14.8011 20.25 15 20.25ZM18.75 20.25C18.8983 20.25 19.0433 20.206 19.1667 20.1236C19.29 20.0412 19.3861 19.9241 19.4429 19.787C19.4997 19.65 19.5145 19.4992 19.4856 19.3537C19.4566 19.2082 19.3852 19.0746 19.2803 18.9697C19.1754 18.8648 19.0418 18.7934 18.8963 18.7644C18.7508 18.7355 18.6 18.7503 18.463 18.8071C18.3259 18.8639 18.2088 18.96 18.1264 19.0833C18.044 19.2067 18 19.3517 18 19.5C18 19.6989 18.079 19.8897 18.2197 20.0303C18.3603 20.171 18.5511 20.25 18.75 20.25ZM18.75 17.25C18.8983 17.25 19.0433 17.206 19.1667 17.1236C19.29 17.0412 19.3861 16.9241 19.4429 16.787C19.4997 16.65 19.5145 16.4992 19.4856 16.3537C19.4566 16.2082 19.3852 16.0746 19.2803 15.9697C19.1754 15.8648 19.0418 15.7934 18.8963 15.7644C18.7508 15.7355 18.6 15.7503 18.463 15.8071C18.3259 15.8639 18.2088 15.96 18.1264 16.0833C18.044 16.2067 18 16.3517 18 16.5C18 16.6989 18.079 16.8897 18.2197 17.0303C18.3603 17.171 18.5511 17.25 18.75 17.25ZM15 17.25C15.1483 17.25 15.2933 17.206 15.4167 17.1236C15.54 17.0412 15.6361 16.9241 15.6929 16.787C15.7497 16.65 15.7645 16.4992 15.7356 16.3537C15.7066 16.2082 15.6352 16.0746 15.5303 15.9697C15.4254 15.8648 15.2918 15.7934 15.1463 15.7644C15.0008 15.7355 14.85 15.7503 14.713 15.8071C14.5759 15.8639 14.4588 15.96 14.3764 16.0833C14.294 16.2067 14.25 16.3517 14.25 16.5C14.25 16.6989 14.329 16.8897 14.4697 17.0303C14.6103 17.171 14.8011 17.25 15 17.25ZM20.25 8.25H19.5V7.5C19.5 7.30109 19.421 7.11032 19.2803 6.96967C19.1397 6.82902 18.9489 6.75 18.75 6.75C18.5511 6.75 18.3603 6.82902 18.2197 6.96967C18.079 7.11032 18 7.30109 18 7.5V8.25H12V7.5C12 7.30109 11.921 7.11032 11.7803 6.96967C11.6397 6.82902 11.4489 6.75 11.25 6.75C11.0511 6.75 10.8603 6.82902 10.7197 6.96967C10.579 7.11032 10.5 7.30109 10.5 7.5V8.25H9.75C9.15326 8.25 8.58097 8.48705 8.15901 8.90901C7.73705 9.33097 7.5 9.90326 7.5 10.5V21C7.5 21.5967 7.73705 22.169 8.15901 22.591C8.58097 23.0129 9.15326 23.25 9.75 23.25H20.25C20.8467 23.25 21.419 23.0129 21.841 22.591C22.2629 22.169 22.5 21.5967 22.5 21V10.5C22.5 9.90326 22.2629 9.33097 21.841 8.90901C21.419 8.48705 20.8467 8.25 20.25 8.25ZM21 21C21 21.1989 20.921 21.3897 20.7803 21.5303C20.6397 21.671 20.4489 21.75 20.25 21.75H9.75C9.55109 21.75 9.36032 21.671 9.21967 21.5303C9.07902 21.3897 9 21.1989 9 21V14.25H21V21ZM21 12.75H9V10.5C9 10.3011 9.07902 10.1103 9.21967 9.96967C9.36032 9.82902 9.55109 9.75 9.75 9.75H10.5V10.5C10.5 10.6989 10.579 10.8897 10.7197 11.0303C10.8603 11.171 11.0511 11.25 11.25 11.25C11.4489 11.25 11.6397 11.171 11.7803 11.0303C11.921 10.8897 12 10.6989 12 10.5V9.75H18V10.5C18 10.6989 18.079 10.8897 18.2197 11.0303C18.3603 11.171 18.5511 11.25 18.75 11.25C18.9489 11.25 19.1397 11.171 19.2803 11.0303C19.421 10.8897 19.5 10.6989 19.5 10.5V9.75H20.25C20.4489 9.75 20.6397 9.82902 20.7803 9.96967C20.921 10.1103 21 10.3011 21 10.5V12.75ZM11.25 17.25C11.3983 17.25 11.5433 17.206 11.6667 17.1236C11.79 17.0412 11.8861 16.9241 11.9429 16.787C11.9997 16.65 12.0145 16.4992 11.9856 16.3537C11.9567 16.2082 11.8852 16.0746 11.7803 15.9697C11.6754 15.8648 11.5418 15.7934 11.3963 15.7644C11.2508 15.7355 11.1 15.7503 10.963 15.8071C10.8259 15.8639 10.7088 15.96 10.6264 16.0833C10.544 16.2067 10.5 16.3517 10.5 16.5C10.5 16.6989 10.579 16.8897 10.7197 17.0303C10.8603 17.171 11.0511 17.25 11.25 17.25ZM11.25 20.25C11.3983 20.25 11.5433 20.206 11.6667 20.1236C11.79 20.0412 11.8861 19.9241 11.9429 19.787C11.9997 19.65 12.0145 19.4992 11.9856 19.3537C11.9567 19.2082 11.8852 19.0746 11.7803 18.9697C11.6754 18.8648 11.5418 18.7934 11.3963 18.7644C11.2508 18.7355 11.1 18.7503 10.963 18.8071C10.8259 18.8639 10.7088 18.96 10.6264 19.0833C10.544 19.2067 10.5 19.3517 10.5 19.5C10.5 19.6989 10.579 19.8897 10.7197 20.0303C10.8603 20.171 11.0511 20.25 11.25 20.25Z" fill="black"/>
</g>
</svg>
