<svg width="18" height="18" viewBox="0 0 18 18" fill="none" xmlns="http://www.w3.org/2000/svg">
<path d="M9 18C13.9706 18 18 13.9706 18 9C18 4.02944 13.9706 0 9 0C4.02944 0 0 4.02944 0 9C0 13.9706 4.02944 18 9 18Z" fill="#6DAAFD"/>
<path d="M13.4733 5.8067C13.4114 5.74421 13.3376 5.69461 13.2564 5.66077C13.1752 5.62692 13.088 5.6095 13 5.6095C12.912 5.6095 12.8249 5.62692 12.7436 5.66077C12.6624 5.69461 12.5886 5.74421 12.5267 5.8067L7.56001 10.78L5.47334 8.6867C5.40899 8.62454 5.33303 8.57566 5.2498 8.54286C5.16656 8.51006 5.07768 8.49397 4.98822 8.49552C4.89877 8.49706 4.8105 8.51622 4.72844 8.55188C4.64639 8.58754 4.57217 8.63901 4.51001 8.70336C4.44785 8.76771 4.39897 8.84367 4.36617 8.92691C4.33337 9.01014 4.31728 9.09903 4.31883 9.18848C4.32038 9.27793 4.33953 9.36621 4.37519 9.44826C4.41085 9.53031 4.46233 9.60454 4.52667 9.6667L7.08667 12.2267C7.14865 12.2892 7.22238 12.3388 7.30362 12.3726C7.38486 12.4065 7.472 12.4239 7.56001 12.4239C7.64802 12.4239 7.73515 12.4065 7.81639 12.3726C7.89763 12.3388 7.97137 12.2892 8.03334 12.2267L13.4733 6.7867C13.541 6.72427 13.595 6.6485 13.632 6.56417C13.6689 6.47983 13.688 6.38876 13.688 6.2967C13.688 6.20463 13.6689 6.11356 13.632 6.02922C13.595 5.94489 13.541 5.86912 13.4733 5.8067Z" fill="white"/>
</svg>
