<svg width="35" height="35" viewBox="0 0 35 35" fill="none" xmlns="http://www.w3.org/2000/svg">
<path d="M17.5 35C27.165 35 35 27.165 35 17.5C35 7.83502 27.165 0 17.5 0C7.83502 0 0 7.83502 0 17.5C0 27.165 7.83502 35 17.5 35Z" fill="#4CD964"/>
<path d="M24.4896 12.5104C24.3928 12.4128 24.2776 12.3353 24.1506 12.2824C24.0237 12.2295 23.8876 12.2023 23.75 12.2023C23.6125 12.2023 23.4764 12.2295 23.3494 12.2824C23.2225 12.3353 23.1073 12.4128 23.0105 12.5104L15.25 20.2812L11.9896 17.0104C11.8891 16.9133 11.7704 16.8369 11.6403 16.7856C11.5103 16.7344 11.3714 16.7093 11.2316 16.7117C11.0919 16.7141 10.9539 16.744 10.8257 16.7997C10.6975 16.8555 10.5815 16.9359 10.4844 17.0364C10.3873 17.137 10.3109 17.2557 10.2597 17.3857C10.2084 17.5158 10.1833 17.6547 10.1857 17.7944C10.1881 17.9342 10.218 18.0721 10.2738 18.2003C10.3295 18.3285 10.4099 18.4445 10.5105 18.5416L14.5105 22.5416C14.6073 22.6393 14.7225 22.7168 14.8494 22.7697C14.9764 22.8225 15.1125 22.8498 15.25 22.8498C15.3876 22.8498 15.5237 22.8225 15.6507 22.7697C15.7776 22.7168 15.8928 22.6393 15.9896 22.5416L24.4896 14.0416C24.5954 13.9441 24.6797 13.8257 24.7375 13.6939C24.7952 13.5622 24.825 13.4199 24.825 13.276C24.825 13.1322 24.7952 12.9899 24.7375 12.8581C24.6797 12.7263 24.5954 12.6079 24.4896 12.5104Z" fill="white"/>
</svg>
