<svg width="18" height="18" viewBox="0 0 18 18" fill="none" xmlns="http://www.w3.org/2000/svg">
<path d="M17.28 8.99991C17.28 13.5733 13.5727 17.2799 9.00009 17.2799C4.42697 17.2799 0.719971 13.5732 0.719971 8.99991C0.719971 4.4272 4.42697 0.719971 8.99993 0.719971C13.5727 0.719971 17.28 4.4272 17.28 8.99991Z" fill="#DBA111"/>
<path d="M17.0039 8.99988C17.0039 13.4204 13.4207 17.0036 9.00012 17.0036C4.57958 17.0036 0.996216 13.4204 0.996216 8.99988C0.996216 4.57934 4.57966 0.995972 9.0002 0.995972C13.4206 0.995972 17.0039 4.57934 17.0039 8.99988Z" fill="#034694"/>
<path d="M14.7037 9.00001C14.7037 12.1502 12.1499 14.7034 8.99988 14.7034C5.84958 14.7034 3.2959 12.1502 3.2959 9.00001C3.2959 5.84954 5.84966 3.29602 8.99988 3.29602C12.15 3.29594 14.7037 5.84962 14.7037 9.00001Z" fill="#DBA111"/>
<path d="M14.5312 8.99986C14.5312 12.0548 12.0544 14.5311 8.99992 14.5311C5.94504 14.5311 3.46875 12.0547 3.46875 8.99986C3.46875 5.94507 5.94512 3.46863 8.99992 3.46863C12.0545 3.46871 14.5312 5.94507 14.5312 8.99986Z" fill="white"/>
<path d="M4.26034 13.7719C4.32145 13.8303 4.47213 13.9737 4.47213 13.9737L4.61648 13.8217L4.18595 13.4114L4.13054 13.4693L3.55249 14.0753L3.77187 14.2844C3.77187 14.2844 3.95733 14.09 4.02508 14.0191L4.21781 14.2026L4.36224 14.051L4.16975 13.8672C4.20572 13.8292 4.22398 13.81 4.26034 13.7719ZM5.29856 14.4639C5.27912 14.3476 5.21382 14.2449 5.11516 14.175C5.06761 14.1407 5.01377 14.1161 4.95671 14.1026C4.89966 14.0892 4.84051 14.0872 4.78265 14.0966C4.65751 14.1179 4.54502 14.1908 4.4658 14.3018C4.38683 14.4133 4.35497 14.5434 4.37624 14.669C4.39584 14.7849 4.46051 14.8869 4.55901 14.9571C4.65751 15.0272 4.77633 15.0551 4.89246 15.0356C5.0176 15.0144 5.1301 14.9415 5.20899 14.8302C5.27216 14.7421 5.30512 14.641 5.30512 14.54C5.30512 14.5148 5.30299 14.489 5.29856 14.4639ZM4.68036 14.7858C4.57988 14.7147 4.66281 14.5659 4.72155 14.4841C4.77989 14.4016 4.89333 14.2742 4.99381 14.3452C5.09879 14.4203 5.00069 14.5826 4.95365 14.6485C4.9063 14.715 4.78558 14.8609 4.68036 14.7858ZM5.97527 14.6937C5.74356 14.5765 5.47572 14.6725 5.35256 14.9165C5.29097 15.0384 5.27888 15.1721 5.31856 15.2927C5.35524 15.4046 5.43477 15.4959 5.5426 15.5502C5.59482 15.5772 5.65188 15.5935 5.71046 15.5983C5.76905 15.603 5.828 15.5961 5.88388 15.5778C6.0042 15.5387 6.10468 15.4497 6.16587 15.3279C6.28951 15.0833 6.20737 14.8109 5.97527 14.6937ZM5.71905 15.3716C5.69186 15.3804 5.66609 15.3777 5.63692 15.3632C5.59091 15.3397 5.57478 15.2979 5.57478 15.2512C5.57478 15.1866 5.60593 15.1104 5.63225 15.0584C5.67794 14.9679 5.77075 14.8253 5.88096 14.8809C5.90997 14.8958 5.92736 14.915 5.93614 14.9419C5.95456 14.9974 5.93606 15.0888 5.88641 15.1867C5.83692 15.2841 5.77439 15.3532 5.71905 15.3716ZM6.4537 15.0291L6.41102 15.1513C6.41102 15.1513 6.52003 15.1896 6.55315 15.2005L6.31908 15.869L6.60462 15.9692C6.60462 15.9692 6.79735 15.4207 6.83894 15.3012L6.98139 15.3508L7.05056 15.1536L6.48019 14.9536L6.4537 15.0291ZM7.63968 15.2941L7.25358 15.2127L7.23705 15.2911L7.06456 16.1103L7.45738 16.1937C7.58292 16.2196 7.66561 16.1888 7.71272 16.1583C7.77257 16.1194 7.81455 16.0552 7.83067 15.9787C7.8351 15.9578 7.83723 15.9377 7.83723 15.9178C7.83723 15.8626 7.81961 15.8127 7.78798 15.7699C7.83225 15.7348 7.8638 15.6852 7.87692 15.6233C7.88024 15.6072 7.88214 15.5891 7.88214 15.5703C7.88237 15.4653 7.82245 15.3323 7.63968 15.2941ZM7.53335 15.9196C7.52924 15.9383 7.52181 15.9631 7.50758 15.9723C7.49445 15.9808 7.46939 15.9819 7.43675 15.9748C7.43675 15.9748 7.42188 15.9715 7.40433 15.9681C7.41682 15.909 7.42528 15.8696 7.43746 15.8105C7.45422 15.8144 7.47572 15.8187 7.47572 15.8187C7.52639 15.8294 7.53612 15.8668 7.53612 15.894C7.53612 15.905 7.53477 15.9142 7.53335 15.9196ZM7.50702 15.4812C7.54102 15.4889 7.56584 15.5012 7.57541 15.5158C7.58012 15.524 7.58239 15.5334 7.58197 15.5428C7.58197 15.5495 7.5811 15.5572 7.57936 15.5665C7.57422 15.5905 7.56718 15.6238 7.50031 15.6101C7.50031 15.6101 7.49208 15.608 7.48054 15.6054C7.49113 15.5557 7.49619 15.531 7.50702 15.4812ZM8.35227 15.4276L7.93297 16.286L8.17235 16.3043L8.26302 16.1131C8.31369 16.1173 8.36445 16.1209 8.41409 16.1248L8.47947 16.3276L8.7979 16.3523L8.442 15.2491L8.35227 15.4276ZM9.2976 16.1129L9.26828 15.4163L8.96573 15.429L9.004 16.3458L9.61026 16.3206L9.60117 16.1006C9.60117 16.1005 9.38456 16.1097 9.2976 16.1129ZM10.1275 16.0251C10.1079 15.9011 10.0194 15.3363 10.0194 15.3363L9.94016 15.349L9.72007 15.3833L9.86213 16.2902L10.4618 16.196L10.4275 15.9785C10.4275 15.9783 10.2135 16.012 10.1275 16.0251ZM11.8636 15.4152C11.8612 15.4938 11.8149 15.5616 11.7426 15.5901C11.7025 15.6061 11.6643 15.6061 11.6259 15.5898C11.5672 15.5646 11.5125 15.5009 11.4798 15.4191C11.4415 15.3226 11.4335 15.2405 11.4587 15.183C11.4761 15.1426 11.51 15.1125 11.5621 15.0917C11.6186 15.0694 11.672 15.09 11.7452 15.133L11.8124 15.1727L11.9241 14.9966L11.8578 14.953C11.736 14.8728 11.5853 14.8566 11.4548 14.9087C11.3337 14.9569 11.2398 15.0472 11.1902 15.1626C11.1398 15.2796 11.1398 15.4138 11.191 15.5408C11.2874 15.7816 11.5596 15.9004 11.7977 15.805C11.9698 15.7363 12.0671 15.6057 12.0794 15.4271L12.0851 15.3474L11.866 15.3312L11.8636 15.4152ZM12.5698 15.1648C12.5078 15.0547 12.2293 14.5552 12.2293 14.5552L12.1597 14.5946L11.9648 14.7033L12.4126 15.5044L12.9418 15.2087L12.8347 15.0164C12.8348 15.0164 12.6454 15.122 12.5698 15.1648ZM13.1586 13.9294L13.0938 13.9768L12.9801 14.0606L13.3517 14.5671C13.3687 14.5899 13.3687 14.6052 13.3671 14.6142C13.3635 14.6403 13.3363 14.6686 13.3124 14.686C13.2933 14.6984 13.2705 14.7037 13.2479 14.7008C13.2287 14.6981 13.2136 14.6875 13.2001 14.6694L12.8328 14.1687L12.5881 14.3478L12.9536 14.8462C13.0078 14.92 13.0751 14.9635 13.1536 14.9756C13.2418 14.9894 13.3421 14.9594 13.4352 14.8905C13.6269 14.7505 13.6237 14.5645 13.5401 14.4505L13.1586 13.9294ZM14.2735 13.7452C14.2171 13.6869 14.1476 13.6606 14.0747 13.6645C14.0706 13.6057 14.0458 13.5503 14.0046 13.5082C13.928 13.4292 13.7569 13.3677 13.5993 13.5209L13.3159 13.7951L13.9545 14.4543L14.2428 14.175C14.3349 14.0856 14.3552 13.9991 14.3562 13.9433C14.3578 13.8716 14.3284 13.8016 14.2735 13.7452ZM13.7911 13.7229C13.8006 13.7331 13.8124 13.745 13.8124 13.7614C13.8124 13.7749 13.805 13.7916 13.7829 13.8127L13.7688 13.827C13.733 13.7898 13.716 13.7725 13.6797 13.7351C13.7436 13.6766 13.7702 13.7017 13.7911 13.7229ZM13.9424 13.95C13.9941 13.9001 14.0439 13.944 14.0582 13.9588C14.0719 13.9727 14.0875 13.9921 14.0875 14.0089V14.0096C14.0872 14.0251 14.0741 14.0468 14.0503 14.0698C14.0503 14.0698 14.0392 14.0806 14.0261 14.0928C13.9845 14.0497 13.9561 14.0206 13.9144 13.9777C13.9267 13.9652 13.9424 13.95 13.9424 13.95Z" fill="#DBA111"/>
<path d="M4.25835 13.6868C4.28333 13.7108 4.46982 13.8887 4.46982 13.8887L4.53132 13.8239L4.18775 13.4962L4.17384 13.5107L3.6377 14.0732L3.76979 14.1994C3.76979 14.1994 3.99826 13.9599 4.02285 13.9338L4.21582 14.1176L4.2774 14.053L4.08435 13.8693C4.1068 13.8458 4.23629 13.7098 4.25835 13.6868ZM5.08011 14.2238C4.99497 14.1631 4.89307 14.139 4.79299 14.1557C4.68318 14.1746 4.58468 14.2387 4.51496 14.3368C4.44507 14.4352 4.41701 14.5493 4.43567 14.6586C4.45243 14.759 4.50879 14.8475 4.59401 14.9078C4.63522 14.9376 4.68193 14.9589 4.73145 14.9706C4.78096 14.9823 4.83229 14.984 4.88248 14.9757C4.99165 14.9574 5.09031 14.893 5.15988 14.7956C5.21553 14.7169 5.24494 14.628 5.24494 14.5399C5.24494 14.518 5.24305 14.4955 5.23949 14.4736C5.22249 14.3735 5.16597 14.2848 5.08011 14.2238ZM5.00256 14.6835C4.94493 14.7641 4.79497 14.9412 4.64571 14.835C4.49685 14.7294 4.61496 14.5298 4.67243 14.4486C4.72998 14.3676 4.88003 14.1907 5.02857 14.2963C5.1779 14.4029 5.06011 14.6026 5.00256 14.6835ZM5.94821 14.7476C5.74717 14.646 5.51428 14.7305 5.40637 14.9441C5.35198 15.0514 5.34123 15.1683 5.3757 15.2743C5.4074 15.3706 5.47625 15.4492 5.56978 15.4963C5.66353 15.5441 5.76844 15.5527 5.8652 15.5209C5.97042 15.4863 6.05817 15.4082 6.11264 15.3009C6.22039 15.0872 6.14979 14.8492 5.94821 14.7476ZM5.60978 15.4166C5.447 15.3347 5.53365 15.1192 5.57855 15.0308C5.62329 14.9419 5.74512 14.7446 5.90773 14.8272C5.95097 14.8487 5.97991 14.8811 5.99358 14.9232C6.02552 15.0206 5.97374 15.1467 5.93991 15.2137C5.90623 15.2801 5.83532 15.3966 5.73761 15.4287C5.69602 15.4428 5.65278 15.4385 5.60978 15.4166ZM6.51075 15.0488L6.48767 15.1141L6.62989 15.1641C6.61724 15.1998 6.39557 15.832 6.39557 15.832L6.56791 15.8926C6.56791 15.8926 6.7899 15.2604 6.80215 15.2246L6.94437 15.2743L6.97417 15.1903L6.51708 15.0299L6.51075 15.0488ZM7.62755 15.3528L7.30035 15.2838L7.29592 15.3036L7.13607 16.0644L7.46992 16.1345C7.55482 16.1524 7.62542 16.1434 7.68004 16.1076C7.72732 16.0768 7.75902 16.0276 7.77198 15.9664C7.7753 15.9496 7.7772 15.9338 7.7772 15.9182C7.7772 15.8517 7.74423 15.7952 7.68526 15.7551C7.75348 15.7355 7.80234 15.6853 7.81815 15.6107C7.82084 15.5992 7.82242 15.5854 7.82242 15.5698C7.82234 15.4935 7.78226 15.3854 7.62755 15.3528ZM7.51316 15.4201C7.56818 15.4317 7.60621 15.4528 7.62557 15.4827C7.6368 15.4997 7.64226 15.5196 7.64226 15.5427C7.64226 15.554 7.64075 15.5657 7.63814 15.5785C7.61688 15.6796 7.53506 15.6787 7.4881 15.6684C7.4881 15.6684 7.43822 15.6581 7.40944 15.6521C7.41616 15.6208 7.45403 15.4403 7.46059 15.4092C7.48146 15.4134 7.51316 15.4201 7.51316 15.4201ZM7.48802 15.7597C7.58099 15.7793 7.59553 15.8526 7.59553 15.897C7.59553 15.9161 7.59253 15.9299 7.59221 15.9321C7.58281 15.976 7.56605 16.0058 7.54035 16.0223C7.51316 16.0405 7.47395 16.044 7.42438 16.0339C7.42438 16.0339 7.36485 16.0212 7.333 16.0148L7.3911 15.7394C7.41829 15.7449 7.48802 15.7597 7.48802 15.7597ZM8.40655 15.4539L8.02614 16.2329L8.13571 16.2412C8.13571 16.2412 8.21634 16.0717 8.22694 16.0502L8.4592 16.0683C8.46655 16.0906 8.52458 16.2711 8.52458 16.2711L8.71344 16.2857L8.43074 15.4095L8.40655 15.4539ZM8.36481 15.7672C8.38307 15.826 8.41857 15.9394 8.43034 15.9763C8.39264 15.9736 8.30615 15.9669 8.26892 15.9641L8.36481 15.7672ZM9.23986 16.1756L9.21037 15.479L9.191 15.4798L9.02807 15.4864L9.06151 16.2834L9.54761 16.2626L9.54327 16.1631C9.54343 16.1631 9.27504 16.1744 9.23986 16.1756ZM10.0775 16.0945C10.0715 16.0569 9.96921 15.4049 9.96921 15.4049L9.94968 15.408L9.78897 15.4334L9.91245 16.2212L10.393 16.1453L10.3777 16.0468C10.3777 16.047 10.112 16.0887 10.0775 16.0945ZM11.9236 15.4166C11.9207 15.5203 11.8598 15.6082 11.7648 15.6464C11.7096 15.6683 11.655 15.6676 11.6023 15.6449C11.528 15.6135 11.463 15.539 11.4236 15.4413C11.3793 15.3298 11.3723 15.2321 11.4032 15.1589C11.4272 15.1038 11.473 15.0624 11.5399 15.0358C11.6272 15.0008 11.7077 15.0407 11.7755 15.0811L11.7925 15.0909L11.8414 15.014L11.8251 15.003C11.7196 14.9339 11.5893 14.9194 11.4772 14.9644C11.3708 15.007 11.2882 15.0856 11.2455 15.1863C11.2014 15.2883 11.2018 15.4064 11.247 15.5179C11.3308 15.7283 11.5677 15.8318 11.7757 15.7489C11.9265 15.6883 12.0084 15.579 12.0193 15.4226L12.0209 15.4026L11.9245 15.3959L11.9236 15.4166ZM12.5466 15.2466C12.5279 15.2137 12.2061 14.6374 12.2061 14.6374L12.1884 14.6473L12.0467 14.7266L12.4351 15.4223L12.8599 15.1852L12.8117 15.0981C12.8118 15.0982 12.5766 15.2291 12.5466 15.2466ZM13.1455 14.0133L13.1292 14.0253L13.064 14.073L13.4002 14.531C13.4227 14.5619 13.4315 14.5925 13.4267 14.6227C13.4187 14.6772 13.3691 14.7192 13.3482 14.7339C13.3164 14.7562 13.2774 14.7655 13.239 14.76C13.2035 14.7549 13.1745 14.7361 13.1512 14.7048L12.8194 14.2522L12.6725 14.3606L13.0022 14.8101C13.0466 14.8707 13.1006 14.9065 13.1629 14.9156C13.261 14.9305 13.3532 14.8758 13.3995 14.842C13.5586 14.7251 13.5607 14.5788 13.492 14.4856L13.1455 14.0133ZM14.2303 13.787C14.1686 13.7232 14.0897 13.7087 14.0079 13.7402C14.0145 13.7215 14.018 13.702 14.0183 13.6822C14.0183 13.6348 13.9995 13.5886 13.9614 13.5496C13.9102 13.4968 13.7772 13.4316 13.6413 13.5638L13.4012 13.7964L13.9557 14.3689L14.2013 14.1308C14.263 14.0713 14.2954 14.0073 14.2962 13.9424C14.2972 13.8859 14.2742 13.8323 14.2303 13.787ZM13.8722 13.7622C13.8722 13.8024 13.8461 13.8353 13.8249 13.8559C13.8249 13.8559 13.7881 13.8917 13.7673 13.9122C13.7449 13.8893 13.6164 13.7568 13.5943 13.7332C13.6093 13.7187 13.6327 13.6964 13.6327 13.6964C13.7078 13.6232 13.7736 13.6186 13.8341 13.6813C13.862 13.7098 13.8722 13.737 13.8722 13.7622ZM14.025 14.1776C14.0022 14.1542 13.8523 13.9991 13.8293 13.9757C13.8492 13.9567 13.9004 13.9067 13.9004 13.9067C13.9982 13.8126 14.0974 13.9123 14.1016 13.917C14.1326 13.9488 14.1476 13.979 14.1476 14.0089V14.0102C14.1472 14.0431 14.1282 14.0776 14.092 14.1134C14.0921 14.1133 14.0444 14.1592 14.025 14.1776Z" fill="white"/>
<path d="M5.32136 3.54536L4.98672 3.63564L5.02514 3.75549C5.07139 3.90087 5.02957 4.05313 4.91628 4.15242C4.85328 4.20768 4.78039 4.23305 4.70023 4.22752C4.57825 4.2193 4.44054 4.14032 4.33207 4.01621C4.20432 3.86972 4.14045 3.72877 4.14867 3.6094C4.1542 3.52212 4.19658 3.44576 4.27792 3.37453C4.36773 3.29587 4.48157 3.29895 4.63596 3.32963L4.75043 3.35223L4.82458 3.03167L4.70932 3.00361C4.46133 2.94226 4.20282 3.0025 4.01831 3.16401C3.65703 3.48014 3.62762 3.99629 3.94977 4.36476C4.24923 4.70706 4.76869 4.74445 5.10744 4.44824C5.35132 4.23519 5.4363 3.96253 5.35337 3.66086L5.32136 3.54536ZM6.23016 1.86665L5.88833 2.02761C5.88833 2.02761 6.07917 2.43205 6.14478 2.57142C6.04731 2.61727 5.95276 2.66186 5.85521 2.70794L5.59844 2.16413L5.14831 2.37663L5.83378 3.83075L6.28431 3.61833C6.28431 3.61833 6.07189 3.16859 6.00359 3.02274C6.10107 2.97704 6.19554 2.93238 6.29333 2.88629L6.57397 3.48157L7.02434 3.26907L6.33902 1.81527L6.23016 1.86665ZM7.75432 2.76747C7.73243 2.65925 7.71005 2.54905 7.68839 2.4409L8.1971 2.33829L8.13212 2.01535L7.62317 2.1182C7.60317 2.01923 7.58657 1.93606 7.56641 1.83716L8.10635 1.72815L8.04113 1.40529L7.92271 1.42909L7.01303 1.61305L7.33107 3.18899L8.36731 2.97957L8.30233 2.6568C8.30233 2.6568 7.8997 2.73791 7.75432 2.76747ZM9.22417 1.3679L8.72574 1.35754L8.72329 1.47779L8.69214 2.96487L9.73826 2.98677L9.74585 2.63861C9.74585 2.63861 9.34418 2.63008 9.19737 2.62707L9.22417 1.3679ZM10.8392 2.17868C10.7099 2.08373 10.6721 2.04555 10.6852 1.99369C10.6917 1.96681 10.7209 1.88096 10.8138 1.90397C10.8697 1.91835 10.9253 1.94784 10.9502 2.068L10.9774 2.20145L11.3065 2.09022L11.2858 1.9865C11.2453 1.78309 11.0733 1.60981 10.8572 1.55589C10.7025 1.51747 10.5475 1.53795 10.4203 1.61439C10.3629 1.64832 10.3129 1.69331 10.2732 1.74676C10.2334 1.80021 10.2047 1.86104 10.1886 1.92571C10.106 2.25528 10.3283 2.41394 10.475 2.51908C10.6256 2.62676 10.664 2.66889 10.6411 2.75886C10.6376 2.7726 10.6314 2.78552 10.6229 2.79685C10.6144 2.80819 10.6037 2.81771 10.5914 2.82487C10.5611 2.84257 10.5234 2.84898 10.4926 2.84099C10.4135 2.82147 10.3792 2.78407 10.346 2.6817L10.3056 2.55909L9.97535 2.69411L10.0072 2.79894C10.0691 3.00266 10.2169 3.13104 10.4588 3.1916C10.7305 3.25958 11.0602 3.1346 11.1423 2.80819C11.228 2.46462 10.994 2.29236 10.8392 2.17868ZM12.0281 3.0361L12.4911 3.27018L12.6398 2.97625C12.6398 2.97625 12.3033 2.80629 12.177 2.74233C12.2222 2.65213 12.2607 2.57632 12.3058 2.48644L12.7977 2.7349L12.946 2.44098L12.0101 1.96816L11.956 2.0752L11.2848 3.40283L12.2285 3.87937L12.3773 3.5856L11.8783 3.33358C11.9276 3.235 11.9786 3.13476 12.0281 3.0361ZM13.8918 3.1863L12.3923 3.96206L12.6792 4.21155C12.6792 4.21155 12.9267 4.07993 13.0167 4.03265L13.248 4.23392C13.2158 4.32958 13.1242 4.59852 13.1242 4.59852L13.5193 4.94248L14.1604 3.05207L13.8918 3.1863Z" fill="#DBA111"/>
<path d="M5.26499 3.64319L5.08823 3.69118L5.10119 3.73118C5.15732 3.90763 5.10665 4.09214 4.96854 4.21293C4.88925 4.2825 4.79668 4.31444 4.69446 4.30788C4.54956 4.29815 4.39564 4.21119 4.27121 4.06898C4.12907 3.9062 4.05855 3.74533 4.06788 3.60359C4.07523 3.49607 4.12796 3.39852 4.22464 3.31393C4.35153 3.20302 4.51153 3.22334 4.65114 3.25085L4.68948 3.25828L4.72814 3.09084L4.68972 3.08128C4.46694 3.02657 4.23571 3.07993 4.07065 3.22452C3.74407 3.51054 3.71783 3.97767 4.00985 4.31183C4.28006 4.62085 4.74853 4.65469 5.05432 4.38764C5.27606 4.19317 5.35061 3.95609 5.27543 3.68217L5.26499 3.64319ZM6.26416 1.93887L5.99522 2.06591L6.25143 2.60949C6.19388 2.63684 5.87442 2.78751 5.81648 2.81463C5.78683 2.75131 5.5605 2.27098 5.5605 2.27098L5.25488 2.41493L5.87205 3.72367L6.17752 3.57987L5.89672 2.98452C5.95466 2.95724 6.2738 2.80688 6.33167 2.77945C6.36179 2.84356 6.61247 3.37496 6.61247 3.37496L6.91746 3.23077L6.30029 1.92203L6.26416 1.93887ZM7.69116 2.86206C7.67859 2.79921 7.60626 2.44118 7.59385 2.37825L8.1024 2.27556L8.06904 2.11026L7.56017 2.21271C7.548 2.15105 7.4842 1.83602 7.4721 1.77444C7.53954 1.76061 8.01157 1.66558 8.01157 1.66558L7.97813 1.5002L7.10743 1.67578L7.39384 3.09424L8.27276 2.91677L8.2394 2.75131L7.69116 2.86206ZM9.14204 1.4466L8.8044 1.43933L8.80369 1.47917L8.77389 2.88609L9.65992 2.90491L9.66396 2.71708L9.11548 2.70554C9.11738 2.63051 9.14204 1.44668 9.14204 1.4466ZM10.8331 1.82646C10.9404 1.85334 11.0024 1.92504 11.0287 2.052L11.0378 2.09643L11.214 2.03698L11.2073 2.00227C11.1725 1.82891 11.0242 1.68076 10.8378 1.63388C10.7039 1.60052 10.5704 1.61799 10.4616 1.68329C10.4134 1.71192 10.3713 1.74984 10.3378 1.79485C10.3042 1.83986 10.28 1.89107 10.2664 1.94551C10.1971 2.22196 10.3773 2.35066 10.5218 2.45399C10.668 2.55857 10.7562 2.63012 10.7185 2.77842C10.7127 2.80254 10.7021 2.82523 10.6872 2.8451C10.6724 2.86497 10.6536 2.88161 10.6321 2.894C10.5842 2.92266 10.5271 2.93164 10.4728 2.91906C10.366 2.89234 10.3112 2.83503 10.2695 2.70696L10.2559 2.66601L10.0731 2.74048L10.0839 2.7755C10.1369 2.95005 10.266 3.06065 10.4784 3.11393C10.7117 3.17211 10.9944 3.06657 11.0642 2.7887C11.1367 2.49723 10.9454 2.35636 10.7907 2.24323C10.6593 2.14623 10.58 2.08141 10.607 1.97437C10.6308 1.87863 10.7102 1.79563 10.8331 1.82646ZM12.2703 2.37881L12.7617 2.62704L12.8381 2.47628L12.0456 2.07595L12.0275 2.11168L11.3929 3.36769L12.1929 3.77189L12.2691 3.62129L11.7704 3.36911C11.7992 3.3118 11.964 2.98618 11.9927 2.92878C12.0537 2.95969 12.4556 3.1627 12.4556 3.1627L12.5322 3.01203C12.5322 3.01203 12.1298 2.8091 12.0689 2.77811L12.2703 2.37881ZM13.9286 3.25773L12.5342 3.97933L12.6901 4.11483L13.0276 3.93593L13.3415 4.20898C13.3266 4.25309 13.2172 4.57326 13.2172 4.57326L13.4819 4.80323L14.0205 3.21456L13.9286 3.25773ZM13.189 3.85284C13.255 3.81869 13.4234 3.73118 13.5264 3.67774C13.4881 3.78699 13.425 3.96692 13.4008 4.03688C13.3304 3.97538 13.2597 3.91403 13.189 3.85284Z" fill="white"/>
<path d="M12.9555 8.78271C12.8412 8.47978 12.4474 8.34823 12.0751 8.48863C11.9199 8.54705 11.7927 8.64476 11.7061 8.75994C11.9519 8.05842 12.953 7.90956 12.953 7.25689C12.953 6.16302 11.3996 6.46943 11.6256 7.25705C11.6256 6.89964 12.1943 6.83419 12.1943 7.25705C12.1943 7.68007 11.2026 7.95731 11.2026 8.6718C11.2026 9.45949 11.9904 9.53238 11.9105 10.2526C11.897 10.3769 11.7636 10.5402 11.57 10.5402C10.3635 10.5402 10.7942 9.05482 10.3727 8.60278L10.3947 8.29764C10.6384 8.44721 11.2851 8.097 10.8594 7.5633C10.8594 7.82576 10.3128 7.8113 10.3128 7.31531C10.3128 6.64438 10.9402 6.99443 10.9706 7.14266C10.9405 6.89822 10.9292 6.74312 10.9694 6.6024C10.6313 6.71142 10.5996 6.51592 10.6423 6.44026C10.6914 6.35291 10.7568 6.25069 10.8886 6.25069C10.9597 6.25069 11.0025 6.26057 11.0277 6.27796C11.0699 6.30682 11.1007 6.24097 11.0947 6.30223C11.1308 6.24721 11.1163 6.31599 11.1514 6.26073C11.1869 6.20587 11.2349 6.14381 11.319 6.06112L11.3153 5.93748L11.4138 5.97361L11.5083 5.82056C11.4062 5.60893 11.2677 5.71083 11.1658 5.44845C11.0805 5.42639 9.75165 5.57083 9.7903 5.04077C9.682 5.04077 9.42539 5.10022 9.58421 5.31596C9.46073 5.33082 9.37171 5.19058 9.18554 5.56988C9.41875 5.52616 9.29803 5.78688 9.29803 5.86111C9.29803 6.3416 8.65825 6.33362 8.65825 6.10847C8.50402 6.25836 8.59153 6.58596 8.82466 6.66667C8.82466 6.66667 8.73596 7.01712 8.51706 7.23934C8.19207 7.22638 7.67071 7.16993 7.37078 6.88644C7.24144 6.7643 7.13875 6.69758 7.05124 6.66351V6.50469C7.17931 6.442 7.31971 6.33109 7.46564 6.14571C7.5794 6.00665 7.64114 5.82838 7.62454 5.63905C7.62236 5.61668 7.6192 5.59442 7.61505 5.57233C7.61379 5.56537 7.61213 5.55865 7.61047 5.55177C7.60733 5.53662 7.60353 5.52161 7.59908 5.50679C7.59703 5.49952 7.59497 5.49193 7.59268 5.48489C7.58782 5.47004 7.58239 5.45537 7.5764 5.44094C7.57395 5.43493 7.57213 5.42845 7.56928 5.42284C7.56116 5.4038 7.55216 5.38515 7.54232 5.36695C7.53813 5.35951 7.53371 5.35264 7.5296 5.34576C7.52288 5.33477 7.51647 5.32362 7.50944 5.31295C7.50361 5.30439 7.49768 5.29591 7.49165 5.2875C7.48548 5.27935 7.47892 5.27105 7.47252 5.26291C7.46548 5.25421 7.45845 5.24489 7.45094 5.23635C7.44594 5.23066 7.44072 5.22517 7.43528 5.2199C7.40369 5.18534 7.36874 5.15401 7.33093 5.12638L7.32081 5.11903C7.30737 5.10955 7.29362 5.10037 7.27923 5.09144C7.27836 5.09089 7.27757 5.09049 7.27694 5.08978C7.13431 5.00254 6.96769 4.96277 6.80103 4.97618C6.38142 5.00962 6.06947 5.36015 6.10449 5.75945C6.13176 6.07045 6.36102 6.31883 6.65937 6.39805C6.55478 6.45631 6.4664 6.49014 6.4464 6.49014C6.44972 6.4922 6.45407 6.49473 6.45873 6.49781L6.46284 6.49987C6.46695 6.50248 6.4717 6.50516 6.4766 6.50785L6.48055 6.50999L6.50197 6.52066L6.50593 6.52224C6.5151 6.5267 6.5245 6.53071 6.53407 6.53426C6.55225 6.54185 6.57288 6.54872 6.59534 6.55513C6.59858 6.55608 6.6019 6.55679 6.60459 6.55758C6.61368 6.55987 6.62293 6.562 6.63257 6.5643L6.64229 6.56619C6.65423 6.56825 6.66696 6.57046 6.67961 6.57197C6.68071 6.57197 6.68174 6.5726 6.68277 6.5726V6.66296C6.67803 6.66398 6.67376 6.66454 6.66933 6.66517C6.5328 6.68754 6.44411 6.72952 6.40403 6.85118C6.36418 6.97316 6.40521 7.01736 6.46909 7.10289C6.41509 7.19942 6.27359 7.23554 6.45826 7.44875C6.44482 7.52931 6.46181 7.65761 6.57905 7.69651C6.61723 7.70947 6.64917 7.71635 6.68277 7.7222L6.68261 9.32107C6.56569 9.38297 6.50806 9.46036 6.47612 9.5323C6.47612 9.5323 6.38229 9.32399 6.38861 9.73674C6.49525 9.65397 6.4532 9.83255 6.4532 9.83255C6.30797 10.0207 6.49241 10.0105 6.49241 10.0105C6.61747 9.88552 6.59194 10.067 6.59194 10.067C6.59194 10.2885 6.68198 10.375 6.68261 10.3754V11.5935L6.57644 11.5939L6.57747 11.9299L6.76333 11.9296C6.65913 11.9729 6.59036 12.0759 6.60032 12.1895C6.61296 12.3329 6.74538 12.4396 6.89629 12.428C7.04705 12.4159 7.15907 12.2901 7.14618 12.1464C7.13765 12.0472 7.07195 11.9662 6.98254 11.929L7.15393 11.9285L7.15322 11.5923L7.051 11.5928L7.05116 10.5122C7.07227 10.5237 7.09504 10.5317 7.11978 10.5371C7.12966 10.5389 7.13946 10.5402 7.14943 10.541C7.15385 10.5416 7.15836 10.5416 7.16286 10.5418C7.13527 10.3997 7.22026 10.3056 7.22026 10.3056C7.26382 10.24 7.32698 10.1888 7.3986 10.1526C7.61308 10.0452 7.90581 10.0722 7.99325 10.2474C8.54757 10.1013 9.02387 9.54416 9.02387 9.54416L9.29669 10.0085C8.71825 10.2019 7.45813 11.2973 8.33286 11.6767C8.33255 11.7871 8.31776 12.6068 7.79221 12.5417C7.03535 12.4483 6.84657 12.7614 6.99187 13.1135C6.92357 13.4104 7.15219 13.5135 7.15219 13.5135C7.1178 13.342 7.20026 13.1999 7.51299 13.2018C7.51141 13.5146 7.71348 13.5709 7.71348 13.5709C7.7149 13.3031 7.90107 13.2039 8.06637 13.2047C8.06511 13.4253 8.32164 13.5093 8.32164 13.5093C8.32164 13.5093 8.25666 13.2549 8.54647 13.2047C9.28033 13.0768 8.59105 12.322 9.70706 12.114C9.70706 12.114 9.15147 12.0302 9.15147 11.7265C9.15147 11.4501 9.65441 11.2609 9.82762 11.2609C10.1828 11.9395 10.5687 11.9449 10.6698 11.9497C10.8269 12.1254 10.7743 12.7176 10.5472 12.7059C9.71599 12.6613 9.74635 13.167 9.83955 13.2704C9.82888 13.4667 9.98169 13.58 9.98169 13.58C9.98169 13.3697 10.1818 13.3105 10.4385 13.3244C10.425 13.5814 10.5887 13.6198 10.5887 13.6198C10.5932 13.3612 10.7846 13.3173 10.9205 13.3244C10.9105 13.5056 11.0903 13.5592 11.0903 13.5592C11.0903 13.5592 11.0726 13.3291 11.3149 13.3291C11.7743 13.3288 11.107 12.3442 12.0037 11.3704C11.216 11.7351 10.797 10.8236 10.797 10.6487C11.2018 11.1224 12.5145 11.217 12.5145 10.4077C12.5145 9.63468 11.6648 9.3466 12.0622 9.05086C12.2935 8.87892 12.7482 9.22628 12.4881 9.58503C12.8612 9.44684 13.0691 9.08557 12.9548 8.78295L12.9555 8.78271ZM7.92075 8.80706C7.62383 8.98161 7.42469 9.20249 7.15401 9.29917C7.1129 9.31372 7.08009 9.31767 7.05164 9.31585V7.80687C7.12334 7.81359 7.30951 7.83904 7.52715 7.92901C7.74273 8.04664 7.74273 8.28973 7.4707 8.34736C7.64256 8.67654 8.23816 8.51535 8.36804 8.24728C8.4316 8.24167 8.48781 8.35519 8.5407 8.46246C8.4569 8.50586 8.28591 8.59211 7.92075 8.80706ZM11.2445 6.30547C11.2119 6.3499 11.1797 6.39386 11.1515 6.43172C11.1894 6.49511 11.2444 6.54649 11.3103 6.57995C11.3761 6.6134 11.4501 6.62757 11.5236 6.62082C11.6268 6.611 11.7218 6.56071 11.7879 6.48097C11.8541 6.40122 11.8859 6.29852 11.8765 6.19535C11.8751 6.18753 11.8742 6.18049 11.8731 6.1729C11.8502 6.28413 11.7191 6.37836 11.5523 6.39362C11.4262 6.4054 11.3119 6.36911 11.2445 6.30547Z" fill="#D1D3D4"/>
<path d="M6.44667 5.39742C6.44667 5.39765 6.44612 5.39821 6.44612 5.39876H6.44596C6.4462 5.39831 6.44644 5.39786 6.44667 5.39742ZM6.46035 11.7266C6.46067 11.7264 6.46122 11.7264 6.46138 11.726H6.4613C6.46106 11.7265 6.46075 11.7265 6.46035 11.7266ZM6.45094 4.75321H6.45134H6.45094ZM6.33742 11.6895L6.52328 11.6893C6.50105 11.6986 6.48024 11.711 6.46146 11.7261C6.4798 11.719 6.4994 11.7147 6.52027 11.7147C6.56499 11.7147 6.60788 11.7325 6.63951 11.7641C6.67113 11.7957 6.68889 11.8386 6.68889 11.8833C6.68889 11.928 6.67113 11.9709 6.63951 12.0025C6.60788 12.0342 6.56499 12.0519 6.52027 12.0519C6.48452 12.0519 6.4497 12.0405 6.42093 12.0193C6.39216 11.998 6.37096 11.9682 6.36043 11.934V11.9492C6.37315 12.0929 6.50533 12.1997 6.6564 12.1873C6.807 12.1756 6.91902 12.0495 6.90661 11.906C6.89776 11.8072 6.83222 11.7262 6.74281 11.6889L6.91412 11.6882L6.91333 11.352L6.81111 11.3526V10.2718C6.76132 10.2458 6.72126 10.2044 6.69688 10.1538C6.67251 10.1032 6.66513 10.0461 6.67585 9.991C6.73981 9.991 6.79704 10.0076 6.8353 10.0338C6.77625 10.1638 6.92313 10.3014 6.92313 10.3014C6.89562 10.1593 6.98037 10.0655 6.98037 10.0655C7.0244 9.99977 7.0874 9.94855 7.15879 9.91234C7.37358 9.80475 7.66608 9.83186 7.75343 10.007C8.30776 9.86103 8.78414 9.3037 8.78414 9.3037L9.05711 9.76783C9.69697 9.76783 9.47412 9.28861 9.43246 9.24679C9.57958 9.24679 9.78678 9.35517 9.78678 9.5951C9.78678 10.1844 8.07368 10.2685 8.07368 10.9837C8.07368 11.284 8.37148 11.3982 8.37148 11.3982C8.37148 12.0503 7.92364 12.4377 7.6173 12.4377C7.12749 12.4377 6.75237 12.3385 6.75237 12.8726H6.92313C6.76091 13.0349 6.9123 13.2728 6.9123 13.2728C6.87807 13.1014 6.96076 12.9596 7.2735 12.9612H7.46868C7.34473 13.0851 7.41714 13.2732 7.47414 13.3307C7.47532 13.0625 7.66118 12.9634 7.82672 12.9643H7.96838C7.92988 13.0022 7.9917 13.1786 8.08206 13.2686C8.08206 13.2686 8.01676 13.0145 8.30697 12.9643C9.04051 12.8365 8.35132 12.0817 9.46724 11.8734C9.46724 11.8734 8.91197 11.7898 8.91197 11.4857C8.91197 11.2098 9.41467 11.0202 9.58756 11.0202C9.72393 11.0008 9.85373 11.0056 9.96473 11.0294C10.0099 11.4676 10.513 11.4462 10.6225 11.4462C11.0491 11.873 10.514 12.558 10.514 12.558C9.85911 12.558 9.59997 12.6484 9.59997 13.0297H9.72385C9.65436 13.0996 9.69373 13.2915 9.74171 13.3393C9.74171 13.1289 9.9422 13.0701 10.1989 13.0837H10.3338C10.2681 13.1494 10.2795 13.3095 10.3493 13.379C10.3531 13.1203 10.5448 13.0764 10.6808 13.0837H10.7934C10.7512 13.1261 10.7934 13.2611 10.8511 13.3189C10.8511 13.3189 10.8332 13.0886 11.0754 13.0884C11.5348 13.0884 10.8672 12.1035 11.7645 11.1297C10.9769 11.4945 10.5574 10.5828 10.5574 10.4078C10.9623 10.8818 12.2752 10.9763 12.2752 10.1673C12.2752 9.51446 11.6696 9.20765 11.7198 8.95002C11.7284 8.85388 11.7727 8.76444 11.8439 8.69932C11.9151 8.63419 12.0082 8.5981 12.1047 8.59815C12.2072 8.59821 12.3055 8.63898 12.3779 8.71149C12.4503 8.784 12.491 8.88231 12.491 8.9848C12.4911 9.06192 12.4681 9.1373 12.4249 9.20122C12.3818 9.26514 12.3205 9.31466 12.2489 9.34339C12.2492 9.34339 12.2492 9.34307 12.2492 9.34307C12.2489 9.34339 12.2484 9.34386 12.2484 9.3445C12.6212 9.20631 12.8293 8.84495 12.7156 8.54234C12.6009 8.23948 12.207 8.10754 11.8351 8.24794C11.6792 8.30676 11.5527 8.40407 11.466 8.51949C11.7113 7.81805 12.7127 7.66942 12.7127 7.01644C12.7127 5.92265 11.1592 6.22914 11.3852 7.01676C11.3852 7.00498 11.386 6.9932 11.3873 6.98189C11.4269 6.53666 12.2227 6.44567 12.2227 7.02608C12.2227 7.52191 11.2034 7.79678 11.2034 8.46392C11.2034 9.14908 11.9562 9.32038 11.9562 10.0414C11.9562 10.1273 11.9109 10.497 11.4107 10.497C10.9282 10.497 10.6961 10.2273 10.5643 9.87518C10.3186 9.40023 10.4088 8.65886 10.1319 8.36241L10.1538 8.0575C10.3977 8.20723 11.0446 7.8567 10.6197 7.32301C10.6197 7.58579 10.0727 7.57092 10.0727 7.07518C10.0727 6.40425 10.6998 6.7543 10.73 6.90237C10.6999 6.65817 10.6882 6.50259 10.7294 6.36235C10.3908 6.47105 10.3596 6.27571 10.4017 6.19989C10.4512 6.1123 10.5167 6.01032 10.6482 6.01032C10.8383 6.01032 10.8263 6.08013 10.8162 6.17839C10.8889 6.06858 10.9095 5.98597 11.0784 5.82083L11.0748 5.69679L11.1727 5.73324L11.268 5.58003C11.1661 5.3684 11.0275 5.4707 10.9251 5.20808C10.8402 5.18587 9.72306 5.0827 9.76164 4.55249C9.66282 4.55249 9.39372 4.89337 9.57562 5.07583H9.34368C9.21964 5.09061 8.93023 5.00397 8.74429 5.38311C9.20178 4.92578 9.49862 6.01696 8.65615 6.01696V6.01665C8.53188 6.01696 8.42523 5.9651 8.41796 5.87743C8.334 6.24566 8.86477 6.36029 8.86477 6.36029C8.86477 6.4697 8.59891 7.06205 8.46966 7.19115C8.55678 7.27835 8.58374 7.80421 8.18111 7.80421C8.32634 7.41155 7.89937 7.07889 7.48449 6.85881H7.48505C7.40994 6.83035 7.33848 6.79556 7.27215 6.75382C7.01752 6.63738 6.81048 6.57192 6.81048 6.57192V6.26408C6.93855 6.20132 7.07895 6.09032 7.22488 5.90502C7.3388 5.76612 7.40022 5.58786 7.38354 5.39837C7.38175 5.37592 7.37853 5.3536 7.3739 5.33157C7.37287 5.32469 7.37129 5.31813 7.36986 5.31125C7.36662 5.29613 7.36277 5.28115 7.35832 5.26635C7.35177 5.24393 7.3442 5.22183 7.33563 5.2001C7.33318 5.19401 7.33105 5.18816 7.32852 5.18207C7.32027 5.16324 7.31125 5.14475 7.30148 5.12666C7.29761 5.11899 7.29294 5.11211 7.28891 5.10492C7.28219 5.09401 7.27571 5.08318 7.26867 5.07251C7.26283 5.06413 7.25713 5.05527 7.25081 5.04681C7.24464 5.03867 7.2384 5.03037 7.23184 5.02254C7.22491 5.01333 7.21766 5.00436 7.2101 4.99567C7.20512 4.98996 7.19995 4.98443 7.1946 4.97906C7.17546 4.95837 7.15511 4.93884 7.13365 4.92056C7.13152 4.9189 7.1297 4.91645 7.12756 4.91495C7.11544 4.90476 7.10291 4.89505 7.09001 4.88586C7.08661 4.88373 7.08345 4.88088 7.08005 4.87843C7.06648 4.86881 7.05261 4.8596 7.03847 4.85084C7.0376 4.85044 7.03681 4.84973 7.03594 4.84934C6.89339 4.76197 6.72676 4.72216 6.56012 4.73566C6.52257 4.73866 6.48604 4.74538 6.45039 4.75305C6.20872 4.84562 6.03299 5.12848 6.03299 5.46319C6.03299 5.77862 6.18935 6.04756 6.40928 6.15491C6.41229 6.1557 6.41545 6.15689 6.41861 6.15776C6.31378 6.21602 6.2254 6.24985 6.20532 6.24985C6.20872 6.25191 6.21323 6.25444 6.21797 6.25768C6.21932 6.25823 6.2205 6.25895 6.22184 6.25966C6.22611 6.26203 6.23046 6.26456 6.23584 6.2674C6.23718 6.26812 6.23829 6.26883 6.23979 6.2693C6.24604 6.27262 6.25339 6.27658 6.26098 6.28029C6.26236 6.28065 6.26367 6.28123 6.26485 6.28203C6.27149 6.28519 6.27876 6.28796 6.28643 6.2912C6.30867 6.30038 6.33142 6.30824 6.35458 6.31476L6.3639 6.31729C6.37268 6.31958 6.38201 6.32172 6.39157 6.32369C6.39481 6.32456 6.39814 6.32511 6.40153 6.32583C6.41355 6.32804 6.42596 6.33025 6.43893 6.33183C6.43994 6.33179 6.44093 6.33206 6.44177 6.33262C6.52177 6.33919 6.6164 6.31934 6.6164 6.31934V6.49793C6.60201 6.49793 6.4764 6.45737 6.44177 6.4229C6.4375 6.42354 6.43292 6.42441 6.42833 6.4252C6.29212 6.44749 6.20335 6.48939 6.16335 6.61113C6.12342 6.73311 6.16445 6.77722 6.22825 6.86284C6.17386 6.95905 6.03275 6.99533 6.2171 7.2087C6.20398 7.2891 6.22082 7.41764 6.3379 7.45661C6.37616 7.46958 6.40817 7.47614 6.44161 7.48207C6.51102 7.48207 6.61624 7.53993 6.61624 7.68405V9.05816C6.67941 9.0618 6.74803 9.07034 6.81032 9.07579V7.5665C6.8821 7.57337 7.06835 7.59891 7.28567 7.68856C7.28796 7.68976 7.29015 7.69113 7.29223 7.69267C7.29208 7.69251 7.29184 7.69251 7.29184 7.69227C7.31168 7.69472 7.33184 7.69907 7.35184 7.705C7.49659 7.74943 7.58671 7.87504 7.55279 7.98635C7.51904 8.09726 7.37374 8.15142 7.22931 8.10699C7.40085 8.4364 7.99676 8.27521 8.12665 8.00714C8.18989 8.00153 8.24618 8.11505 8.29914 8.22217C8.29914 8.22217 8.44839 8.2794 8.81789 8.2794C8.81789 8.2794 7.32148 9.23477 6.88882 9.23477C6.70392 9.23477 6.29378 9.23477 6.29378 9.37462C6.18105 9.37462 6.01868 9.56616 6.01868 9.67573C6.12524 9.59249 6.21196 9.59249 6.21196 9.59249C6.3028 9.59249 6.35394 9.61968 6.35394 9.61968C6.32066 9.65257 6.17133 9.82119 6.17133 9.95187C6.29639 9.82665 6.35094 9.8272 6.35094 9.8272C6.35094 9.8272 6.48154 9.81028 6.5281 9.85724C6.49672 9.88854 6.44154 10.0017 6.44154 10.1357C6.44154 10.1357 6.51909 9.98594 6.61609 9.98594V11.4223C6.61609 11.4662 6.4179 11.5083 6.33624 11.5083L6.33742 11.6895ZM6.39837 7.34404C6.36138 7.34546 6.34398 7.29748 6.34367 7.28008C6.3428 7.26253 6.35663 7.21368 6.39339 7.21234C6.48106 7.20933 6.6564 7.25139 6.65704 7.26862C6.65775 7.2857 6.48596 7.3408 6.39837 7.34404ZM6.34185 7.10696C6.29094 7.1034 6.27426 7.03462 6.276 7.01043C6.27758 6.98679 6.30422 6.9211 6.35513 6.9249C6.4764 6.93391 6.71166 7.01857 6.70961 7.04237C6.7081 7.06664 6.46296 7.11589 6.34185 7.10696ZM6.32098 6.80323C6.26714 6.789 6.26279 6.712 6.2692 6.68647C6.276 6.66109 6.31758 6.59611 6.37165 6.61018C6.49996 6.64378 6.73562 6.78173 6.72905 6.80703C6.72241 6.8324 6.44936 6.83683 6.32098 6.80323ZM6.71838 5.9474C6.74067 5.89419 6.73593 5.82162 6.7221 5.75332L6.71522 5.75348C6.67853 5.75349 6.6422 5.74627 6.6083 5.73224C6.5744 5.71821 6.5436 5.69764 6.51765 5.6717C6.4917 5.64577 6.47111 5.61498 6.45706 5.58109C6.44301 5.54719 6.43578 5.51087 6.43576 5.47418C6.43348 5.44859 6.437 5.42281 6.44604 5.39876H6.4462C6.4462 5.39821 6.44652 5.39765 6.44675 5.3975C6.46339 5.33911 6.4986 5.28773 6.54703 5.25114C6.59547 5.21454 6.65451 5.19471 6.71522 5.19464C6.78932 5.19473 6.86036 5.22422 6.91273 5.27665C6.9651 5.32908 6.99452 5.40015 6.99452 5.47426C6.99452 5.65229 6.86914 5.81624 6.71838 5.9474Z" fill="#034694"/>
<path d="M10.9116 6.19127C10.9494 6.25471 11.0044 6.30613 11.0703 6.33958C11.1361 6.37302 11.2101 6.38711 11.2836 6.38022C11.3868 6.3705 11.4819 6.32023 11.548 6.24043C11.6141 6.16064 11.6459 6.05786 11.6363 5.95466C11.6355 5.94707 11.6341 5.93972 11.6332 5.93213C11.6103 6.0432 11.4787 6.13767 11.3122 6.15301C11.1855 6.16487 11.0715 6.12858 11.0042 6.06502C10.9719 6.10953 10.9393 6.15349 10.9116 6.19127Z" fill="#ED1C24"/>
<path d="M10.3895 5.4668L10.5245 5.47391L10.457 5.56648C10.457 5.56656 10.3668 5.59502 10.3895 5.4668ZM10.0677 5.4668H10.2621C10.2621 5.4668 10.255 5.62356 10.397 5.63771L10.3668 5.68768C10.3668 5.68768 9.98536 5.58799 10.0677 5.4668Z" fill="white"/>
<path d="M6.72918 6.80704C6.7359 6.78174 6.50016 6.64379 6.37178 6.61019C6.31763 6.5962 6.27612 6.66118 6.2694 6.68656C6.26284 6.71201 6.26727 6.78909 6.32103 6.80332C6.44949 6.83676 6.72262 6.83233 6.72918 6.80704ZM6.70981 7.04238C6.71179 7.01851 6.47661 6.93392 6.35534 6.92491C6.30443 6.92111 6.27778 6.98681 6.2762 7.01044C6.27454 7.03471 6.29114 7.10333 6.34213 7.10697C6.46317 7.11582 6.70831 7.06665 6.70981 7.04238ZM6.44277 6.33263V6.42283C6.47732 6.45746 6.60301 6.49786 6.61732 6.49786V6.31927C6.6174 6.31935 6.52285 6.33919 6.44277 6.33263ZM6.3936 7.21219C6.35676 7.21369 6.34292 7.26247 6.34387 7.27994C6.34419 7.29733 6.36182 7.34524 6.39858 7.34389C6.48609 7.34073 6.65788 7.28563 6.65716 7.2684C6.65653 7.25124 6.48119 7.20911 6.3936 7.21219ZM6.21312 9.5922C6.06805 9.78011 6.17248 9.95158 6.17248 9.95158C6.17248 9.82082 6.32182 9.65236 6.35518 9.61947C6.3551 9.61939 6.30395 9.5922 6.21312 9.5922ZM6.67582 9.99094C6.6627 10.0584 6.67674 10.1284 6.71491 10.1856C6.75307 10.2427 6.81227 10.2826 6.87962 10.2963C6.88998 10.2987 6.8997 10.3 6.90982 10.3012L6.9231 10.3015C6.9231 10.3015 6.77622 10.1641 6.83527 10.0339C6.79693 10.0075 6.73978 9.99094 6.67582 9.99094ZM6.41036 6.155C6.19051 6.04772 6.03406 5.7787 6.03406 5.46327C6.03406 5.12856 6.20988 4.8457 6.45147 4.75313C6.08877 4.83361 5.83287 5.15583 5.86488 5.51916C5.892 5.82708 6.11691 6.07318 6.41036 6.155ZM8.7453 5.38303C8.97874 5.33908 9.05788 5.5466 9.05788 5.62099C9.05788 5.90234 8.83882 6.01563 8.65715 6.01673V6.01689C9.49979 6.01681 9.20286 4.92571 8.7453 5.38303ZM8.18212 7.80438C8.58482 7.80438 8.5577 7.27844 8.47066 7.19116C8.59984 7.06207 8.86578 6.46971 8.86578 6.3603C8.86578 6.3603 8.33422 6.24567 8.4192 5.87689C8.41904 5.87665 8.41904 5.87649 8.41904 5.87617L8.41193 5.87491C8.26702 6.02772 8.35517 6.34647 8.5849 6.426C8.5849 6.426 8.49628 6.77644 8.2773 6.99874C8.05935 6.99028 7.7538 6.96159 7.48549 6.8589C7.90029 7.07906 8.32734 7.4118 8.18212 7.80438ZM6.6091 5.27908C6.71313 5.27078 6.80492 5.34461 6.81377 5.44406C6.82231 5.54304 6.74484 5.63055 6.64056 5.63885C6.53605 5.64723 6.44427 5.5734 6.43589 5.47403C6.43593 5.54811 6.4654 5.61914 6.5178 5.6715C6.57021 5.72386 6.64127 5.75327 6.71535 5.75324L6.72231 5.75309C6.73614 5.82139 6.74088 5.89404 6.71859 5.94716C6.86935 5.81609 6.99473 5.65213 6.99473 5.47395C7.00544 5.43554 7.00781 5.39528 7.00168 5.35588C6.99554 5.31648 6.98104 5.27885 6.95915 5.24552C6.93727 5.21219 6.9085 5.18393 6.87478 5.16264C6.84107 5.14135 6.80319 5.12753 6.76368 5.1221C6.72418 5.11666 6.68397 5.11975 6.64576 5.13115C6.60755 5.14255 6.57222 5.16199 6.54215 5.18818C6.51208 5.21437 6.48796 5.24669 6.47142 5.28297C6.45488 5.31925 6.4463 5.35865 6.44625 5.39853C6.4706 5.33394 6.53234 5.28532 6.6091 5.27908ZM9.57663 5.07583C9.39441 4.89345 9.66359 4.55249 9.76257 4.55249C9.65434 4.55249 9.18547 4.85946 9.34469 5.07583H9.57663ZM7.23046 8.10685C7.3749 8.15127 7.5202 8.09712 7.55395 7.98621C7.58787 7.87498 7.49767 7.74944 7.353 7.70486C7.33336 7.69904 7.3133 7.69478 7.293 7.69213C7.50194 7.81134 7.49949 8.05032 7.23046 8.10685ZM6.81148 6.57201C6.81148 6.57201 7.01852 6.63754 7.27315 6.75391C7.22229 6.72271 7.17465 6.68654 7.13094 6.64592C7.00168 6.52379 6.89883 6.45714 6.81148 6.42331V6.57201ZM6.88998 9.23455C7.3228 9.23455 8.81913 8.27918 8.81913 8.27918C8.44948 8.27918 8.3003 8.22195 8.3003 8.22195C8.21682 8.26551 8.04559 8.35144 7.68068 8.56631C7.38367 8.7411 7.18461 8.96213 6.91385 9.05866C6.87267 9.0736 6.83978 9.07708 6.81156 9.07558C6.74926 9.07028 6.68064 9.06166 6.61748 9.05795V7.68399C6.61748 7.53987 6.51226 7.48192 6.44293 7.48192V9.08095C6.32593 9.14301 6.2683 9.22017 6.23668 9.29218C6.23668 9.29218 6.01359 9.26246 6.01991 9.67552C6.01991 9.56587 6.18245 9.37432 6.29502 9.37432C6.29494 9.23455 6.70507 9.23455 6.88998 9.23455ZM10.6226 11.4466C10.5129 11.4466 10.0099 11.468 9.96487 11.0299C9.85379 11.0059 9.72383 11.0013 9.5877 11.0206C9.94328 11.6992 10.3293 11.7046 10.4303 11.7099C10.5873 11.8852 10.5347 12.4773 10.3076 12.4655C9.47631 12.4211 9.50683 12.927 9.60011 13.0304C9.60011 12.6491 9.85917 12.5587 10.5141 12.5587C10.5141 12.5584 11.0492 11.8734 10.6226 11.4466ZM10.7935 13.084H10.6809C10.6715 13.2658 10.8512 13.3193 10.8512 13.3193C10.7935 13.2615 10.7514 13.1265 10.7935 13.084ZM9.74154 13.3398C9.69379 13.2919 9.65426 13.1 9.72367 13.0301H9.59987C9.58952 13.2267 9.74154 13.3398 9.74154 13.3398ZM12.223 7.0261C12.223 6.4456 11.4268 6.53691 11.3875 6.98254C11.4226 6.65581 11.9546 6.60758 11.9546 7.01685C11.9546 7.43987 10.9625 7.71679 10.9625 8.4316C10.9625 9.2193 11.7501 9.29218 11.6704 10.0122C11.6569 10.1369 11.5235 10.2998 11.33 10.2998C10.9153 10.2998 10.6934 10.1238 10.5645 9.87513C10.6963 10.2272 10.9283 10.497 11.4109 10.497C11.9111 10.497 11.9565 10.1273 11.9565 10.0415C11.9565 9.32049 11.2035 9.14902 11.2035 8.46385C11.2037 7.7968 12.223 7.52192 12.223 7.0261ZM6.3521 9.82691C6.3521 10.0492 6.44269 10.1353 6.44269 10.1353C6.44269 10.0014 6.49779 9.88802 6.52926 9.85687C6.48277 9.81007 6.3521 9.82691 6.3521 9.82691ZM12.105 8.59825C12.0085 8.59816 11.9154 8.63424 11.8441 8.69937C11.7729 8.7645 11.7286 8.85396 11.72 8.95012C11.7292 8.90276 11.7609 8.85675 11.8224 8.81067C12.054 8.63856 12.5077 8.98522 12.249 9.34341C12.3205 9.31466 12.3818 9.26514 12.425 9.20122C12.4681 9.13731 12.4911 9.06194 12.491 8.98482C12.4911 8.88237 12.4505 8.78409 12.3781 8.7116C12.3057 8.6391 12.2075 8.59833 12.105 8.59825ZM10.3338 13.084H10.1989C10.185 13.3408 10.3493 13.3794 10.3493 13.3794C10.2797 13.31 10.268 13.1498 10.3338 13.084ZM6.52032 11.7146C6.49937 11.7146 6.47993 11.719 6.46143 11.7261C6.4292 11.7502 6.40321 11.7816 6.38564 11.8178C6.36807 11.8539 6.35944 11.8938 6.36047 11.934C6.37102 11.9682 6.39223 11.998 6.421 12.0193C6.44977 12.0405 6.48458 12.0519 6.52032 12.0519C6.54247 12.0519 6.56439 12.0475 6.58485 12.0391C6.60531 12.0306 6.6239 12.0182 6.63956 12.0025C6.65521 11.9868 6.66763 11.9683 6.67611 11.9478C6.68458 11.9273 6.68894 11.9054 6.68894 11.8833C6.68894 11.8611 6.68458 11.8392 6.67611 11.8187C6.66763 11.7983 6.65521 11.7797 6.63956 11.764C6.6239 11.7484 6.60531 11.736 6.58485 11.7275C6.56439 11.719 6.54247 11.7146 6.52032 11.7146ZM7.46865 12.9615H7.27355C7.27189 13.2742 7.47419 13.331 7.47419 13.331C7.41703 13.2735 7.3447 13.0854 7.46865 12.9615ZM8.07373 10.9838C8.07373 10.2685 9.78684 10.1845 9.78684 9.5952C9.78684 9.35527 9.57971 9.24689 9.43251 9.24689C9.4741 9.28863 9.69703 9.76793 9.05717 9.76793C8.47857 9.96146 7.21853 11.0568 8.09318 11.4364C8.09279 11.5466 8.078 12.3661 7.55269 12.3017C6.79598 12.2079 6.6072 12.5208 6.75242 12.8729C6.75242 12.3388 7.12754 12.4381 7.61735 12.4381C7.92369 12.4381 8.37153 12.0508 8.37153 11.3985C8.37145 11.3983 8.07373 11.2842 8.07373 10.9838ZM6.6174 11.4222V9.98581C6.52032 9.98581 6.44285 10.1356 6.44285 10.1356V11.361V11.3531L6.33676 11.3534L6.33763 11.5082C6.41921 11.5082 6.6174 11.466 6.6174 11.4222ZM6.91227 13.273C6.91227 13.273 6.7608 13.0351 6.9231 12.8729H6.75235C6.68373 13.17 6.91227 13.273 6.91227 13.273ZM7.96836 12.9646H7.82669C7.82558 13.1854 8.08203 13.269 8.08203 13.269C7.99175 13.179 7.92986 13.0025 7.96836 12.9646Z" fill="#6A7AB5"/>
<path d="M3.20454 10.58L3.19513 10.551L3.1911 10.5209C3.17726 10.4176 3.15228 10.2252 3.00374 10.1907C2.96406 10.1815 2.92303 10.1862 2.87915 10.2042C2.89109 10.1585 2.88975 10.1171 2.87536 10.0793C2.82065 9.9368 2.62673 9.9387 2.52254 9.93997H2.49195L2.46175 9.93443C2.35945 9.91562 2.16861 9.88004 2.09027 10.0106C2.06916 10.0455 2.06086 10.086 2.06442 10.1331C2.02482 10.1076 1.98481 10.096 1.9445 10.0981C1.79192 10.1062 1.73374 10.291 1.70251 10.3907L1.69295 10.4195L1.6788 10.4465C1.62883 10.5382 1.53618 10.7083 1.63626 10.8235C1.66299 10.8543 1.69895 10.8748 1.74489 10.8857C1.7086 10.9158 1.68512 10.95 1.67492 10.9895C1.63508 11.1365 1.79319 11.249 1.87777 11.3094L1.9026 11.3276L1.92402 11.3491C1.99572 11.4251 2.12909 11.5654 2.26941 11.506C2.30664 11.49 2.33732 11.4623 2.36198 11.422C2.37961 11.4659 2.40483 11.4985 2.4389 11.5208C2.56665 11.6037 2.72239 11.4883 2.80619 11.4267L2.83093 11.4086L2.85844 11.3951C2.95251 11.3501 3.1277 11.2669 3.1145 11.1149C3.11102 11.074 3.09394 11.0368 3.06343 11.001C3.11046 10.9982 3.14912 10.9839 3.18066 10.9584C3.29948 10.8626 3.23774 10.6789 3.20454 10.58Z" fill="white"/>
<path d="M2.53696 10.7032C3.38987 11.2073 3.12725 10.6529 3.10844 10.5709C3.08954 10.4893 3.08235 9.87606 2.53696 10.7032ZM2.48336 10.8294C2.26762 11.796 2.71356 11.3752 2.7855 11.3322C2.85736 11.289 3.43833 11.0926 2.48336 10.8294ZM2.34644 10.8176C1.36001 10.9108 1.89836 11.205 1.96169 11.2601C2.02509 11.3149 2.3911 11.807 2.34644 10.8176ZM2.31545 10.6834C1.92184 9.77432 1.80824 10.3772 1.77544 10.4545C1.74271 10.5313 1.38784 11.0319 2.31545 10.6834Z" fill="#ED1C24"/>
<path d="M16.4034 10.4464L16.3893 10.4194L16.3797 10.3906C16.3484 10.2909 16.2902 10.1059 16.1382 10.0979C16.0973 10.096 16.0575 10.1073 16.018 10.1325C16.0216 10.0857 16.0129 10.0453 15.9923 10.0105C15.9136 9.87979 15.7231 9.91537 15.6207 9.93418L15.5902 9.93972H15.5597C15.456 9.93829 15.2619 9.93655 15.2073 10.079C15.1925 10.1169 15.1914 10.1584 15.203 10.204C15.1598 10.1861 15.1188 10.1814 15.0788 10.1906C14.9304 10.2249 14.9049 10.4174 14.8918 10.5207L14.8871 10.5508L14.878 10.5798C14.8446 10.6786 14.7831 10.8624 14.9018 10.9584C14.9332 10.9839 14.9718 10.9981 15.019 11.0009C14.9884 11.0368 14.9713 11.0742 14.9679 11.1149C14.9548 11.2669 15.1298 11.3501 15.224 11.395L15.2513 11.4086L15.2759 11.4267C15.3599 11.4883 15.5158 11.6036 15.6432 11.5208C15.6778 11.4984 15.7028 11.4659 15.7202 11.4219C15.745 11.4622 15.7754 11.4897 15.8131 11.5059C15.9532 11.5653 16.0868 11.425 16.1585 11.3491L16.1799 11.3275L16.2045 11.3093C16.2893 11.2489 16.4472 11.1364 16.4076 10.9894C16.397 10.95 16.374 10.9156 16.3374 10.8857C16.3831 10.8748 16.4193 10.8542 16.4458 10.8234C16.5461 10.7081 16.4536 10.5381 16.4034 10.4464Z" fill="white"/>
<path d="M15.6493 10.6128C14.9066 9.95764 15.5147 10.0358 15.5983 10.0284C15.6815 10.0214 16.2673 9.83859 15.6493 10.6128ZM15.5459 10.7031C14.693 11.2073 14.955 10.6528 14.9743 10.5708C14.993 10.4892 15 9.87598 15.5459 10.7031ZM15.5993 10.8293C15.8152 11.7959 15.3692 11.3751 15.2971 11.3322C15.2252 11.2889 14.6446 11.0925 15.5993 10.8293ZM15.7361 10.8175C16.7225 10.9107 16.1845 11.205 16.1209 11.2601C16.058 11.3148 15.6914 11.8069 15.7361 10.8175ZM15.7668 10.6834C16.1605 9.77424 16.274 10.3771 16.3069 10.4544C16.3395 10.5313 16.6944 11.0318 15.7668 10.6834Z" fill="#ED1C24"/>
<path d="M15.9586 10.7117C15.9577 10.7038 15.9551 10.6969 15.954 10.6891C16.0332 10.631 16.1188 10.5687 16.1188 10.5687L16.1106 10.5503L15.9151 10.5846C15.8913 10.5452 15.8587 10.512 15.8199 10.4875C15.781 10.463 15.737 10.4478 15.6913 10.4433C15.6713 10.3831 15.6515 10.3229 15.6317 10.2626L15.6116 10.2642C15.6116 10.2642 15.5982 10.3593 15.5845 10.4524C15.5264 10.468 15.4745 10.5011 15.4358 10.5472C15.4155 10.5722 15.3993 10.6004 15.3878 10.6306C15.2912 10.6306 15.1893 10.631 15.1893 10.631L15.1851 10.6509C15.1851 10.6509 15.28 10.6971 15.3678 10.7401C15.3682 10.7482 15.367 10.756 15.3678 10.7641C15.3745 10.8406 15.4108 10.9114 15.469 10.9614L15.4036 11.1655L15.4206 11.1757C15.4206 11.1757 15.5006 11.0929 15.5719 11.0197C15.6091 11.0318 15.6487 11.0367 15.6888 11.0332C15.7291 11.0301 15.7674 11.0181 15.8022 11C15.8848 11.0594 15.978 11.1268 15.978 11.1268L15.9932 11.1136C15.9932 11.1136 15.9403 11.0137 15.8932 10.9244C15.9418 10.8647 15.9653 10.7884 15.9586 10.7117Z" fill="white"/>
<path d="M15.6477 10.5634C15.6248 10.5651 15.6024 10.5715 15.582 10.5821C15.5615 10.5928 15.5434 10.6074 15.5288 10.6252C15.5103 10.6473 15.4975 10.6736 15.4915 10.7018C15.4856 10.73 15.4867 10.7592 15.4948 10.7869C15.5029 10.8145 15.5176 10.8398 15.5378 10.8604C15.558 10.8809 15.5829 10.8962 15.6104 10.9049C15.6379 10.9135 15.6671 10.9153 15.6954 10.91C15.7237 10.9046 15.7503 10.8924 15.7727 10.8743C15.7952 10.8563 15.8128 10.833 15.8241 10.8065C15.8354 10.7799 15.84 10.7511 15.8375 10.7223C15.8355 10.6994 15.829 10.6771 15.8184 10.6567C15.8078 10.6363 15.7933 10.6182 15.7756 10.6035C15.758 10.5887 15.7376 10.5775 15.7157 10.5707C15.6937 10.5638 15.6707 10.5613 15.6477 10.5634ZM2.43316 10.6129C3.17603 9.95764 2.56763 10.0358 2.48423 10.0284C2.40067 10.0214 1.81503 9.83858 2.43316 10.6129Z" fill="#ED1C24"/>
<path d="M2.71436 10.7398C2.80275 10.6969 2.89729 10.6505 2.89729 10.6505L2.89279 10.6306C2.89279 10.6306 2.79113 10.6302 2.69444 10.6302C2.68304 10.6 2.66686 10.5719 2.64654 10.5468C2.60782 10.5007 2.55589 10.4676 2.49776 10.452L2.47096 10.2639L2.45056 10.2622C2.45056 10.2622 2.42099 10.3533 2.39166 10.4429C2.34587 10.4474 2.30174 10.4625 2.26279 10.487C2.22385 10.5115 2.19115 10.5448 2.16731 10.5841L1.97157 10.55L1.96375 10.5684C1.96375 10.5684 2.04912 10.6307 2.12826 10.6888C2.12699 10.6966 2.1247 10.7037 2.12383 10.7113C2.11722 10.788 2.14082 10.8643 2.1896 10.9238C2.14209 11.0132 2.08928 11.113 2.08928 11.113L2.10486 11.1261C2.10486 11.1261 2.1979 11.0587 2.28044 10.9993C2.31506 11.0174 2.35332 11.0291 2.39364 11.0325C2.43313 11.0361 2.47292 11.0315 2.51056 11.019L2.66156 11.1751L2.67918 11.1648L2.61341 10.9611C2.67151 10.9108 2.7078 10.8399 2.7146 10.7634C2.71563 10.7557 2.71436 10.7479 2.71436 10.7398Z" fill="white"/>
<path d="M2.5536 10.6252C2.53898 10.6074 2.52088 10.5927 2.50042 10.5821C2.47995 10.5715 2.45754 10.5651 2.43455 10.5634C2.41166 10.5614 2.38859 10.5639 2.36666 10.5708C2.34474 10.5777 2.32438 10.5888 2.30677 10.6036C2.28916 10.6184 2.27463 10.6365 2.26401 10.6568C2.25339 10.6772 2.2469 10.6995 2.2449 10.7224C2.24095 10.7693 2.25542 10.8142 2.28522 10.8504C2.30757 10.8768 2.33723 10.896 2.37048 10.9056C2.40373 10.9152 2.43908 10.9148 2.47208 10.9044C2.50508 10.8939 2.53427 10.874 2.55596 10.847C2.57765 10.8201 2.59089 10.7873 2.594 10.7528C2.59792 10.7066 2.58339 10.6608 2.5536 10.6252Z" fill="#ED1C24"/>
<path d="M2.5417 6.49121C2.12651 6.41785 1.72887 6.69659 1.65551 7.11187C1.58222 7.52737 1.86065 7.92494 2.27592 7.99822C2.69151 8.07158 3.08931 7.79292 3.16243 7.37749C3.23595 6.96222 2.95737 6.56465 2.5417 6.49121Z" fill="white"/>
<path d="M2.715 7.06989C2.70404 7.06297 2.69319 7.05591 2.68243 7.0487C2.61966 7.00712 2.49657 6.92577 2.49317 6.92332C2.47618 6.91162 2.45957 6.90048 2.44321 6.88949C2.39439 6.85619 2.3445 6.82447 2.29364 6.79439C2.27654 6.78458 2.25917 6.77525 2.24154 6.7664C2.16842 6.72948 2.0983 6.70719 2.01561 6.69992C1.95153 6.7463 1.89604 6.80353 1.85165 6.86901C2.04185 6.93763 2.22763 7.04775 2.61436 7.28792C2.63658 7.23701 2.71057 7.07945 2.715 7.06989ZM2.53665 7.48002C2.54448 7.46073 2.57839 7.37472 2.59231 7.34159C2.19593 7.09542 2.01189 6.98649 1.82129 6.91905C1.79132 6.97328 1.76905 7.03141 1.75513 7.09178C1.8639 7.2412 2.15553 7.38792 2.53665 7.48002ZM2.49373 6.85439C2.64211 6.76664 2.81081 6.79051 2.94093 6.83494C2.89234 6.7716 2.83286 6.71742 2.76528 6.67494C2.64227 6.65035 2.47254 6.64663 2.33736 6.75407C2.38653 6.78284 2.43728 6.81652 2.49373 6.85439Z" fill="#ED1C24"/>
<path d="M1.90162 7.56329C1.92147 7.57688 1.94186 7.58985 1.96337 7.60202C2.00716 7.62613 2.05436 7.647 2.10337 7.66487C2.12408 7.67285 2.14511 7.67997 2.16638 7.68684C2.24061 7.71135 2.41137 7.75562 2.42401 7.75855L2.51477 7.5338C2.21926 7.46052 1.8957 7.33221 1.74201 7.16549C1.73267 7.2407 1.73625 7.31695 1.75261 7.39095C1.7851 7.4617 1.83712 7.51799 1.90162 7.56329ZM2.43398 7.82037L2.37231 7.80455C2.31122 7.78924 2.25049 7.77251 2.19017 7.75436C2.22092 7.81989 2.26923 7.87096 2.32077 7.91049C2.38814 7.91947 2.45649 7.91816 2.52347 7.90661C2.47627 7.86969 2.43398 7.82037 2.43398 7.82037ZM3.05202 7.04944C3.03815 7.00368 3.0195 6.95951 2.99637 6.91766C2.87976 6.8658 2.70244 6.81497 2.5475 6.89078L2.7611 7.03189C2.80569 7.02794 2.84672 7.02668 2.88427 7.02762C2.90474 7.02794 2.9238 7.02905 2.9419 7.03086C2.98388 7.03458 3.01953 7.0413 3.05202 7.04944ZM2.94261 7.08857C2.93637 7.4398 2.77075 7.71072 2.62805 7.88029C2.85138 7.80266 3.02752 7.61016 3.07147 7.36154C3.08571 7.27936 3.08458 7.19525 3.06815 7.11348C3.02726 7.10092 2.9852 7.09258 2.94261 7.08857ZM2.28401 6.72406C2.38401 6.63592 2.50212 6.60611 2.61114 6.60366C2.58327 6.59451 2.55479 6.58735 2.52592 6.58224C2.37658 6.55583 2.2227 6.58097 2.08954 6.65355C2.15823 6.66706 2.22037 6.69117 2.28401 6.72406Z" fill="#ED1C24"/>
<path d="M2.76963 7.08902C2.7188 7.19488 2.68892 7.2597 2.66409 7.31868C2.65642 7.33655 2.64907 7.35386 2.64156 7.37196C2.6297 7.40153 2.59318 7.49347 2.59318 7.49347L2.57152 7.54755L2.47713 7.78124C2.50322 7.81587 2.53476 7.84401 2.56575 7.86591C2.70591 7.70606 2.88046 7.43719 2.88576 7.0853C2.85035 7.08404 2.81153 7.08538 2.76963 7.08902ZM2.11965 7.73128C2.0724 7.71534 2.02618 7.69654 1.98122 7.67499C1.99782 7.72614 2.0217 7.77175 2.04565 7.81065C2.09601 7.84298 2.15127 7.86836 2.21024 7.88654C2.17214 7.84362 2.13917 7.79262 2.11965 7.73128ZM1.91197 7.6372C1.88056 7.6184 1.85076 7.59704 1.82288 7.57332C1.85409 7.62901 1.89306 7.67998 1.93861 7.72472C1.92735 7.69632 1.91844 7.66705 1.91197 7.6372Z" fill="#ED1C24"/>
<path d="M14.8371 7.37743C14.9106 7.79286 15.308 8.07144 15.7234 7.99816C16.1389 7.92487 16.4171 7.52724 16.3442 7.11181C16.2709 6.69663 15.8733 6.41797 15.4578 6.49117C15.0423 6.56461 14.7639 6.96217 14.8371 7.37743Z" fill="white"/>
<path d="M15.2845 7.06989L15.3173 7.0487C15.3973 6.99592 15.477 6.94285 15.5566 6.88949C15.6053 6.85601 15.6552 6.82429 15.7061 6.79439C15.7239 6.78435 15.7412 6.77486 15.7581 6.7664C15.831 6.72948 15.9014 6.70719 15.984 6.69992C16.0481 6.74612 16.1035 6.80338 16.1475 6.86901C15.9574 6.93763 15.7722 7.04775 15.3849 7.28792C15.3628 7.23701 15.2891 7.07945 15.2845 7.06989ZM15.463 7.48002C15.4551 7.46073 15.4209 7.37472 15.4078 7.34159C15.8034 7.09542 15.988 6.98649 16.1785 6.91905C16.2079 6.97218 16.2302 7.03004 16.2447 7.09178C16.1357 7.2412 15.844 7.38792 15.463 7.48002ZM15.5059 6.85439C15.3573 6.76664 15.1888 6.79051 15.0586 6.83494C15.1073 6.77159 15.1669 6.71741 15.2346 6.67494C15.3575 6.65035 15.5271 6.64663 15.6621 6.75407C15.6091 6.78599 15.557 6.81944 15.5059 6.85439Z" fill="#ED1C24"/>
<path d="M16.0977 7.56333C16.0779 7.5773 16.0573 7.59023 16.0361 7.60207C15.9926 7.62618 15.9455 7.64705 15.8965 7.66492C15.8756 7.6729 15.8544 7.68002 15.8332 7.6869C15.7592 7.71141 15.5884 7.75568 15.5756 7.7586C15.5727 7.75204 15.5085 7.59393 15.4849 7.53384C15.7802 7.46056 16.1036 7.33225 16.2578 7.16552C16.2669 7.24075 16.2632 7.31697 16.247 7.39099C16.2146 7.46174 16.1626 7.51803 16.0977 7.56333ZM15.5658 7.82042L15.627 7.80461C15.6883 7.78933 15.7493 7.7726 15.8098 7.75441C15.7785 7.81995 15.7304 7.87102 15.679 7.91055C15.6117 7.91954 15.5434 7.91823 15.4765 7.90668C15.5233 7.86976 15.5658 7.82042 15.5658 7.82042ZM14.9477 7.04946C14.9614 7.0036 14.9802 6.95941 15.0037 6.91768C15.1199 6.86581 15.2969 6.81498 15.4519 6.8908L15.2385 7.03191C15.1975 7.02816 15.1563 7.02673 15.1152 7.02764C15.0959 7.02793 15.0766 7.02901 15.0574 7.03089C15.0204 7.03416 14.9837 7.04037 14.9477 7.04946ZM15.0571 7.0886C15.0632 7.43985 15.2293 7.71077 15.372 7.88035C15.148 7.80272 14.9717 7.61021 14.9282 7.36158C14.9138 7.2794 14.915 7.19524 14.9317 7.1135C14.9726 7.10094 15.0146 7.09259 15.0571 7.0886ZM15.7159 6.72407C15.6158 6.63592 15.4974 6.60611 15.3886 6.60366C15.4165 6.59447 15.445 6.5873 15.4739 6.58224C15.6232 6.55583 15.777 6.58098 15.91 6.65355C15.8416 6.66707 15.7794 6.69118 15.7159 6.72407Z" fill="#ED1C24"/>
<path d="M15.2304 7.08902C15.2673 7.16485 15.3026 7.24142 15.3364 7.31868L15.3583 7.37196C15.3703 7.40153 15.4068 7.49347 15.4068 7.49347L15.4283 7.54755L15.5228 7.78124C15.4978 7.81381 15.468 7.84237 15.4343 7.86591C15.2941 7.70606 15.1194 7.43719 15.1144 7.0853C15.1496 7.08404 15.1886 7.08538 15.2304 7.08902ZM15.8803 7.73128C15.9276 7.71531 15.9738 7.69652 16.0188 7.67499C16.0026 7.72259 15.9809 7.76812 15.9541 7.81065C15.903 7.84324 15.8477 7.86877 15.7898 7.88654C15.8278 7.84362 15.8608 7.79262 15.8803 7.73128ZM16.0881 7.6372C16.1194 7.61825 16.1491 7.59689 16.1771 7.57332C16.1459 7.62905 16.1069 7.68003 16.0613 7.72472C16.0724 7.69627 16.0814 7.66701 16.0881 7.6372Z" fill="#ED1C24"/>
</svg>
