<svg width="30" height="30" viewBox="0 0 30 30" fill="none" xmlns="http://www.w3.org/2000/svg">
<g opacity="0.3">
<circle cx="15" cy="15" r="15" fill="#C4C4C4"/>
<path d="M16.4099 15L20.7099 10.71C20.8982 10.5217 21.004 10.2663 21.004 10C21.004 9.7337 20.8982 9.4783 20.7099 9.29C20.5216 9.1017 20.2662 8.99591 19.9999 8.99591C19.7336 8.99591 19.4782 9.1017 19.2899 9.29L14.9999 13.59L10.7099 9.29C10.5216 9.1017 10.2662 8.99591 9.99994 8.99591C9.73364 8.99591 9.47824 9.1017 9.28994 9.29C9.10164 9.4783 8.99585 9.7337 8.99585 10C8.99585 10.2663 9.10164 10.5217 9.28994 10.71L13.5899 15L9.28994 19.29C9.19621 19.383 9.12182 19.4936 9.07105 19.6154C9.02028 19.7373 8.99414 19.868 8.99414 20C8.99414 20.132 9.02028 20.2627 9.07105 20.3846C9.12182 20.5064 9.19621 20.617 9.28994 20.71C9.3829 20.8037 9.4935 20.8781 9.61536 20.9289C9.73722 20.9797 9.86793 21.0058 9.99994 21.0058C10.132 21.0058 10.2627 20.9797 10.3845 20.9289C10.5064 20.8781 10.617 20.8037 10.7099 20.71L14.9999 16.41L19.2899 20.71C19.3829 20.8037 19.4935 20.8781 19.6154 20.9289C19.7372 20.9797 19.8679 21.0058 19.9999 21.0058C20.132 21.0058 20.2627 20.9797 20.3845 20.9289C20.5064 20.8781 20.617 20.8037 20.7099 20.71C20.8037 20.617 20.8781 20.5064 20.9288 20.3846C20.9796 20.2627 21.0057 20.132 21.0057 20C21.0057 19.868 20.9796 19.7373 20.9288 19.6154C20.8781 19.4936 20.8037 19.383 20.7099 19.29L16.4099 15Z" fill="black"/>
</g>
</svg>
