<svg width="14" height="16" viewBox="0 0 14 16" fill="none" xmlns="http://www.w3.org/2000/svg">
<path d="M7.00004 12.6667C7.1319 12.6667 7.26079 12.6276 7.37042 12.5544C7.48005 12.4811 7.5655 12.377 7.61596 12.2552C7.66642 12.1334 7.67962 11.9993 7.6539 11.87C7.62817 11.7407 7.56468 11.6219 7.47145 11.5287C7.37821 11.4354 7.25942 11.3719 7.1301 11.3462C7.00078 11.3205 6.86674 11.3337 6.74492 11.3842C6.6231 11.4346 6.51898 11.5201 6.44573 11.6297C6.37247 11.7393 6.33337 11.8682 6.33337 12.0001C6.33337 12.1769 6.40361 12.3465 6.52864 12.4715C6.65366 12.5965 6.82323 12.6667 7.00004 12.6667ZM10.3334 12.6667C10.4652 12.6667 10.5941 12.6276 10.7038 12.5544C10.8134 12.4811 10.8988 12.377 10.9493 12.2552C10.9998 12.1334 11.013 11.9993 10.9872 11.87C10.9615 11.7407 10.898 11.6219 10.8048 11.5287C10.7115 11.4354 10.5928 11.3719 10.4634 11.3462C10.3341 11.3205 10.2001 11.3337 10.0783 11.3842C9.95644 11.4346 9.85231 11.5201 9.77906 11.6297C9.70581 11.7393 9.66671 11.8682 9.66671 12.0001C9.66671 12.1769 9.73695 12.3465 9.86197 12.4715C9.98699 12.5965 10.1566 12.6667 10.3334 12.6667ZM10.3334 10.0001C10.4652 10.0001 10.5941 9.96098 10.7038 9.88773C10.8134 9.81447 10.8988 9.71035 10.9493 9.58854C10.9998 9.46672 11.013 9.33267 10.9872 9.20335C10.9615 9.07403 10.898 8.95525 10.8048 8.86201C10.7115 8.76877 10.5928 8.70528 10.4634 8.67956C10.3341 8.65383 10.2001 8.66704 10.0783 8.71749C9.95644 8.76795 9.85231 8.8534 9.77906 8.96303C9.70581 9.07267 9.66671 9.20156 9.66671 9.33341C9.66671 9.51023 9.73695 9.67979 9.86197 9.80482C9.98699 9.92984 10.1566 10.0001 10.3334 10.0001ZM7.00004 10.0001C7.1319 10.0001 7.26079 9.96098 7.37042 9.88773C7.48005 9.81447 7.5655 9.71035 7.61596 9.58854C7.66642 9.46672 7.67962 9.33267 7.6539 9.20335C7.62817 9.07403 7.56468 8.95525 7.47145 8.86201C7.37821 8.76877 7.25942 8.70528 7.1301 8.67956C7.00078 8.65383 6.86674 8.66704 6.74492 8.71749C6.6231 8.76795 6.51898 8.8534 6.44573 8.96303C6.37247 9.07267 6.33337 9.20156 6.33337 9.33341C6.33337 9.51023 6.40361 9.67979 6.52864 9.80482C6.65366 9.92984 6.82323 10.0001 7.00004 10.0001ZM11.6667 2.00008H11V1.33341C11 1.1566 10.9298 0.987034 10.8048 0.86201C10.6798 0.736986 10.5102 0.666748 10.3334 0.666748C10.1566 0.666748 9.98699 0.736986 9.86197 0.86201C9.73695 0.987034 9.66671 1.1566 9.66671 1.33341V2.00008H4.33337V1.33341C4.33337 1.1566 4.26314 0.987034 4.13811 0.86201C4.01309 0.736986 3.84352 0.666748 3.66671 0.666748C3.4899 0.666748 3.32033 0.736986 3.1953 0.86201C3.07028 0.987034 3.00004 1.1566 3.00004 1.33341V2.00008H2.33337C1.80294 2.00008 1.29423 2.2108 0.919161 2.58587C0.544088 2.96094 0.333374 3.46965 0.333374 4.00008V13.3334C0.333374 13.8638 0.544088 14.3726 0.919161 14.7476C1.29423 15.1227 1.80294 15.3334 2.33337 15.3334H11.6667C12.1971 15.3334 12.7058 15.1227 13.0809 14.7476C13.456 14.3726 13.6667 13.8638 13.6667 13.3334V4.00008C13.6667 3.46965 13.456 2.96094 13.0809 2.58587C12.7058 2.2108 12.1971 2.00008 11.6667 2.00008ZM12.3334 13.3334C12.3334 13.5102 12.2631 13.6798 12.1381 13.8048C12.0131 13.9298 11.8435 14.0001 11.6667 14.0001H2.33337C2.15656 14.0001 1.98699 13.9298 1.86197 13.8048C1.73695 13.6798 1.66671 13.5102 1.66671 13.3334V7.33341H12.3334V13.3334ZM12.3334 6.00008H1.66671V4.00008C1.66671 3.82327 1.73695 3.6537 1.86197 3.52868C1.98699 3.40365 2.15656 3.33341 2.33337 3.33341H3.00004V4.00008C3.00004 4.17689 3.07028 4.34646 3.1953 4.47149C3.32033 4.59651 3.4899 4.66675 3.66671 4.66675C3.84352 4.66675 4.01309 4.59651 4.13811 4.47149C4.26314 4.34646 4.33337 4.17689 4.33337 4.00008V3.33341H9.66671V4.00008C9.66671 4.17689 9.73695 4.34646 9.86197 4.47149C9.98699 4.59651 10.1566 4.66675 10.3334 4.66675C10.5102 4.66675 10.6798 4.59651 10.8048 4.47149C10.9298 4.34646 11 4.17689 11 4.00008V3.33341H11.6667C11.8435 3.33341 12.0131 3.40365 12.1381 3.52868C12.2631 3.6537 12.3334 3.82327 12.3334 4.00008V6.00008ZM3.66671 10.0001C3.79856 10.0001 3.92745 9.96098 4.03709 9.88773C4.14672 9.81447 4.23217 9.71035 4.28263 9.58854C4.33309 9.46672 4.34629 9.33267 4.32056 9.20335C4.29484 9.07403 4.23135 8.95525 4.13811 8.86201C4.04488 8.76877 3.92609 8.70528 3.79677 8.67956C3.66745 8.65383 3.5334 8.66704 3.41159 8.71749C3.28977 8.76795 3.18565 8.8534 3.11239 8.96303C3.03914 9.07267 3.00004 9.20156 3.00004 9.33341C3.00004 9.51023 3.07028 9.67979 3.1953 9.80482C3.32033 9.92984 3.4899 10.0001 3.66671 10.0001ZM3.66671 12.6667C3.79856 12.6667 3.92745 12.6276 4.03709 12.5544C4.14672 12.4811 4.23217 12.377 4.28263 12.2552C4.33309 12.1334 4.34629 11.9993 4.32056 11.87C4.29484 11.7407 4.23135 11.6219 4.13811 11.5287C4.04488 11.4354 3.92609 11.3719 3.79677 11.3462C3.66745 11.3205 3.5334 11.3337 3.41159 11.3842C3.28977 11.4346 3.18565 11.5201 3.11239 11.6297C3.03914 11.7393 3.00004 11.8682 3.00004 12.0001C3.00004 12.1769 3.07028 12.3465 3.1953 12.4715C3.32033 12.5965 3.4899 12.6667 3.66671 12.6667Z" fill="black"/>
</svg>
