<svg width="26" height="30" viewBox="0 0 26 30" fill="none" xmlns="http://www.w3.org/2000/svg">
<path fill-rule="evenodd" clip-rule="evenodd" d="M0.217041 5.38946V6.21054C0.229884 6.22756 0.242727 7.2018 0.247008 7.30391C0.251289 7.4911 0.276974 7.66978 0.272693 7.8357C0.272693 8.03991 0.30266 8.21008 0.298379 8.38025C0.298379 8.69508 0.345469 9.12902 0.379717 9.43108C0.418245 9.76291 0.43965 10.1245 0.499583 10.4479C0.559516 10.7712 0.563797 11.1286 0.640854 11.4264C0.717911 11.7242 0.726472 12.09 0.812091 12.3921C0.854901 12.5367 0.863462 12.7197 0.901991 12.8643C0.940519 13.0175 0.961924 13.1791 1.00473 13.3323C1.03898 13.4514 1.07751 13.6854 1.11604 13.7833C1.13744 13.8301 1.22306 14.1874 1.23162 14.2427C1.24018 14.3023 1.32152 14.6086 1.35149 14.6852C1.39858 14.8213 1.44995 14.9702 1.47992 15.1149C1.53557 15.3659 1.67256 15.7147 1.75818 15.9742C1.93798 16.5358 2.16915 17.0889 2.38748 17.6164C2.49878 17.8887 2.62721 18.1397 2.72995 18.395C2.82413 18.6289 2.97396 18.9523 3.09811 19.165C3.15376 19.2586 3.24794 19.4373 3.29075 19.5351C3.34641 19.667 3.43202 19.7861 3.48768 19.9095C3.53477 20.0159 3.62895 20.1605 3.69316 20.2669C3.77022 20.3945 3.83015 20.5051 3.90721 20.6285C4.05276 20.8582 4.19831 21.0965 4.33102 21.3262C4.46801 21.5644 4.64353 21.7772 4.78908 22.0069C5.0759 22.4578 5.42694 22.896 5.75229 23.3172C5.89356 23.5044 6.10333 23.7767 6.25744 23.9341C6.34306 24.0192 6.42868 24.1426 6.5143 24.2404C6.59992 24.334 6.71122 24.4489 6.784 24.5467C6.85677 24.6446 6.97236 24.7509 7.05798 24.836C7.14788 24.9254 7.25062 25.0402 7.33196 25.1381C7.50319 25.338 7.71296 25.5167 7.89704 25.7082C8.0854 25.9081 8.29089 26.0613 8.47925 26.2485C8.57771 26.3506 8.66333 26.4271 8.76607 26.5207C8.86025 26.6058 8.97584 26.7207 9.07002 26.793C9.49811 27.1249 9.87912 27.5035 10.3243 27.8141C10.5341 27.9587 10.7481 28.1502 10.9579 28.3033C11.0692 28.3841 11.1762 28.4607 11.2875 28.533C11.3988 28.6054 11.5102 28.7075 11.6257 28.7713C11.737 28.8351 11.8526 28.9287 11.9596 28.9968C12.0752 29.0733 12.1865 29.1499 12.3064 29.2265C12.5033 29.3541 12.8287 29.5413 12.9914 29.6817H13.017C13.1712 29.5456 13.5008 29.3541 13.6934 29.235C13.9032 29.1031 14.1729 28.9244 14.3741 28.7755C14.5881 28.6139 14.8236 28.4565 15.0376 28.3033C15.2603 28.1502 15.4657 27.9672 15.6798 27.8098C15.8981 27.6481 16.0908 27.4737 16.3048 27.312C16.4846 27.1759 16.7671 26.9462 16.9213 26.793C17.1096 26.6058 17.3237 26.4442 17.5206 26.2527C17.7132 26.0613 17.9102 25.8911 18.1028 25.6997C19.6054 24.2064 20.9924 22.5174 22.0969 20.6242C22.2382 20.3817 22.3623 20.152 22.5036 19.9095C22.632 19.6883 22.7947 19.399 22.8974 19.165C22.9531 19.0374 23.0173 18.9225 23.0815 18.7864C23.1415 18.6587 23.2014 18.5268 23.2656 18.395C23.394 18.1397 23.4882 17.8589 23.6166 17.6079C23.7279 17.3909 23.8435 17.0463 23.9334 16.8038C24.0319 16.5358 24.1304 16.2465 24.2374 15.9742C24.3358 15.7232 24.4386 15.3786 24.5114 15.1149C24.597 14.8128 24.6826 14.5405 24.7597 14.2257C24.9095 13.6258 25.0722 13.0388 25.1877 12.3963C25.2134 12.2517 25.2691 12.056 25.2776 11.9284C25.2862 11.8305 25.329 11.5412 25.3547 11.4306C25.4275 11.1073 25.4446 10.7797 25.5003 10.4436C25.6073 9.82247 25.6544 9.07371 25.7015 8.39302C25.7229 8.05692 25.7571 7.65702 25.7571 7.31242C25.7571 7.21457 25.7742 6.22331 25.7871 6.20629V5.3852C25.7271 5.36818 24.2117 4.25355 24.0362 4.11741C23.8949 4.01105 23.7408 3.89618 23.5995 3.79833C23.4668 3.70474 23.2913 3.56009 23.1586 3.48351C23.0815 3.43672 22.8075 3.23251 22.7262 3.16444C22.6192 3.0751 22.4094 2.92194 22.2895 2.84536C21.9257 2.60712 18.8562 0.314034 18.8006 0.314034C18.7877 0.314034 17.7432 1.09258 17.5976 1.18192C17.4992 1.24148 17.3793 1.32231 17.2809 1.38613C17.1695 1.45845 17.0711 1.51801 16.9598 1.58608C16.8656 1.6499 16.7329 1.71797 16.6216 1.76902C16.5188 1.82007 16.3947 1.9009 16.292 1.94344C16.0479 2.04555 15.8253 2.16892 15.5685 2.26252C15.3416 2.34761 15.0419 2.45822 14.7936 2.51778C14.3613 2.61988 13.5179 2.81984 12.9956 2.75602C12.8929 2.74326 12.6489 2.76879 12.5033 2.75177C12.3492 2.73475 12.1908 2.72199 12.041 2.69221C12.0025 2.6837 11.8355 2.65817 11.8141 2.65817C11.7028 2.64966 11.6771 2.62839 11.5958 2.61563C11.4845 2.60287 11.2918 2.55181 11.1848 2.51778C10.6368 2.36462 10.1659 2.17318 9.69503 1.93919C9.21129 1.69669 8.82172 1.46271 8.38935 1.17341C8.17958 1.03302 7.99978 0.88837 7.7943 0.739468C7.60166 0.599075 7.38761 0.445919 7.21209 0.292763H7.18641L0.217041 5.38946Z" fill="#FFDD00"/>
<path fill-rule="evenodd" clip-rule="evenodd" d="M1.38574 6.00633V6.47006C1.38574 6.75084 1.39858 6.99334 1.39858 7.26136C1.39858 7.52088 1.44139 7.77614 1.44139 8.03991C1.44139 8.31218 1.49705 8.55894 1.49705 8.80569C1.49705 8.94608 1.53986 9.43107 1.56554 9.5587C1.58267 9.63528 1.60407 9.84375 1.60835 9.92458C1.61263 10.0777 1.6426 10.1628 1.65116 10.2947C1.664 10.5032 1.71966 10.801 1.7539 11.0094C1.79671 11.2519 1.82668 11.4817 1.87377 11.7114C1.90374 11.8731 1.99364 12.256 1.99364 12.4134L2.0236 12.4517C2.0236 12.6474 2.19056 13.2047 2.23765 13.4259C2.2719 13.5876 2.32327 13.7407 2.35323 13.8981C2.37892 14.0258 2.47738 14.2512 2.4731 14.3789L2.50307 14.4172C2.50307 14.6129 3.16233 16.4635 3.26935 16.689C3.33785 16.8294 3.43631 17.0761 3.48768 17.225C3.5519 17.4165 3.6418 17.5781 3.71885 17.7568C3.87725 18.1142 4.03564 18.4588 4.21544 18.7906C4.57504 19.4628 4.91323 20.1009 5.31992 20.7221C5.73517 21.356 6.13758 21.909 6.58708 22.5089C7.02374 23.096 7.51176 23.6065 7.99551 24.1426C8.23524 24.4106 8.48782 24.6616 8.74467 24.9126C8.86882 25.036 9.00581 25.1679 9.13852 25.287C9.24982 25.3891 9.42962 25.572 9.54093 25.6529C9.62654 25.7124 9.862 25.9251 9.94333 26.006C10.0461 26.1081 10.2387 26.2697 10.3586 26.3591C10.6497 26.576 10.9194 26.8143 11.2148 27.0355C11.8055 27.4822 12.3835 27.8864 13.0042 28.3033C14.327 27.4227 15.4187 26.5718 16.5873 25.5422C16.8656 25.2955 17.1267 25.0317 17.3922 24.7722C17.5292 24.6361 17.6576 24.5127 17.7903 24.3766C17.8973 24.2702 18.0857 24.0745 18.1756 23.9639C18.4025 23.6746 18.685 23.4108 18.9162 23.1173C19.1388 22.8365 19.4213 22.5259 19.6183 22.2324C19.828 21.9218 20.0635 21.6368 20.2775 21.3177C20.4958 20.9944 20.6928 20.688 20.9025 20.352C21.0866 20.0584 21.3392 19.6585 21.4847 19.3479C21.5532 19.199 21.6817 18.9906 21.763 18.8332C21.8529 18.6672 21.9514 18.4715 22.0241 18.3014C22.1055 18.1142 22.1997 17.944 22.281 17.7611C22.3581 17.5824 22.4308 17.3867 22.5164 17.2037C22.6706 16.8804 22.8589 16.4167 22.9659 16.0636C23.0858 15.6679 23.2399 15.2893 23.3641 14.8724C23.4197 14.6894 23.4839 14.4427 23.5482 14.264C23.5781 14.1874 23.7108 13.6982 23.7065 13.6301L23.728 13.5876L23.8393 13.1366L23.9805 12.4261L24.0105 12.3878C24.0105 12.2985 24.0533 12.1071 24.0747 12.0135C24.1047 11.8731 24.1175 11.7922 24.1389 11.6391C24.1732 11.4136 24.2374 11.1286 24.2716 10.8946C24.3102 10.6478 24.353 10.3585 24.3701 10.1203C24.3744 10.0522 24.4001 9.81396 24.4172 9.72888C24.4429 9.59699 24.4343 9.45235 24.46 9.32046C24.5028 9.06946 24.4857 8.76314 24.5285 8.51639C24.5585 8.35898 24.5799 7.85697 24.5799 7.69105C24.5799 7.43154 24.6055 7.1465 24.6055 6.84444C24.6055 6.56791 24.6184 6.26585 24.6184 5.9723C24.4471 5.88296 24.0704 5.5809 23.8949 5.44902C23.668 5.27884 23.4069 5.07889 23.1757 4.92148C22.9445 4.76832 22.6791 4.56837 22.4522 4.3982C22.2082 4.21526 21.9642 4.04934 21.7245 3.8664C21.4847 3.68347 18.822 1.752 18.822 1.752C18.8006 1.752 18.3083 2.10936 18.2398 2.15616C18.0343 2.2923 17.8459 2.41142 17.6362 2.53905C17.4264 2.66668 17.2209 2.77304 17.0026 2.89216C16.7757 3.01554 16.5488 3.09637 16.3176 3.21124C16.0779 3.33036 15.8553 3.38141 15.6027 3.48351C15.3502 3.58136 15.1061 3.62816 14.8407 3.70899C14.5882 3.78557 14.2928 3.8111 14.0059 3.86215C13.7148 3.9132 13.3981 3.92596 13.0641 3.92596H12.8587C12.2122 3.92596 11.6557 3.83237 11.1292 3.70474C10.6497 3.58562 10.0675 3.41119 9.66079 3.20698C9.54521 3.15168 9.44675 3.11764 9.33116 3.05808C9.21986 2.99852 9.11283 2.95172 8.99725 2.89642C8.77892 2.7858 8.57772 2.66668 8.37651 2.54756C8.17103 2.42844 7.97838 2.30081 7.78146 2.16892C7.72153 2.12638 7.2121 1.75625 7.20782 1.75625C7.18213 1.75625 4.54079 3.67921 4.28822 3.87066C4.00996 4.07912 1.38574 5.95103 1.38574 6.00633Z" fill="#034EA2"/>
<path fill-rule="evenodd" clip-rule="evenodd" d="M7.73004 13.328H6.22315V12.6346L6.05191 12.4602H5.25138L5.07586 12.6346V15.2808L5.25138 15.451H6.05191L6.22315 15.2808V14.6256H7.73004V15.8083L6.85673 16.6762H4.44228L3.56897 15.8083V12.1071L4.44228 11.2307H6.85673L7.73004 12.1071V13.328ZM12.3363 11.2307V12.4602H12.0581L13.261 15.451H13.5906V16.6805H11.4887V15.451H11.6642L11.5872 15.2085H10.1359L10.0503 15.451H10.2258V16.6805H8.12816V15.451H8.45779L9.66073 12.4602H9.42528V11.2307H12.3363ZM11.2104 14.1662H10.5126L10.8636 13.3025L11.2104 14.1662ZM18.137 14.2172V15.8126L17.2637 16.6805H13.8732V15.451H14.2028V12.4602H13.8732V11.2307H17.2637L18.137 12.1071V13.4982L17.7774 13.8556L18.137 14.2172ZM16.4546 14.4767L16.6301 14.6469V15.2808L16.4546 15.451H15.7055V14.4767H16.4546ZM16.6301 12.6346L16.4546 12.4602H15.7055V13.2515H16.4546L16.6301 13.077V12.6346ZM22.251 15.8041V12.4517H22.5763V11.2307H20.2775V12.4517H20.7484V15.2808L20.5729 15.451H20.1833L20.0078 15.2765V14.4937H18.5009V15.8126L19.3742 16.6805H21.3777L22.251 15.8041Z" fill="#FFED00"/>
<path fill-rule="evenodd" clip-rule="evenodd" d="M5.91071 4.34715L6.18041 5.11293L6.99379 5.1342L6.35165 5.62345L6.58282 6.39773L5.91071 5.94252L5.23861 6.39773L5.47406 5.62345L4.82764 5.1342L5.64101 5.11293L5.91071 4.34715Z" fill="#FFED00"/>
<path fill-rule="evenodd" clip-rule="evenodd" d="M9.5024 4.38969L9.7721 5.15547L10.5855 5.17248L9.93905 5.66599L10.1702 6.44028L9.5024 5.98506L8.83029 6.44028L9.06146 5.66599L8.41504 5.17248L9.22842 5.15547L9.5024 4.38969Z" fill="#FFED00"/>
<path fill-rule="evenodd" clip-rule="evenodd" d="M13.0042 4.43223L13.2739 5.19375L14.0873 5.21503L13.4409 5.70853L13.6721 6.48282L13.0042 6.02335L12.3321 6.48282L12.5633 5.70853L11.9169 5.21503L12.7302 5.19375L13.0042 4.43223Z" fill="#FFED00"/>
<path fill-rule="evenodd" clip-rule="evenodd" d="M16.6002 4.43223L16.8699 5.19375L17.6833 5.21503L17.0368 5.70853L17.268 6.48282L16.6002 6.02335L15.9281 6.48282L16.1592 5.70853L15.5128 5.21503L16.3262 5.19375L16.6002 4.43223Z" fill="#FFED00"/>
<path fill-rule="evenodd" clip-rule="evenodd" d="M20.1619 4.43223L20.4316 5.19375L21.245 5.21503L20.5986 5.70853L20.834 6.48282L20.1619 6.02335L19.4898 6.48282L19.721 5.70853L19.0789 5.21503L19.8922 5.19375L20.1619 4.43223Z" fill="#FFED00"/>
<path fill-rule="evenodd" clip-rule="evenodd" d="M4.2154 6.53387L4.48938 7.29965L5.30276 7.32093L4.65634 7.81018L4.88751 8.58446L4.2154 8.12925L3.54758 8.58446L3.77875 7.81018L3.13232 7.32093L3.9457 7.29965L4.2154 6.53387Z" fill="#FFED00"/>
<path fill-rule="evenodd" clip-rule="evenodd" d="M7.78145 6.53387L8.05115 7.29965L8.86453 7.32093L8.21811 7.81018L8.44928 8.58446L7.78145 8.12925L7.10934 8.58446L7.34051 7.81018L6.69409 7.32093L7.50747 7.29965L7.78145 6.53387Z" fill="#FFED00"/>
<path fill-rule="evenodd" clip-rule="evenodd" d="M7.78145 8.84398L8.05115 9.6055L8.86453 9.62678L8.21811 10.1203L8.44928 10.8946L7.78145 10.4351L7.10934 10.8946L7.34051 10.1203L6.69409 9.62678L7.50747 9.6055L7.78145 8.84398Z" fill="#FFED00"/>
<path fill-rule="evenodd" clip-rule="evenodd" d="M11.3432 6.53387L11.6129 7.29965L12.4263 7.32093L11.7799 7.81018L12.011 8.58446L11.3432 8.12925L10.6711 8.58446L10.9023 7.81018L10.2559 7.32093L11.0692 7.29965L11.3432 6.53387Z" fill="#FFED00"/>
<path fill-rule="evenodd" clip-rule="evenodd" d="M11.3432 8.84398L11.6129 9.6055L12.4263 9.62678L11.7799 10.1203L12.011 10.8946L11.3432 10.4351L10.6711 10.8946L10.9023 10.1203L10.2559 9.62678L11.0692 9.6055L11.3432 8.84398Z" fill="#FFED00"/>
<path fill-rule="evenodd" clip-rule="evenodd" d="M14.905 6.53387L15.1747 7.29965L15.9881 7.32093L15.3416 7.81018L15.5771 8.58446L14.905 8.12925L14.2329 8.58446L14.464 7.81018L13.8219 7.32093L14.6353 7.29965L14.905 6.53387Z" fill="#FFED00"/>
<path fill-rule="evenodd" clip-rule="evenodd" d="M14.905 8.84398L15.1747 9.6055L15.9881 9.62678L15.3416 10.1203L15.5771 10.8946L14.905 10.4351L14.2329 10.8946L14.464 10.1203L13.8219 9.62678L14.6353 9.6055L14.905 8.84398Z" fill="#FFED00"/>
<path fill-rule="evenodd" clip-rule="evenodd" d="M18.4282 6.53387L18.6979 7.29965L19.5155 7.32093L18.8691 7.81018L19.1003 8.58446L18.4282 8.12925L17.7561 8.58446L17.9915 7.81018L17.3451 7.32093L18.1585 7.29965L18.4282 6.53387Z" fill="#FFED00"/>
<path fill-rule="evenodd" clip-rule="evenodd" d="M18.4282 8.84398L18.6979 9.6055L19.5155 9.62678L18.8691 10.1203L19.1003 10.8946L18.4282 10.4351L17.7561 10.8946L17.9915 10.1203L17.3451 9.62678L18.1585 9.6055L18.4282 8.84398Z" fill="#FFED00"/>
<path fill-rule="evenodd" clip-rule="evenodd" d="M21.9899 6.53387L22.2639 7.29965L23.0773 7.32093L22.4309 7.81018L22.662 8.58446L21.9899 8.12925L21.3221 8.58446L21.5533 7.81018L20.9069 7.32093L21.7202 7.29965L21.9899 6.53387Z" fill="#FFED00"/>
<path fill-rule="evenodd" clip-rule="evenodd" d="M21.9899 8.84398L22.2639 9.6055L23.0773 9.62678L22.4309 10.1203L22.662 10.8946L21.9899 10.4351L21.3221 10.8946L21.5533 10.1203L20.9069 9.62678L21.7202 9.6055L21.9899 8.84398Z" fill="#FFED00"/>
<path fill-rule="evenodd" clip-rule="evenodd" d="M4.2154 8.84398L4.48938 9.6055L5.30276 9.62678L4.65634 10.1203L4.88751 10.8946L4.2154 10.4351L3.54758 10.8946L3.77875 10.1203L3.13232 9.62678L3.9457 9.6055L4.2154 8.84398Z" fill="#FFED00"/>
<path fill-rule="evenodd" clip-rule="evenodd" d="M5.94489 17.2378L6.21887 17.9993L7.03225 18.0206L6.38583 18.5141L6.617 19.2884L5.94489 18.8289L5.27707 19.2884L5.50824 18.5141L4.86182 18.0206L5.67519 17.9993L5.94489 17.2378Z" fill="#FFED00"/>
<path fill-rule="evenodd" clip-rule="evenodd" d="M9.48958 17.2378L9.75928 17.9993L10.5727 18.0206L9.92624 18.5141L10.1574 19.2884L9.48958 18.8289L8.81747 19.2884L9.04864 18.5141L8.40222 18.0206L9.21988 17.9993L9.48958 17.2378Z" fill="#FFED00"/>
<path fill-rule="evenodd" clip-rule="evenodd" d="M13.0128 17.2378L13.2825 17.9993L14.0958 18.0206L13.4537 18.5141L13.6849 19.2884L13.0128 18.8289L12.3407 19.2884L12.5761 18.5141L11.9297 18.0206L12.7431 17.9993L13.0128 17.2378Z" fill="#FFED00"/>
<path fill-rule="evenodd" clip-rule="evenodd" d="M16.613 17.2378L16.887 17.9993L17.7003 18.0206L17.0539 18.5141L17.2851 19.2884L16.613 18.8289L15.9452 19.2884L16.1763 18.5141L15.5299 18.0206L16.3433 17.9993L16.613 17.2378Z" fill="#FFED00"/>
<path fill-rule="evenodd" clip-rule="evenodd" d="M20.1748 17.2378L20.4487 17.9993L21.2621 18.0206L20.6157 18.5141L20.8469 19.2884L20.1748 18.8289L19.5069 19.2884L19.7381 18.5141L19.0917 18.0206L19.9051 17.9993L20.1748 17.2378Z" fill="#FFED00"/>
<path fill-rule="evenodd" clip-rule="evenodd" d="M18.3939 19.2373L18.6678 20.0031L19.4812 20.0201L18.8348 20.5136L19.066 21.2879L18.3939 20.8327L17.726 21.2879L17.9572 20.5136L17.3108 20.0201L18.1242 20.0031L18.3939 19.2373Z" fill="#FFED00"/>
<path fill-rule="evenodd" clip-rule="evenodd" d="M14.8322 19.2373L15.1062 20.0031L15.9196 20.0201L15.2732 20.5136L15.5043 21.2879L14.8322 20.8327L14.1644 21.2879L14.3956 20.5136L13.7491 20.0201L14.5625 20.0031L14.8322 19.2373Z" fill="#FFED00"/>
<path fill-rule="evenodd" clip-rule="evenodd" d="M11.2705 19.2373L11.5402 20.0031L12.3535 20.0201L11.7071 20.5136L11.9426 21.2879L11.2705 20.8327L10.5983 21.2879L10.8295 20.5136L10.1874 20.0201L11.0008 20.0031L11.2705 19.2373Z" fill="#FFED00"/>
<path fill-rule="evenodd" clip-rule="evenodd" d="M7.7087 19.2373L7.97839 20.0031L8.79177 20.0201L8.14535 20.5136L8.37652 21.2879L7.7087 20.8327L7.03659 21.2879L7.26776 20.5136L6.62134 20.0201L7.43472 20.0031L7.7087 19.2373Z" fill="#FFED00"/>
<path fill-rule="evenodd" clip-rule="evenodd" d="M9.48958 21.2411L9.75928 22.0026L10.5727 22.0239L9.92624 22.5132L10.1574 23.2917L9.48958 22.8322L8.81747 23.2917L9.04864 22.5132L8.40222 22.0239L9.21988 22.0026L9.48958 21.2411Z" fill="#FFED00"/>
<path fill-rule="evenodd" clip-rule="evenodd" d="M12.9914 21.2411L13.2654 22.0026L14.0788 22.0239L13.4323 22.5132L13.6635 23.2917L12.9914 22.8322L12.3236 23.2917L12.5547 22.5132L11.9083 22.0239L12.7217 22.0026L12.9914 21.2411Z" fill="#FFED00"/>
<path fill-rule="evenodd" clip-rule="evenodd" d="M16.6345 21.2411L16.9042 22.0026L17.7176 22.0239L17.0711 22.5132L17.3023 23.2917L16.6345 22.8322L15.9624 23.2917L16.1935 22.5132L15.5471 22.0239L16.3605 22.0026L16.6345 21.2411Z" fill="#FFED00"/>
<path fill-rule="evenodd" clip-rule="evenodd" d="M14.815 23.1853L15.0847 23.9469L15.8981 23.9681L15.2517 24.4574L15.4828 25.2359L14.815 24.7765L14.1429 25.2359L14.3741 24.4574L13.7277 23.9681L14.541 23.9469L14.815 23.1853Z" fill="#FFED00"/>
<path fill-rule="evenodd" clip-rule="evenodd" d="M11.2875 23.1853L11.5615 23.9469L12.3749 23.9681L11.7285 24.4574L11.9597 25.2359L11.2875 24.7765L10.6197 25.2359L10.8509 24.4574L10.2045 23.9681L11.0178 23.9469L11.2875 23.1853Z" fill="#FFED00"/>
<path fill-rule="evenodd" clip-rule="evenodd" d="M12.9914 25.1466L13.2654 25.9081L14.0788 25.9294L13.4323 26.4229L13.6635 27.1972L12.9914 26.7377L12.3236 27.1972L12.5547 26.4229L11.9083 25.9294L12.7217 25.9081L12.9914 25.1466Z" fill="#FFED00"/>
</svg>
