<svg width="20" height="28" viewBox="0 0 20 28" fill="none" xmlns="http://www.w3.org/2000/svg">
<mask id="mask0" mask-type="alpha" maskUnits="userSpaceOnUse" x="0" y="0" width="20" height="28">
<path d="M0.399994 0.799988H19.6V27.2H0.399994V0.799988Z" fill="white"/>
</mask>
<g mask="url(#mask0)">
<path fill-rule="evenodd" clip-rule="evenodd" d="M0.713531 4.78011H19.4321V1.65399H0.713531V4.78011Z" stroke="#1A1919" stroke-width="0.309055"/>
<path fill-rule="evenodd" clip-rule="evenodd" d="M9.51996 14.9817L9.40203 15.0479V10.3787H10.615L10.614 14.3754L10.126 14.6455C9.85759 14.7941 9.58485 14.9455 9.51996 14.9817ZM9.35711 23.4746C9.38687 23.4697 9.39159 23.0768 9.39713 20.1224L9.40351 16.7756L11.1987 15.774C12.1861 15.2231 13.0046 14.769 13.0175 14.7647C13.0338 14.7594 13.041 15.8762 13.041 18.4149C13.041 21.622 13.0451 22.0744 13.0742 22.0854C13.0933 22.0924 13.3844 21.9468 13.7537 21.7456L14.4 21.3933L14.4118 13.979L16.1072 13.0306L16.1189 11.3056L16.0344 11.3401C15.9879 11.3592 15.6088 11.5667 15.192 11.8016C14.775 12.0363 14.4288 12.2284 14.4225 12.2284C14.4162 12.2284 14.4112 11.8173 14.4112 11.3146V10.4008H16.7697V9.05755H13.041V13.0117L12.5076 13.3107L11.974 13.6097L11.9626 9.05755H6.27919L6.33825 9.14915C6.37069 9.19953 6.60896 9.50179 6.86794 9.82071L7.33865 10.4008H8.03184V15.8145L4.60621 17.7294L4.59494 9.05755H3.22484V20.1777H3.28667C3.32687 20.1777 4.16396 19.7255 5.68453 18.8823L8.02065 17.5869L8.04311 22.7598L8.68325 23.1201C9.03529 23.318 9.33854 23.4777 9.35711 23.4746ZM9.99752 25.5064C9.97275 25.5064 8.12787 24.4827 5.89794 23.2316L1.84346 20.957L1.83218 7.58215H18.1624L18.1512 20.9574L14.0969 23.232C11.8672 24.483 10.0225 25.5064 9.99752 25.5064Z" fill="#EFD293"/>
<path fill-rule="evenodd" clip-rule="evenodd" d="M16.3095 3.79473H19.1061V2.51757H13.513V3.79473H16.3095ZM3.68564 3.79473H6.48213V2.51757H0.889061V3.79473H3.68564ZM12.0978 3.02405H11.716V2.80307C11.716 2.66734 11.7276 2.55472 11.7463 2.51105C11.763 2.47182 11.8133 2.40821 11.8581 2.36962C11.903 2.33102 11.9752 2.29306 12.0188 2.28499C12.0622 2.27702 12.1334 2.27702 12.177 2.28499C12.2204 2.29306 12.2926 2.33102 12.3375 2.36962C12.3823 2.40821 12.4326 2.47182 12.4493 2.51105C12.4679 2.55472 12.4797 2.66734 12.4797 2.80307V3.02405H12.0978ZM11.4959 4.30041C11.517 4.30085 11.5607 4.28934 11.593 4.27484C11.6255 4.26044 11.6663 4.2213 11.684 4.18795C11.7076 4.14301 11.716 4.03809 11.716 3.78476V3.44237H12.4797V3.81675C12.4797 4.16014 12.4834 4.19475 12.524 4.23461C12.5484 4.25844 12.5941 4.28436 12.6256 4.29215C12.657 4.29985 12.7133 4.29378 12.7508 4.27865C12.7882 4.26343 12.8339 4.2222 12.8524 4.18705C12.881 4.13305 12.8851 4.00321 12.8795 3.34787L12.8728 2.57266L12.8093 2.43802C12.774 2.36327 12.6993 2.25863 12.6408 2.20245C12.5831 2.14682 12.4752 2.07388 12.401 2.04036C12.2891 1.98962 12.2357 1.97938 12.0866 1.97956C11.9372 1.97966 11.8832 1.99026 11.7669 2.04226C11.6807 2.08077 11.5885 2.14501 11.5274 2.20907C11.4728 2.26633 11.4082 2.35168 11.3838 2.39888C11.3596 2.446 11.3283 2.53705 11.3144 2.6012C11.2987 2.67423 11.2895 2.98328 11.29 3.42697C11.2906 3.97322 11.2976 4.14818 11.3205 4.18859C11.3369 4.21767 11.3744 4.25437 11.4039 4.27049C11.4335 4.28644 11.4749 4.29994 11.4959 4.30041ZM9.52133 4.3004C9.54351 4.30085 9.58963 4.28707 9.62374 4.26986C9.65775 4.25246 9.69758 4.21242 9.71237 4.18061C9.72947 4.14383 9.73927 3.99968 9.73927 3.78268V3.44237H10.1313C10.3873 3.44237 10.5437 3.4334 10.5823 3.4161C10.6146 3.40169 10.6556 3.36246 10.6731 3.32912C10.6907 3.29577 10.7052 3.25355 10.7052 3.23534C10.7052 3.21713 10.693 3.17627 10.6783 3.14455C10.6635 3.11275 10.6236 3.07271 10.5896 3.0554C10.543 3.03175 10.4307 3.02405 10.1335 3.02405H9.73927V2.83134C9.73927 2.67912 9.74851 2.62385 9.78317 2.56822C9.80729 2.52944 9.85729 2.48224 9.89426 2.46357C9.94741 2.43675 10.0429 2.42942 10.3458 2.42942C10.6342 2.42942 10.7452 2.42162 10.7917 2.39807C10.8257 2.38076 10.8657 2.34071 10.8804 2.309C10.8952 2.27729 10.9073 2.23235 10.9073 2.20934C10.9073 2.18623 10.8952 2.14138 10.8804 2.10958C10.8657 2.07787 10.8257 2.03773 10.7917 2.02043C10.7454 1.99696 10.6358 1.98908 10.3571 1.98908C10.0396 1.98908 9.96284 1.99596 9.83798 2.03547C9.75747 2.06102 9.64934 2.11348 9.59758 2.15208C9.5461 2.19067 9.4754 2.26361 9.44074 2.31426C9.4058 2.36518 9.36338 2.47263 9.34554 2.55545C9.32114 2.66798 9.31338 2.88099 9.31365 3.42035C9.31393 3.97268 9.32077 4.148 9.34378 4.18859C9.36014 4.21767 9.39767 4.25437 9.42724 4.27049C9.45673 4.28644 9.49915 4.29994 9.52133 4.3004ZM7.89734 3.02405H7.51544V2.80307C7.51544 2.66734 7.52718 2.55472 7.54585 2.51105C7.56248 2.47182 7.61286 2.40821 7.65768 2.36962C7.70241 2.33102 7.77478 2.29306 7.81822 2.28499C7.86166 2.27702 7.93301 2.27702 7.97636 2.28499C8.01989 2.29306 8.09217 2.33102 8.13709 2.36962C8.18182 2.40821 8.23219 2.47182 8.24892 2.51105C8.2675 2.55472 8.27924 2.66734 8.27924 2.80307V3.02405H7.89734ZM7.29538 4.30041C7.31645 4.30085 7.36017 4.28934 7.39261 4.27484C7.42486 4.26044 7.46581 4.2213 7.48346 4.18795C7.50712 4.14301 7.51544 4.03809 7.51544 3.78476V3.44237H8.27924V3.81675C8.27924 4.16014 8.28284 4.19475 8.32351 4.23461C8.34791 4.25844 8.39357 4.28436 8.42508 4.29215C8.45651 4.29985 8.51279 4.29378 8.55013 4.27865C8.58766 4.26343 8.63341 4.2222 8.65199 4.18705C8.68036 4.13305 8.68461 4.00321 8.67897 3.34787L8.67232 2.57266L8.60882 2.43802C8.57352 2.36327 8.49884 2.25863 8.44043 2.20245C8.38257 2.14682 8.27471 2.07388 8.20058 2.04036C8.08866 1.98962 8.03533 1.97938 7.88616 1.97956C7.7367 1.97966 7.68282 1.99026 7.56637 2.04226C7.48032 2.08077 7.38799 2.14501 7.32699 2.20907C7.27227 2.26633 7.20767 2.35168 7.18336 2.39888C7.15896 2.446 7.12781 2.53705 7.11386 2.6012C7.09805 2.67423 7.08899 2.98328 7.08946 3.42697C7.09001 3.97322 7.09713 4.14818 7.12005 4.18859C7.13631 4.21767 7.17402 4.25437 7.20341 4.27049C7.23299 4.28644 7.2744 4.29994 7.29538 4.30041ZM9.9975 5.44617H0.394867V0.799988H19.6003V5.44617H9.9975Z" fill="#00A7D3"/>
<path fill-rule="evenodd" clip-rule="evenodd" d="M9.99766 25.5065C10.0226 25.5065 11.8673 24.483 14.0971 23.2321L18.1514 20.9574L18.1625 7.58217H1.83232L1.84359 20.957L5.89807 23.2316C8.128 24.4828 9.97289 25.5065 9.99766 25.5065ZM10.0201 27.2C9.99525 27.1987 7.82189 25.982 5.19047 24.4958L0.405929 21.7938L0.394653 6.17291H19.5554L19.544 21.8604L14.8046 24.5313C12.1978 26.0003 10.0448 27.2012 10.0201 27.2Z" fill="#D2AA40"/>
</g>
</svg>
