<svg width="16" height="16" viewBox="0 0 16 16" fill="none" xmlns="http://www.w3.org/2000/svg">
<path fill-rule="evenodd" clip-rule="evenodd" d="M8.00042 0.5C10 0.5 11.8833 1.28155 13.3052 2.70152C16.2315 5.62389 16.2315 10.3784 13.306 13.2992C11.8848 14.7185 10.0015 15.5 8.00117 15.5C6.00006 15.5 4.116 14.7185 2.69413 13.2985C-0.231378 10.3769 -0.231378 5.62239 2.69413 2.70152C4.116 1.2823 6.00006 0.5 8.00042 0.5ZM7.86611 2.00539H8.13548C8.11406 2.00504 8.09331 2.00355 8.07259 2.00205C8.04903 2.00035 8.02553 1.99865 8.00117 1.99865C7.9768 1.99865 7.95307 2.00035 7.9293 2.00205C7.90842 2.00355 7.88752 2.00504 7.86611 2.00539ZM11.001 11.7466H12.6839C13.3157 10.9598 13.7194 10.0509 13.8957 9.1075L12.5016 7.25067L13.414 5.42532C13.1281 4.82361 12.7425 4.25787 12.245 3.76106C11.5555 3.07243 10.7278 2.57488 9.82896 2.28639L7.99967 3.50405L6.17113 2.28564C5.2715 2.57413 4.44464 3.07169 3.75509 3.76106C3.25688 4.25862 2.87121 4.82511 2.58534 5.42757L3.49773 7.25067L2.10363 9.1075C2.28071 10.0539 2.68663 10.9658 3.3214 11.7541H4.99838L5.94003 13.6312C6.59282 13.8702 7.28611 14.0013 8.00042 14.0013C8.71323 14.0013 9.40578 13.8702 10.0571 13.6319L11.001 11.7466ZM6.125 10.25L5 7.01923L7.625 5L10.25 7.01923L9.125 10.25H6.125Z" fill="#6DAAFD"/>
</svg>
