<svg width="41" height="41" viewBox="0 0 41 41" fill="none" xmlns="http://www.w3.org/2000/svg">
<path d="M39.7122 13.64C39.7122 13.64 39.7122 13.64 39.7122 13.5379C38.2736 9.6102 35.6634 6.21912 32.2346 3.82339C28.8057 1.42765 24.7238 0.142891 20.5409 0.142891C16.3581 0.142891 12.2761 1.42765 8.84732 3.82339C5.4185 6.21912 2.80826 9.6102 1.3697 13.5379C1.3697 13.5379 1.3697 13.5379 1.3697 13.64C-0.236839 18.0722 -0.236839 22.9278 1.3697 27.36C1.3697 27.36 1.3697 27.36 1.3697 27.4621C2.80826 31.3898 5.4185 34.7809 8.84732 37.1766C12.2761 39.5723 16.3581 40.8571 20.5409 40.8571C24.7238 40.8571 28.8057 39.5723 32.2346 37.1766C35.6634 34.7809 38.2736 31.3898 39.7122 27.4621C39.7122 27.4621 39.7122 27.4621 39.7122 27.36C41.3187 22.9278 41.3187 18.0722 39.7122 13.64ZM4.69762 24.5833C3.98962 21.9071 3.98962 19.0929 4.69762 16.4167H8.49511C8.16851 19.1291 8.16851 21.8709 8.49511 24.5833H4.69762ZM6.37178 28.6667H9.23011C9.70933 30.4875 10.3943 32.2479 11.2718 33.9137C9.26952 32.5498 7.59575 30.7575 6.37178 28.6667ZM9.23011 12.3333H6.37178C7.57814 10.249 9.23051 8.45716 11.2105 7.08625C10.3542 8.75479 9.68978 10.5151 9.23011 12.3333ZM18.4584 36.2208C15.9508 34.3806 14.1896 31.699 13.4972 28.6667H18.4584V36.2208ZM18.4584 24.5833H12.6193C12.2383 21.8744 12.2383 19.1256 12.6193 16.4167H18.4584V24.5833ZM18.4584 12.3333H13.4972C14.1896 9.30098 15.9508 6.61936 18.4584 4.77917V12.3333ZM34.6284 12.3333H31.7701C31.2909 10.5125 30.6059 8.75213 29.7284 7.08625C31.7307 8.45023 33.4045 10.2425 34.6284 12.3333ZM22.5418 4.77917C25.0494 6.61936 26.8106 9.30098 27.503 12.3333H22.5418V4.77917ZM22.5418 36.2208V28.6667H27.503C26.8106 31.699 25.0494 34.3806 22.5418 36.2208ZM28.3809 24.5833H22.5418V16.4167H28.3809C28.7619 19.1256 28.7619 21.8744 28.3809 24.5833ZM29.7897 33.9137C30.6672 32.2479 31.3521 30.4875 31.8314 28.6667H34.6897C33.4657 30.7575 31.792 32.5498 29.7897 33.9137ZM36.3026 24.5833H32.5051C32.6712 23.2286 32.753 21.8649 32.7501 20.5C32.7524 19.1352 32.6705 17.7715 32.5051 16.4167H36.3026C37.0106 19.0929 37.0106 21.9071 36.3026 24.5833Z" fill="#C1C2C4"/>
</svg>
