<svg width="14" height="16" viewBox="0 0 14 16" fill="none" xmlns="http://www.w3.org/2000/svg">
<path d="M7.00027 15.56C6.52963 14.9804 6.12321 14.5782 5.66522 14.3106C5.17768 14.0256 4.65033 13.8621 4.1742 13.7853C3.57346 13.6882 3.07509 13.6976 2.62309 13.6686C2.18929 13.6407 1.82116 13.5893 1.32726 13.3618C1.18083 13.2943 0.894694 13.1633 0.735623 12.9501C0.61195 12.7844 0.521435 12.5662 0.521435 12.284L0.521362 0.440002H13.4792L13.4791 12.284C13.4791 12.5662 13.3886 12.7843 13.2648 12.9501C13.1058 13.1633 12.8196 13.2943 12.6732 13.3618C12.1793 13.5893 11.8111 13.6407 11.3774 13.6686C10.9254 13.6976 10.427 13.6882 9.82619 13.7853C9.35013 13.8621 8.82279 14.0257 8.33525 14.3106C7.87725 14.5782 7.47083 14.9803 7.00027 15.56Z" fill="#E3BF39"/>
<path d="M0.739624 4.7034H13.2603V0.655701H0.739624V4.7034Z" fill="#CD3529"/>
<path d="M7.00002 15.2098C6.06113 14.0732 5.10995 13.7137 4.21809 13.5659C3.07967 13.3773 2.22739 13.6065 1.29868 13.0935C1.18874 13.0328 0.993617 12.9399 0.865898 12.7281C0.789325 12.601 0.739624 12.4254 0.739624 12.1891V4.91907H13.2603V12.1891C13.2603 12.4254 13.2106 12.601 13.1341 12.7281C13.0064 12.9398 12.8112 13.0328 12.7013 13.0935C11.7726 13.6066 10.9204 13.3773 9.78195 13.5659C8.89001 13.7137 7.93884 14.0732 7.00002 15.2098Z" fill="#2762AC"/>
<path d="M11.2869 3.8281L11.5606 3.79836C11.5913 3.99594 11.6921 4.09476 11.8632 4.09476C11.9477 4.09476 12.0142 4.07451 12.0627 4.03401C12.1112 3.9938 12.1354 3.9436 12.1354 3.88392C12.1354 3.84884 12.1271 3.81883 12.1099 3.7943C12.0931 3.7697 12.0674 3.74952 12.0328 3.73355C11.9982 3.71794 11.9142 3.6912 11.781 3.65391C11.6619 3.62097 11.5744 3.58511 11.5189 3.54646C11.4629 3.50698 11.4176 3.45463 11.3867 3.39395C11.354 3.3312 11.3372 3.26154 11.3377 3.19096C11.3377 3.10676 11.3587 3.03089 11.4007 2.96344C11.442 2.89653 11.5025 2.84324 11.5745 2.81036C11.6483 2.77614 11.7397 2.75881 11.8482 2.75881C12.0113 2.75881 12.1387 2.79931 12.2304 2.88002C12.322 2.96074 12.3704 3.07653 12.3758 3.2269L12.0953 3.24066C12.0828 3.15774 12.0563 3.0997 12.0154 3.06654C11.9747 3.0336 11.9165 3.0172 11.8411 3.0172C11.7657 3.0172 11.7075 3.03154 11.6667 3.06034C11.6259 3.08922 11.6055 3.12515 11.6055 3.16779C11.6055 3.21021 11.6241 3.24551 11.661 3.27445C11.698 3.30333 11.783 3.33492 11.916 3.36921C12.0571 3.40671 12.1587 3.44586 12.2214 3.48686C12.2843 3.52792 12.3322 3.58104 12.3653 3.64614C12.3984 3.71124 12.415 3.79002 12.415 3.88293C12.415 4.01704 12.3698 4.12991 12.2793 4.22146C12.1889 4.31272 12.0474 4.35857 11.8549 4.35857C11.5148 4.35849 11.3253 4.18174 11.2869 3.8281ZM10.7284 4.33097V2.78498H10.9956V4.33097H10.7284ZM10.4573 4.33097H10.1507L10.0288 3.97975H9.47126L9.35618 4.33097H9.05646L9.59999 2.78498H9.89855L10.4573 4.33097ZM9.93814 3.71929L9.74634 3.14569L9.55722 3.71929H9.93814ZM5.69727 4.33097V2.78498H6.01498L6.67734 3.81754V2.78498H6.98161V4.33097H6.65321L6.00154 3.32301V4.33097H5.69727ZM4.25885 3.55709C4.25885 3.73498 4.29418 3.86831 4.36475 3.95715C4.43533 4.04627 4.52288 4.09048 4.62705 4.09048C4.73238 4.09048 4.81942 4.04649 4.88856 3.95822C4.95769 3.86995 4.99222 3.73441 4.99222 3.55167C4.99222 3.37242 4.95863 3.23987 4.89138 3.15431C4.82419 3.06847 4.73606 3.02555 4.62705 3.02555C4.51841 3.02555 4.4297 3.06875 4.36136 3.15538C4.29302 3.24173 4.25885 3.37563 4.25885 3.55709ZM3.98304 3.56757C3.98304 3.38347 4.01158 3.23182 4.06857 3.11246C4.12564 2.99339 4.1999 2.90462 4.29194 2.8463C4.38368 2.78798 4.49522 2.75881 4.62597 2.75881C4.81574 2.75881 4.97048 2.8279 5.08989 2.96644C5.2093 3.10497 5.26918 3.30219 5.26918 3.55816C5.26918 3.81676 5.20598 4.01897 5.07941 4.16449C4.96845 4.29297 4.81762 4.3575 4.62705 4.3575C4.43533 4.3575 4.2837 4.29375 4.17274 4.16663C4.04625 4.0211 3.98304 3.82132 3.98304 3.56757ZM3.0094 4.33097V3.68036L2.52396 2.78491H2.8374L3.14948 3.39666L3.45613 2.78491H3.76394L3.27633 3.6825V4.3309H3.0094V4.33097ZM1.68599 4.32505V2.79176H1.961V4.0646H2.58254V4.32505H1.68599ZM11.4229 2.53743V0.991438H12.3911V1.25304H11.6857V1.59585H12.3411V1.85637H11.6857V2.2769H12.415V2.53743H11.4229ZM10.1817 0.997285H10.4443V1.8347C10.4443 1.96482 10.4474 2.0496 10.454 2.08867C10.4655 2.15697 10.4931 2.20959 10.5371 2.24681C10.581 2.28403 10.6385 2.30271 10.7102 2.30271C10.771 2.30271 10.8204 2.28973 10.8587 2.26335C10.8971 2.23698 10.9249 2.19819 10.9373 2.15369C10.9514 2.10671 10.9587 2.0066 10.9587 1.85245V0.997285H11.2224V1.80932C11.2224 2.01666 11.2109 2.16674 11.1882 2.25908C11.1654 2.35162 11.114 2.42634 11.034 2.4836C10.954 2.54099 10.8487 2.56973 10.7176 2.56973C10.5818 2.56973 10.4756 2.54598 10.3992 2.4985C10.3229 2.45101 10.2674 2.38435 10.2331 2.29822C10.1988 2.21209 10.1817 2.05338 10.1817 1.82201V0.997285H10.1817ZM9.60446 2.16517C9.67172 2.07391 9.70531 1.94058 9.70531 1.76568C9.70531 1.58422 9.67172 1.44975 9.60446 1.36262C9.53728 1.27564 9.45088 1.23193 9.34527 1.23193C9.23944 1.23193 9.15275 1.27564 9.08521 1.36262C9.01745 1.44982 8.98379 1.58372 8.98379 1.76454C8.98379 1.94785 9.0176 2.08382 9.08521 2.17188C9.1529 2.26 9.23691 2.30442 9.33747 2.30442C9.37525 2.30442 9.41079 2.29686 9.44503 2.28232C9.38999 2.2399 9.33581 2.20781 9.28221 2.18514L9.35611 2.00696C9.44279 2.04211 9.52558 2.09501 9.60446 2.16517ZM9.81612 2.34121C9.87947 2.39476 9.95041 2.43886 10.0267 2.47212L9.93005 2.69243C9.88973 2.67762 9.85117 2.65852 9.81504 2.63547C9.80666 2.63019 9.74721 2.58442 9.63806 2.4975C9.55195 2.54178 9.45356 2.56388 9.34303 2.56388C9.15492 2.56388 9.00264 2.49536 8.88655 2.35875C8.77032 2.22193 8.71231 2.024 8.71231 1.76461C8.71231 1.50444 8.77075 1.3063 8.88764 1.1699C9.00466 1.03336 9.15767 0.965271 9.34715 0.965271C9.53468 0.965271 9.68631 1.03365 9.80247 1.1704C9.91849 1.30708 9.97664 1.50515 9.97664 1.76454C9.97664 1.89031 9.96371 1.99855 9.93806 2.08931C9.91256 2.17963 9.87129 2.26488 9.81612 2.34121ZM8.1927 2.53743V0.991438H8.45558V2.53743H8.1927ZM7.24167 1.25304V1.69167H7.38694C7.48476 1.69167 7.55122 1.68504 7.58618 1.67171C7.62122 1.6583 7.65018 1.63428 7.67258 1.59934C7.6949 1.56462 7.70617 1.52184 7.70617 1.47136C7.70617 1.42009 7.69468 1.37681 7.67149 1.34152C7.6483 1.3063 7.6197 1.28313 7.5856 1.27108C7.55165 1.25917 7.47977 1.25304 7.36975 1.25304H7.24167ZM6.97908 2.53743V0.991438H7.40219C7.56003 0.991438 7.66311 0.998782 7.71137 1.01361C7.78895 1.03743 7.85281 1.08869 7.90309 1.16662C7.95337 1.24469 7.97836 1.34508 7.97836 1.46815C7.97836 1.57987 7.95669 1.67356 7.91335 1.74914C7.87001 1.82472 7.81554 1.87791 7.7506 1.90842C7.68558 1.93887 7.57332 1.95434 7.41411 1.95434H7.2416V2.53743H6.97908ZM5.10607 2.53743L5.29888 0.991438H5.71057L5.95755 2.0461L6.20259 0.991438H6.61543L6.79047 2.53743H6.53532L6.36021 1.32056L6.08939 2.5375H5.82376L5.55525 1.32056L5.38022 2.5375H5.10607V2.53743ZM4.36049 2.5303V1.87969L3.88292 0.984308H4.19131L4.49832 1.59599L4.79999 0.984308H5.10282L4.62301 1.8819V2.5303H4.36049ZM3.06792 2.53743V1.0042H3.33043V2.27697H3.95046V2.5375H3.06792V2.53743ZM1.8556 1.76347C1.8556 1.94136 1.89028 2.07477 1.95977 2.16353C2.02927 2.25266 2.11537 2.29686 2.21788 2.29686C2.32147 2.29686 2.40708 2.25287 2.47512 2.1646C2.54317 2.07633 2.57705 1.94079 2.57705 1.75805C2.57705 1.5788 2.54404 1.44626 2.47787 1.3607C2.4117 1.27485 2.32501 1.23193 2.21781 1.23193C2.11082 1.23193 2.02363 1.27507 1.95638 1.36177C1.88919 1.44826 1.8556 1.58216 1.8556 1.76347ZM1.58413 1.77402C1.58413 1.58986 1.61223 1.4382 1.66836 1.31892C1.72449 1.19985 1.7976 1.11101 1.88811 1.05276C1.97841 0.994433 2.08821 0.965271 2.2168 0.965271C2.40346 0.965271 2.55574 1.03436 2.6732 1.17282C2.79074 1.31129 2.84968 1.50865 2.84968 1.76454C2.84968 2.02314 2.78741 2.22535 2.66295 2.37087C2.55379 2.49935 2.40541 2.56388 2.21788 2.56388C2.02927 2.56388 1.88002 2.50014 1.77087 2.37301C1.6464 2.22756 1.58413 2.02778 1.58413 1.77402ZM7.41411 4.33097V2.78498H7.73181L8.39417 3.81754V2.78498H8.69844V4.33097H8.37004L7.71838 3.32301V4.33097H7.41411ZM4.59036 5.63711C6.58603 5.63711 8.21372 7.24364 8.21372 9.21336C8.21372 11.1831 6.58603 12.7896 4.59036 12.7896C2.59468 12.7896 0.966919 11.1831 0.966919 9.21336C0.966919 7.24357 2.59468 5.63711 4.59036 5.63711ZM8.36412 5.63747H10.9673V10.2195H12.9176V12.7895H8.36412V5.63747Z" fill="#E3BF39"/>
<path d="M4.59047 5.85303C6.46565 5.85303 7.99509 7.36251 7.99509 9.21338C7.99509 11.0642 6.46565 12.5737 4.59047 12.5737C2.71529 12.5737 1.18591 11.0642 1.18591 9.21338C1.18591 7.36251 2.71529 5.85303 4.59047 5.85303ZM8.58326 5.85317H10.7483V10.4357H12.6988V12.5733H8.58326V5.85317Z" fill="white"/>
<path d="M6.3812 7.45656C6.26692 7.65399 6.07924 7.70226 5.83074 7.79823C5.8363 7.67688 5.9141 7.60957 5.96149 7.56195C5.89626 7.58155 5.79549 7.58248 5.71299 7.54954C5.77439 7.42491 5.8298 7.41763 5.88304 7.38484C5.81839 7.37714 5.73719 7.34327 5.68807 7.2766C5.82164 7.19019 6.11211 7.14898 6.36264 7.26741C6.70259 7.25051 6.99097 7.33935 6.9987 7.71125C7.00232 7.88921 6.91281 8.06739 6.72564 8.15359C6.52871 8.24436 6.24575 8.26824 6.08011 8.40257C6.0242 8.44792 5.93549 8.59494 5.97507 8.72527C6.19179 8.23017 6.77563 8.61312 7.1931 8.28086C6.93586 8.82773 6.47938 8.60093 6.22762 8.81611C6.1145 8.91279 6.07975 9.02039 6.11724 9.12277C6.25897 8.70003 6.77353 8.98958 7.19382 8.65861C6.98194 9.15272 6.56606 9.01033 6.35086 9.19978C6.27559 9.26601 6.21664 9.41161 6.25688 9.50836C6.50401 9.14801 6.78466 9.34373 7.05787 9.09254C6.93325 9.35521 6.75916 9.43364 6.55328 9.49703C6.44181 9.53132 6.35686 9.6198 6.26901 9.73224C6.1694 9.90037 6.04948 9.97837 5.93527 10.0053C5.84642 10.0263 5.7564 10.012 5.68669 9.98956C5.68366 10.0485 5.81665 10.2281 5.84403 10.2389C5.89821 10.2411 6.01127 10.0632 6.21382 10.2597C6.08712 10.2374 6.04435 10.2568 6.01654 10.3121C6.04832 10.3697 6.12598 10.3574 6.12851 10.3485C6.19035 10.3434 6.33613 10.3408 6.32601 10.4916C6.29842 10.4609 6.18652 10.4774 6.17178 10.5027C6.16311 10.5214 6.17236 10.5786 6.26938 10.5401C6.29235 10.5419 6.39103 10.5103 6.42382 10.6089C6.35108 10.5919 6.3172 10.6127 6.29834 10.6632C6.29321 10.6947 6.31648 10.7295 6.32536 10.7637C6.36798 10.769 6.42635 10.7225 6.45611 10.7046C6.4585 10.757 6.44485 10.8281 6.37636 10.8505C6.41277 10.8941 6.43437 10.9909 6.35787 11.0299C6.3458 10.9785 6.32478 10.9488 6.28679 10.9577C6.24416 11.0535 6.19808 11.0583 6.14744 11.1496C6.16253 11.1645 6.18659 11.1729 6.20328 11.1645C6.26157 11.135 6.28361 11.1305 6.33562 11.1791C6.30896 11.2647 6.28549 11.3088 6.20985 11.3633C6.14072 11.4131 6.19085 11.469 6.19316 11.4925C6.17857 11.5144 6.12772 11.4973 6.09514 11.4943C6.01965 11.5118 5.98475 11.472 5.9612 11.425C5.94163 11.4113 5.92191 11.4171 5.91887 11.4415C5.91381 11.4827 5.98027 11.5752 5.87697 11.6049C5.87155 11.6094 5.87141 11.6314 5.8579 11.6429C5.84663 11.6379 5.83218 11.6195 5.82597 11.6162C5.75633 11.6278 5.74282 11.5602 5.73365 11.5365C5.70916 11.5168 5.6721 11.5223 5.66379 11.5529C5.65773 11.5752 5.66553 11.6124 5.65411 11.6466C5.63902 11.6923 5.57501 11.7096 5.53434 11.7117C5.44867 11.7162 5.41002 11.6397 5.42208 11.5917C5.39694 11.6055 5.35389 11.6395 5.35078 11.7015C5.27825 11.6351 5.32564 11.5512 5.35829 11.52C5.29429 11.5268 5.26633 11.4881 5.24192 11.4711C5.21483 11.4702 5.18008 11.4977 5.17257 11.5126C5.14064 11.4621 5.17459 11.4094 5.21223 11.3935C5.2084 11.3059 5.26344 11.2713 5.34016 11.2317C5.46152 11.1691 5.5589 11.2576 5.59221 11.2991C5.62081 11.2457 5.64003 11.1922 5.70714 11.1408C5.7645 11.0696 5.69731 10.914 5.71638 10.8626C5.59387 10.7954 5.4379 10.7692 5.41226 10.6763C5.31307 10.7627 5.37274 10.6979 5.22429 10.7301C5.18044 10.7423 5.21244 10.8227 5.22458 10.8424C5.13681 10.8428 5.02989 10.7565 4.96445 10.7565C4.88325 10.761 4.83817 10.9306 4.8636 11.0104C4.65656 10.9249 4.77612 10.7091 4.81766 10.6608C4.78623 10.6302 4.72844 10.6219 4.69564 10.645C4.74144 10.5175 4.83926 10.5366 4.91287 10.5398C4.90795 10.41 4.90897 10.4762 4.90882 10.4357C4.8563 10.3086 4.79779 10.2604 4.76759 10.237C4.58794 10.2072 4.40929 10.1619 4.36977 10.2824C4.27492 10.572 4.29956 10.496 4.38819 10.574C4.43927 10.6076 4.42699 10.6785 4.43515 10.7528C4.41384 10.7438 4.39968 10.7465 4.38798 10.7561C4.37288 10.7686 4.36183 10.7928 4.34471 10.8186C4.29667 10.8653 4.2331 10.9212 4.21193 10.9431C4.16859 10.9699 4.142 10.9918 4.1316 11.0171C4.13059 11.0455 4.12683 11.0852 4.15898 11.1195C4.09346 11.1608 4.01537 11.0884 4.00626 11.074C3.96372 11.1247 3.99536 11.1995 4.03234 11.2372C3.99109 11.2452 3.90961 11.2464 3.86121 11.179C3.84784 11.146 3.81628 11.1306 3.76015 11.1491C3.65294 11.1843 3.66197 11.1659 3.60938 11.2059C3.6273 11.2528 3.64854 11.3118 3.6109 11.3533C3.57911 11.3885 3.57557 11.4319 3.50138 11.4245C3.48381 11.44 3.46218 11.4503 3.43897 11.4542C3.43608 11.4419 3.43825 11.4033 3.43449 11.3917C3.40646 11.345 3.38154 11.2872 3.37728 11.2243C3.30634 11.2025 3.29305 11.1736 3.21806 11.1806C3.16619 11.2434 3.03739 11.2991 2.93214 11.2746C2.90967 11.3083 2.90216 11.3395 2.90332 11.3781C2.82169 11.3263 2.78246 11.2106 2.93734 11.1051C2.94153 11.072 2.94074 11.0398 2.92679 11.0205C2.86496 11.0539 2.80745 11.0524 2.76823 11.0002C2.71889 11.0133 2.69743 11.0325 2.66782 11.0579C2.64665 10.9918 2.67648 10.948 2.72091 10.9188C2.80608 10.7696 2.87839 10.8402 2.92622 10.8225C2.93496 10.777 2.94189 10.7582 2.93395 10.7227C2.91639 10.6895 2.77394 10.6852 2.72546 10.7254C2.75884 10.6118 2.93546 10.5431 3.01456 10.577C3.02721 10.5728 3.18397 10.5719 3.18859 10.6983C3.22478 10.7588 3.24949 10.803 3.30172 10.839C3.33711 10.8633 3.36536 10.8698 3.40747 10.841C3.51186 10.7503 3.56344 10.8209 3.67021 10.7327C3.70406 10.7057 3.73379 10.674 3.75848 10.6386C3.76556 10.6225 3.77416 10.5858 3.76556 10.5679C3.65634 10.5106 3.73544 10.2892 3.72258 10.287L3.49676 10.3403C3.45645 10.3192 3.42575 10.3332 3.39353 10.2738C3.26473 10.2393 3.18324 10.3186 3.19487 10.4598C3.04613 10.385 3.12986 10.1951 3.27961 10.1634C3.15037 9.94393 2.7756 10.0865 2.86821 10.3487C2.66803 10.2816 2.68508 10.0424 2.86185 9.90693C2.99109 9.80789 3.23554 9.80048 3.40957 9.97124C3.47039 9.86907 3.5755 9.75962 3.69087 9.8096C3.63142 9.82358 3.55824 9.9219 3.57066 9.99976C3.5919 10.0567 3.80703 9.91463 3.82292 9.8541C4.02505 9.71955 3.99695 9.77246 4.22797 9.77246C4.36204 9.70052 4.50161 9.6715 4.68531 9.7003C4.5797 9.62073 4.4764 9.57453 4.3541 9.57717C4.41427 9.54629 4.47344 9.54551 4.55355 9.55193C4.49858 9.50922 4.39455 9.3279 4.20955 9.33667C4.13817 9.32384 4.11282 9.44312 4.04506 9.43585C4.03321 9.41196 4.02483 9.38808 4.01219 9.36961C3.99702 9.3786 3.92601 9.38993 3.90946 9.3997C3.8373 9.38737 3.5102 9.38622 3.51294 9.32419C3.48376 9.36712 3.50854 9.45988 3.54429 9.50351C3.4675 9.48954 3.39671 9.43956 3.36492 9.39956C3.36651 9.46815 3.36781 9.52105 3.4178 9.56155C3.27528 9.58323 3.13383 9.57232 3.08753 9.44612C3.06195 9.48155 3.02916 9.54358 3.05516 9.60412C2.98213 9.60255 2.94016 9.53239 2.92181 9.50073C2.8927 9.47478 2.80153 9.44797 2.76397 9.44961C2.72185 9.45139 2.68508 9.43485 2.66204 9.48483C2.64008 9.53225 2.66977 9.61481 2.56329 9.64932C2.54848 9.67043 2.53779 9.69274 2.52435 9.71884C2.50694 9.69453 2.50354 9.67841 2.49126 9.65574C2.40667 9.6561 2.37026 9.54537 2.39988 9.48291C2.39721 9.474 2.38298 9.45781 2.37734 9.45011C2.34021 9.52433 2.23546 9.55592 2.18497 9.55057C2.17103 9.57189 2.16713 9.60198 2.17153 9.63855C2.12559 9.61873 2.10572 9.55706 2.11584 9.52226C1.99614 9.42294 2.08131 9.36405 2.1586 9.29717C2.11367 9.30452 1.99715 9.25803 1.9806 9.24206C1.94622 9.2479 1.92296 9.2673 1.91414 9.2673C1.91287 9.25214 1.91536 9.23691 1.92142 9.22293C1.92748 9.20895 1.93691 9.19664 1.94889 9.18708C1.94716 9.00377 2.13657 9.00727 2.27534 9.03543C2.24522 9.01169 2.21574 8.9426 2.23322 8.90659C2.22564 8.86702 2.19956 8.85055 2.15181 8.84071C2.19891 8.78681 2.29174 8.80763 2.30178 8.85718C2.41917 8.82488 2.6119 8.86467 2.66623 9.00655C2.72171 9.00342 3.11194 9.06473 3.31241 8.93839C3.32722 8.89853 3.49337 8.74766 3.54198 8.7108C3.48318 8.70731 3.37525 8.68962 3.34838 8.6005C3.39057 8.62546 3.48405 8.62182 3.50659 8.56228C3.48174 8.5682 3.33263 8.5933 3.29976 8.50082C3.35279 8.53719 3.40321 8.45113 3.38046 8.41369C3.36789 8.34225 3.25765 8.45362 2.95013 8.53341C3.18418 8.27566 3.08232 8.09612 3.04664 8.05948C2.97115 8.05948 2.92231 8.086 2.84459 8.16158C2.82551 8.1096 2.85492 7.94782 2.97505 7.86461C2.88916 7.85848 2.83794 7.93812 2.75978 7.93527C2.70755 7.94019 2.65033 7.94041 2.61356 7.88665C2.66572 7.88971 2.69534 7.8629 2.71614 7.83759C2.72315 7.80073 2.72554 7.7829 2.74294 7.7516C2.72077 7.71952 2.69216 7.67652 2.64867 7.66262C2.59912 7.65036 2.58561 7.62647 2.55801 7.62761C2.50614 7.63061 2.47031 7.689 2.44778 7.73413C2.4006 7.68209 2.42466 7.58697 2.45413 7.56544C2.40999 7.47175 2.47313 7.42776 2.55057 7.35482C2.50181 7.29436 2.44373 7.30826 2.39555 7.33906C2.39453 7.28495 2.43369 7.25785 2.46547 7.23233C2.49235 7.12195 2.63386 7.10634 2.68884 7.11782C2.72944 7.1263 2.80854 7.13707 2.90086 7.18947C2.92008 7.12195 2.89436 7.09365 2.87037 7.07019C2.95114 7.04253 2.9588 7.06206 3.02085 7.11176C3.14864 7.13522 3.1321 7.45343 3.10356 7.50191C3.1516 7.64187 3.30287 7.70604 3.39772 7.82098C3.43832 7.85242 3.63756 7.86704 3.65858 7.99474C3.76296 7.92971 4.26199 7.97983 4.47098 8.04072C4.51454 8.02924 4.56908 7.9722 4.57956 7.9444C4.54589 7.95295 4.47011 7.97484 4.35764 7.93941C4.29197 7.91873 4.24704 7.80073 4.30895 7.78219C4.41095 7.85927 4.54286 7.85485 4.57204 7.77749C4.44642 7.75082 4.29537 7.76579 4.14381 7.78248C3.97874 7.80066 3.81086 7.82098 3.70719 7.76629C3.5737 7.69599 3.55542 7.56522 3.65619 7.42384C3.6182 7.58875 3.71948 7.69627 3.89921 7.69563C4.04816 7.69513 4.11137 7.67667 4.24119 7.67054C4.314 7.66013 4.49504 7.67959 4.58295 7.73278C4.59523 7.66654 4.52928 7.59424 4.49619 7.57585C4.41145 7.529 4.26835 7.59859 4.25152 7.64529C4.18231 7.62084 4.07612 7.47368 4.11058 7.41635C4.10083 7.40088 4.06225 7.31368 4.1363 7.25949C4.15197 7.22826 4.1709 7.18413 4.18715 7.16587C4.24675 7.13564 4.29342 7.15625 4.34463 7.14848C4.50602 6.89615 4.7007 6.92588 4.98814 6.9606C5.0101 6.96324 5.05828 6.92103 5.07981 6.9057C5.0918 6.92602 5.09166 6.94877 5.10315 6.95326C5.16896 6.98142 5.26207 6.94242 5.33662 6.91312C5.33727 6.96017 5.33366 7.01336 5.31705 7.05336C5.30751 7.0811 5.29508 7.10213 5.30137 7.1273C5.31488 7.19668 5.34905 7.25507 5.37477 7.32929C5.38813 7.36808 5.39716 7.38797 5.45047 7.38298C5.45372 7.40665 5.42548 7.45193 5.39254 7.46676C5.39882 7.5777 5.47027 7.70889 5.4483 7.84094C5.47901 7.87153 5.49107 7.87017 5.56829 7.85121C5.53398 7.97869 5.51816 8.02917 5.40243 8.07887C5.36176 8.19701 5.34377 8.26682 5.29631 8.36642C5.36862 8.38653 5.41457 8.35922 5.43985 8.35009C5.4241 8.47216 5.25745 8.51565 5.24827 8.50738C5.22458 8.54061 5.15696 8.69825 5.17445 8.73946C5.19157 8.77989 5.32131 8.75943 5.35331 8.73996C5.34428 8.83786 5.19409 8.90559 5.15964 8.90402C5.15689 8.9483 5.16852 9.10758 5.36451 9.01147C5.37159 9.09974 5.28606 9.13183 5.26951 9.14402C5.30679 9.21368 5.36639 9.29838 5.49215 9.42016C5.57415 9.49952 5.64227 9.61624 5.67355 9.79178C5.7866 9.83791 5.87813 9.84383 5.9542 9.75492C6.07317 9.61581 5.89575 9.31043 5.80314 9.19814C5.6245 8.98153 5.57725 8.51066 5.87481 8.28058C6.31778 7.93805 6.7234 8.123 6.78856 7.78005C6.86015 7.40088 6.45871 7.40958 6.3812 7.45656Z" fill="#E3BF39"/>
<path d="M4.58317 7.19981C4.61409 7.21093 4.67239 7.23782 4.66452 7.25942C4.65592 7.2811 4.58021 7.29842 4.54929 7.29022C4.51837 7.27917 4.50074 7.25086 4.51006 7.22555C4.51945 7.20031 4.55232 7.18869 4.58317 7.19981Z" fill="white" stroke="#E3BF39" stroke-width="2.29886"/>
</svg>
