<svg width="30" height="30" viewBox="0 0 30 30" fill="none" xmlns="http://www.w3.org/2000/svg">
<path d="M14.9863 0.919998C7.232 0.919998 0.920044 7.23196 0.920044 14.9863C0.920044 22.7406 7.232 29.0525 14.9863 29.0525C22.7406 29.0525 29.0526 22.7406 29.0526 14.9863C29.0457 7.23196 22.7406 0.919998 14.9863 0.919998Z" fill="#00285E"/>
<path d="M27.5827 14.9863C27.5827 8.02868 21.9439 2.38981 14.9794 2.38981C8.02183 2.38981 2.3761 8.02868 2.3761 14.9863C2.3761 21.9438 8.02183 27.5896 14.9794 27.5896C21.9439 27.5827 27.5827 21.9438 27.5827 14.9863Z" fill="white"/>
<path d="M23.0084 14.9863C23.0084 10.5562 19.4163 6.9641 14.9863 6.9641C10.5562 6.9641 6.96411 10.5562 6.96411 14.9863C6.96411 19.4163 10.5562 23.0084 14.9863 23.0084C19.4163 23.0084 23.0084 19.4163 23.0084 14.9863Z" fill="#6CADDF"/>
<path fill-rule="evenodd" clip-rule="evenodd" d="M6.33228 14.9794C6.33228 19.7529 10.2129 23.6403 14.9863 23.6403C19.7598 23.6403 23.6404 19.7597 23.6472 14.9794C23.6472 10.2059 19.7598 6.32534 14.9863 6.32534C10.2129 6.32534 6.33228 10.2059 6.33228 14.9794ZM6.81306 14.9863C6.81306 10.4807 10.4807 6.81298 14.9863 6.81298C19.4919 6.81298 23.1596 10.4807 23.1596 14.9863C23.1596 19.4919 19.4919 23.1595 14.9863 23.1595C10.4807 23.1595 6.81306 19.4919 6.81306 14.9863Z" fill="#00285E"/>
<path fill-rule="evenodd" clip-rule="evenodd" d="M1.49707 14.9863C1.49707 22.4246 7.54804 28.4756 14.9864 28.4756C22.4248 28.4756 28.4689 22.4246 28.4757 14.9863C28.4757 7.5479 22.4248 1.49693 14.9864 1.49693C7.54804 1.49693 1.49707 7.5479 1.49707 14.9863ZM1.79242 14.9863C1.79242 7.70586 7.70602 1.7854 14.9864 1.7854C22.2599 1.7854 28.1804 7.70586 28.1804 14.9863C28.1804 22.2598 22.2599 28.1802 14.9864 28.1802C7.71289 28.1802 1.79242 22.2598 1.79242 14.9863Z" fill="#6CADDF"/>
<path d="M3.72914 14.6772L3.50249 14.7321L3.44067 14.4986L3.81843 14.3887H4.01074V15.7074H3.72914V14.6772Z" fill="#6CADDF"/>
<path fill-rule="evenodd" clip-rule="evenodd" d="M4.34045 15.3434C4.34045 15.1786 4.41601 15.0893 4.55337 15.0275C4.45035 14.9657 4.38853 14.8832 4.38853 14.739V14.7321C4.38853 14.533 4.57398 14.375 4.84871 14.375C5.12344 14.375 5.30888 14.533 5.30888 14.7321V14.739C5.30888 14.8764 5.24707 14.9657 5.14404 15.0275C5.27454 15.0962 5.35696 15.1786 5.35696 15.3365V15.3434C5.35696 15.5838 5.14404 15.728 4.85558 15.728C4.56711 15.728 4.34045 15.5701 4.34045 15.3434ZM5.06852 15.3228C5.06852 15.2198 4.97236 15.158 4.84186 15.158C4.71137 15.158 4.61521 15.2198 4.61521 15.3159C4.61521 15.4052 4.69763 15.4808 4.84186 15.4808C4.9861 15.4808 5.06852 15.4121 5.06852 15.3228ZM4.84871 14.6154C4.96547 14.6154 5.03415 14.6909 5.03415 14.7733C5.03415 14.8626 4.9586 14.9313 4.84871 14.9313C4.73881 14.9313 4.66326 14.8626 4.66326 14.7733V14.7665C4.66326 14.6841 4.73195 14.6154 4.84871 14.6154Z" fill="#6CADDF"/>
<path fill-rule="evenodd" clip-rule="evenodd" d="M24.808 15.2541C24.9247 15.2541 25.0072 15.2198 25.0759 15.1648C25.0621 15.2747 25.0072 15.4602 24.808 15.4602C24.6981 15.4602 24.6157 15.4258 24.5195 15.3503L24.3684 15.5701C24.4852 15.6662 24.6088 15.728 24.8011 15.728C25.172 15.728 25.3712 15.4396 25.3712 15.0137V15.0069C25.3712 14.7459 25.3162 14.6085 25.2201 14.5123C25.1171 14.4093 25.0209 14.3681 24.8423 14.3681C24.547 14.3681 24.3409 14.5673 24.3409 14.8283V14.8352C24.3409 15.0961 24.5264 15.2541 24.808 15.2541ZM24.8561 14.6154C25.0003 14.6154 25.0827 14.7047 25.0827 14.8214C25.0827 14.9313 25.0003 15.0137 24.8629 15.0206C24.7256 15.0206 24.6363 14.9382 24.6363 14.8214V14.8145C24.6363 14.6978 24.7118 14.6154 24.8561 14.6154Z" fill="#6CADDF"/>
<path fill-rule="evenodd" clip-rule="evenodd" d="M25.6528 15.419H26.2847V15.7006H26.5594V15.419H26.738V15.1854H26.5594V14.3819H26.319L25.6047 15.2129L25.6528 15.419ZM26.2916 14.7802V15.1854H25.9413L26.2916 14.7802Z" fill="#6CADDF"/>
<path fill-rule="evenodd" clip-rule="evenodd" d="M6.81311 14.9863C6.81311 19.4919 10.4808 23.1595 14.9864 23.1595C19.492 23.1595 23.1596 19.4919 23.1596 14.9863C23.1596 10.4807 19.492 6.813 14.9864 6.813C10.4808 6.813 6.81311 10.4807 6.81311 14.9863ZM7.11532 14.9863C7.11532 10.6455 10.6456 7.1152 14.9864 7.1152C19.3271 7.1152 22.8575 10.6455 22.8575 14.9863C22.8575 19.327 19.3271 22.8573 14.9864 22.8573C10.6456 22.8573 7.11532 19.327 7.11532 14.9863Z" fill="white"/>
<path fill-rule="evenodd" clip-rule="evenodd" d="M14.8352 7.94626C10.8035 7.94626 8.47519 8.47512 8.47519 8.47512C8.47519 8.47512 7.54797 12.0123 8.07683 16.5385C8.29662 18.441 9.84198 22.5276 14.9657 23.9288C20.0895 22.5345 21.6348 18.441 21.8546 16.5385C22.3835 12.0054 21.4563 8.47512 21.4563 8.47512C21.4563 8.47512 19.1279 7.94626 15.0962 7.94626H14.8352Z" fill="#00285E"/>
<path fill-rule="evenodd" clip-rule="evenodd" d="M21.1472 15.4876C21.0991 16.8613 20.8862 20.9685 14.9588 23.2282C9.07958 21.0304 8.77051 16.7789 8.77051 15.4876H21.1472V15.4876Z" fill="#97C1E7"/>
<path fill-rule="evenodd" clip-rule="evenodd" d="M20.9685 15.261C21.1265 11.8543 20.5496 9.09326 20.5496 9.09326C20.5496 9.09326 18.338 8.66743 14.9656 8.66743C11.5864 8.66743 9.3405 9.13447 9.3405 9.13447C9.3405 9.13447 8.72922 11.9093 8.89406 15.2541H20.9685V15.261Z" fill="white"/>
<path d="M15.1443 23.1046L8.88728 15.5426C8.66063 17.1017 9.9244 21.6966 15.1443 23.1046Z" fill="#6CADDF"/>
<path d="M10.7555 15.4945L16.5455 22.4796C17.1293 22.198 17.562 21.9232 17.9741 21.5936L12.919 15.4945H10.7555Z" fill="#6CADDF"/>
<path d="M14.7734 15.5014L19.0524 20.6595C19.4714 20.1856 19.8285 19.7529 20.0826 19.2995L16.937 15.5014H14.7734V15.5014Z" fill="#6CADDF"/>
<path d="M21.0442 15.5014L18.9082 15.4945L20.7008 17.658C21.0099 16.9918 21.0442 15.8723 21.0442 15.5014Z" fill="#6CADDF"/>
<path d="M17.4864 18.3311C17.4727 18.283 17.4315 18.2418 17.3834 18.2212L17.0262 18.0976C16.9919 18.0839 16.9644 18.0907 16.9301 18.0976C16.9026 17.974 16.8339 17.8641 16.7309 17.7885C16.7172 17.7817 16.7034 17.7679 16.6897 17.7611C16.6691 17.7473 16.6416 17.7336 16.6141 17.7198C16.5661 17.6992 16.518 17.6855 16.4768 17.6718C16.3737 17.6374 16.2707 17.6031 16.1402 17.5138C16.0166 17.4245 15.9616 17.3421 15.9067 17.2665C15.893 17.2459 15.8792 17.2322 15.8655 17.2116C15.8311 17.1566 15.7831 17.1086 15.735 17.0674C15.6457 17.0055 15.5358 16.9712 15.4259 16.9712C15.3984 16.9712 15.3778 16.9781 15.3504 16.9781C15.3504 16.9781 15.3504 16.9781 15.3504 16.9712C15.3572 16.93 15.3435 16.8819 15.3229 16.8476L15.1031 16.5522C15.0688 16.511 15.0207 16.4836 14.9657 16.4836C14.9108 16.4836 14.8627 16.5042 14.8352 16.5454L14.6017 16.8407C14.5742 16.875 14.5605 16.9231 14.5674 16.9712C14.5468 16.9712 14.533 16.9643 14.5124 16.9643C14.4025 16.9643 14.2926 16.9987 14.2034 17.0605C14.1896 17.0674 14.1759 17.0811 14.169 17.088C14.1484 17.1086 14.1278 17.1223 14.1072 17.1498C14.0729 17.191 14.0454 17.2253 14.0179 17.2665C13.9492 17.3558 13.8943 17.4382 13.7569 17.5344C13.6333 17.6237 13.5371 17.6512 13.4478 17.6786C13.4272 17.6855 13.4066 17.6924 13.386 17.6992C13.3242 17.713 13.2624 17.7404 13.2075 17.7817C13.0976 17.8572 13.0289 17.974 13.0014 18.1045C12.9671 18.0907 12.9259 18.0907 12.8846 18.0976L12.5344 18.2144C12.4863 18.2281 12.4451 18.2693 12.4245 18.3174C12.4107 18.3655 12.4176 18.4204 12.4451 18.4616L12.658 18.7707C12.6855 18.805 12.7198 18.8256 12.761 18.8394C12.7061 18.9561 12.6923 19.1004 12.7335 19.224C12.7404 19.2377 12.7473 19.2515 12.7473 19.2652C12.7541 19.2927 12.7679 19.3202 12.7885 19.3476C12.816 19.3888 12.8434 19.43 12.8709 19.4644C12.9396 19.5537 13.0014 19.6361 13.0495 19.7941C13.0976 19.9383 13.0907 20.0345 13.0907 20.1306C13.0907 20.1512 13.0907 20.1787 13.0907 20.1993C13.0838 20.268 13.0907 20.3298 13.1182 20.3916C13.1594 20.5152 13.2487 20.6183 13.3517 20.6801C13.338 20.7076 13.3242 20.735 13.3311 20.7625V21.1334C13.3311 21.1883 13.3586 21.2364 13.3998 21.2639C13.441 21.2914 13.4959 21.3051 13.544 21.2914L13.908 21.1883C13.9424 21.1815 13.963 21.154 13.9836 21.1334C14.0935 21.2364 14.2446 21.2845 14.3888 21.2776C14.4163 21.2776 14.4437 21.2708 14.4781 21.2639C14.5262 21.2501 14.5742 21.2364 14.6155 21.2227C14.7185 21.1883 14.8215 21.154 14.9863 21.154C15.1374 21.154 15.2267 21.1883 15.3229 21.2158C15.3435 21.2227 15.3641 21.2295 15.3847 21.2364C15.4465 21.2639 15.5152 21.2708 15.577 21.2708C15.7075 21.2708 15.838 21.2158 15.9342 21.1265C15.9548 21.154 15.9754 21.1677 16.0097 21.1815L16.3669 21.2914C16.4149 21.3051 16.4699 21.2982 16.518 21.2708C16.5592 21.2433 16.5867 21.1952 16.5867 21.1403L16.5935 20.7694C16.5935 20.7419 16.5867 20.7144 16.5729 20.6869C16.6828 20.6251 16.7721 20.5221 16.8064 20.3985C16.8133 20.3847 16.8133 20.371 16.8202 20.3504C16.827 20.3229 16.8339 20.2955 16.8339 20.2611C16.8408 20.213 16.8408 20.165 16.8408 20.1169C16.8408 20.007 16.8408 19.904 16.8889 19.746C16.9369 19.6018 16.9919 19.5262 17.0537 19.4507C17.0674 19.43 17.0812 19.4163 17.0949 19.3957C17.1361 19.3476 17.1705 19.2858 17.1911 19.224C17.2323 19.0935 17.2185 18.9493 17.1567 18.8256C17.1911 18.8119 17.2185 18.7982 17.2391 18.7707L17.4589 18.4685C17.4933 18.4341 17.507 18.3861 17.4864 18.3311Z" fill="#00285E"/>
<path d="M14.7666 19.1347C14.7666 19.0179 14.8628 18.9287 14.9795 18.9287C15.0963 18.9287 15.1924 19.0248 15.1924 19.1347C15.1924 19.2515 15.0963 19.3408 14.9795 19.3408C14.8628 19.3408 14.7666 19.2446 14.7666 19.1347Z" fill="#FFC758"/>
<path fill-rule="evenodd" clip-rule="evenodd" d="M14.9726 17.3627C14.9383 17.2322 14.8559 17.1223 14.7528 17.0605L14.9726 16.7789L15.1787 17.0605C15.0756 17.1292 15.007 17.2322 14.9726 17.3627ZM13.2899 18.5852C13.18 18.5097 13.1044 18.4135 13.0632 18.2968L12.7335 18.4067L12.9327 18.6951C13.0289 18.6265 13.1594 18.5852 13.2899 18.5852ZM13.592 20.6526C13.7225 20.6526 13.8393 20.6114 13.9423 20.529C13.8942 20.6595 13.8942 20.79 13.9354 20.8999L13.592 21.0029V20.6526ZM16.0028 20.5358C16.0509 20.6595 16.0509 20.7831 16.0097 20.8999L16.3462 21.0029L16.3531 20.6526C16.2363 20.6595 16.1127 20.6183 16.0028 20.5358ZM16.9918 18.6951C16.8957 18.6196 16.7789 18.5852 16.6415 18.5921C16.7514 18.5166 16.8339 18.4067 16.8613 18.2968L17.1979 18.4135L16.9918 18.6951ZM14.5468 20.5427C14.3888 20.5427 14.2652 20.4191 14.2652 20.2611C14.2652 20.2405 14.2446 20.2336 14.2309 20.2474C14.1278 20.371 14.0523 20.4809 14.0454 20.6114C14.0385 20.8037 14.2034 20.9617 14.4026 20.9617H14.4369C14.4575 20.9617 14.4712 20.9617 14.4987 20.9548C14.5359 20.9455 14.5721 20.9337 14.6097 20.9214C14.7111 20.8883 14.8229 20.8518 14.9932 20.8518C15.1445 20.8518 15.2403 20.8835 15.3228 20.9108C15.3489 20.9194 15.3737 20.9276 15.3985 20.9342C15.4397 20.9479 15.4877 20.9617 15.5358 20.9617C15.735 20.9617 15.893 20.8037 15.893 20.6114C15.893 20.474 15.8106 20.371 15.7075 20.2474C15.7007 20.2336 15.6801 20.2474 15.6801 20.2611C15.6801 20.4122 15.5496 20.5427 15.3985 20.5427C15.3438 20.5427 15.2817 20.5202 15.2156 20.4962C15.1403 20.4689 15.0599 20.4397 14.9795 20.4397C14.9124 20.4397 14.8309 20.4669 14.7516 20.4933L14.7516 20.4933C14.6765 20.5184 14.6035 20.5427 14.5468 20.5427ZM14.5948 20.3916C14.4643 20.3916 14.3613 20.2886 14.3613 20.1581C14.3613 20.0963 14.3819 20.0482 14.4162 20.007C14.4609 19.9452 14.5553 19.8164 14.6403 19.7005L14.6404 19.7004C14.7254 19.5845 14.8009 19.4816 14.8077 19.4713C14.8215 19.4438 14.8421 19.4507 14.8695 19.4644C14.8901 19.4781 14.9314 19.485 14.9657 19.485C15 19.485 15.0481 19.4713 15.0687 19.4644C15.0825 19.4575 15.1099 19.4438 15.1305 19.4713C15.1443 19.485 15.5426 20.0276 15.5426 20.0276C15.5495 20.0345 15.5564 20.0482 15.5632 20.0619L15.5632 20.0619C15.577 20.0894 15.5838 20.1237 15.5838 20.1581C15.5838 20.2886 15.4808 20.3916 15.3503 20.3916C15.3229 20.3916 15.2954 20.3847 15.2679 20.3779C15.2452 20.3722 15.2236 20.365 15.2012 20.3575C15.142 20.3377 15.0771 20.3161 14.9726 20.3161C14.8481 20.3161 14.7748 20.3416 14.7041 20.3663C14.6928 20.3702 14.6817 20.3741 14.6704 20.3779H14.6635C14.6566 20.3847 14.6498 20.3847 14.6429 20.3847C14.6223 20.3916 14.6085 20.3916 14.5948 20.3916ZM16.1952 19.9795C16.1471 20.1306 15.9891 20.2062 15.838 20.1581C15.8174 20.1512 15.8037 20.165 15.8174 20.1856C15.9067 20.3161 15.9823 20.426 16.1128 20.474C16.2982 20.5358 16.5042 20.4328 16.5592 20.2474C16.5661 20.2336 16.5661 20.2268 16.5661 20.213C16.5698 20.2056 16.5715 20.1961 16.5734 20.1858C16.5749 20.177 16.5766 20.1675 16.5798 20.1581C16.584 20.1143 16.5837 20.0718 16.5834 20.0275V20.0275V20.0275V20.0275V20.0275V20.0275V20.0275V20.0274C16.5828 19.9258 16.5821 19.8145 16.6347 19.6567C16.6837 19.5098 16.7456 19.4276 16.7999 19.3554L16.7999 19.3554C16.8142 19.3364 16.8279 19.3181 16.8408 19.2996C16.8683 19.2652 16.8957 19.224 16.9095 19.1828C16.9713 18.9973 16.8683 18.7913 16.6828 18.7364C16.5532 18.6954 16.4236 18.7426 16.2739 18.797L16.2707 18.7982C16.257 18.805 16.257 18.8188 16.2776 18.8256C16.4287 18.8737 16.5111 19.0317 16.463 19.1828C16.4468 19.2346 16.4062 19.2864 16.3627 19.3419L16.3627 19.3419L16.3627 19.3419L16.3627 19.3419L16.3627 19.3419C16.314 19.404 16.2618 19.4706 16.2364 19.5468C16.2158 19.6052 16.2158 19.6842 16.2158 19.7632C16.2158 19.8421 16.2158 19.9211 16.1952 19.9795ZM16.0715 19.8834C16.0303 20.007 15.8929 20.0757 15.7693 20.0345C15.7144 20.0138 15.6663 19.9795 15.6319 19.9314C15.5811 19.866 15.4801 19.7255 15.3933 19.6047C15.3161 19.4973 15.2502 19.4054 15.2405 19.3957C15.2199 19.3751 15.2336 19.3545 15.2542 19.3339C15.2748 19.3133 15.2954 19.2721 15.3023 19.2446C15.3091 19.2103 15.316 19.1622 15.316 19.1416C15.316 19.1278 15.316 19.1004 15.3435 19.0866C15.3641 19.0798 16.0097 18.8737 16.0097 18.8737C16.0234 18.8668 16.0372 18.8668 16.0509 18.8668C16.0784 18.86 16.1127 18.8668 16.1471 18.8737C16.2707 18.9149 16.3394 19.0454 16.2982 19.169C16.2844 19.1965 16.2707 19.224 16.257 19.2446C16.2473 19.2583 16.2375 19.2715 16.2274 19.2849L16.2274 19.2849C16.1872 19.3386 16.1443 19.3957 16.1059 19.5056C16.0726 19.6108 16.0751 19.6892 16.0773 19.7589L16.0773 19.7589C16.0779 19.7756 16.0784 19.7918 16.0784 19.8078V19.8147V19.8353C16.0784 19.8559 16.0784 19.8696 16.0715 19.8834ZM16.1539 18.235C16.2844 18.3242 16.3119 18.5028 16.2157 18.6265C16.202 18.6402 16.2157 18.6608 16.2363 18.6539C16.3943 18.6127 16.5179 18.5715 16.6003 18.4616C16.7171 18.3036 16.6828 18.0839 16.5248 17.9671C16.5179 17.9602 16.5042 17.9534 16.4904 17.9465C16.4767 17.9328 16.463 17.9259 16.4355 17.919C16.3975 17.903 16.359 17.8905 16.3186 17.8775C16.2204 17.8456 16.1117 17.8104 15.9753 17.713C15.8492 17.6198 15.7888 17.5353 15.7346 17.4596L15.7346 17.4596L15.7346 17.4596C15.7209 17.4405 15.7076 17.4219 15.6937 17.4039C15.6731 17.3696 15.6388 17.3352 15.5976 17.3009C15.4396 17.1841 15.2129 17.2185 15.103 17.3764C15.0275 17.4863 15.0275 17.6237 15.0344 17.7817C15.0344 17.7954 15.055 17.8023 15.0618 17.7817C15.1511 17.658 15.3297 17.6305 15.4602 17.7198C15.5045 17.7515 15.5415 17.805 15.5807 17.8616C15.6264 17.9278 15.6751 17.9982 15.7418 18.0426C15.8049 18.1018 15.8997 18.1338 15.9872 18.1633C16.0521 18.1852 16.113 18.2057 16.1539 18.235ZM16.0234 18.3311C16.1333 18.4067 16.1539 18.5578 16.0783 18.6608C16.044 18.702 15.9959 18.7363 15.9341 18.7432C15.8788 18.7616 15.7772 18.7942 15.6712 18.8281C15.5007 18.8827 15.3192 18.9408 15.3022 18.9493C15.2748 18.963 15.261 18.9424 15.2473 18.9218C15.2335 18.9012 15.2061 18.8737 15.1786 18.8531C15.158 18.8394 15.1099 18.8188 15.0893 18.8119C15.0858 18.8107 15.082 18.8097 15.0782 18.8088L15.0782 18.8088L15.0782 18.8087L15.0782 18.8087L15.0782 18.8087C15.06 18.804 15.0412 18.7991 15.0412 18.7707V18.077C15.0412 18.0701 15.0429 18.0633 15.0447 18.0564C15.0464 18.0495 15.0481 18.0427 15.0481 18.0358C15.055 18.0014 15.0687 17.974 15.0893 17.9465C15.1649 17.8366 15.316 17.816 15.419 17.8916L15.419 17.8916C15.4396 17.9122 15.4602 17.9328 15.4739 17.9534C15.485 17.9676 15.4953 17.9825 15.5061 17.9981L15.5061 17.9982L15.5061 17.9982C15.5422 18.0503 15.5832 18.1097 15.6731 18.1731C15.7676 18.2399 15.8396 18.2616 15.9073 18.282C15.9233 18.2868 15.939 18.2915 15.9547 18.2968H15.9616C15.965 18.2968 15.9684 18.2985 15.9719 18.3002C15.9753 18.3019 15.9788 18.3036 15.9822 18.3036C16.0028 18.3105 16.0165 18.3243 16.0234 18.3311ZM14.4781 17.7404C14.6017 17.6512 14.7803 17.6786 14.8765 17.8023C14.8902 17.816 14.9108 17.816 14.9108 17.7954C14.9177 17.6374 14.9177 17.5001 14.8421 17.3902C14.7322 17.2322 14.5056 17.1978 14.3476 17.3146C14.3339 17.3215 14.327 17.3283 14.3201 17.3352L14.3201 17.3352C14.3064 17.3421 14.2926 17.3558 14.2789 17.3764C14.2512 17.408 14.227 17.4408 14.2019 17.4747C14.1398 17.5586 14.0725 17.6495 13.9355 17.7473C13.7946 17.8514 13.6865 17.8791 13.5917 17.9033L13.5577 17.9122L13.544 17.9167C13.5061 17.9291 13.4647 17.9426 13.4341 17.9671C13.2761 18.0839 13.2349 18.3036 13.3586 18.4616C13.441 18.5715 13.5715 18.6127 13.7226 18.6539C13.7363 18.6608 13.7432 18.6402 13.7363 18.6265C13.647 18.5028 13.6745 18.3243 13.7981 18.235C13.843 18.2029 13.9057 18.1844 13.9725 18.1646C14.0489 18.142 14.1305 18.1178 14.1965 18.0701C14.2446 18.0358 14.2909 17.9705 14.3373 17.9053C14.3837 17.84 14.43 17.7748 14.4781 17.7404ZM14.533 17.8915C14.636 17.816 14.7871 17.8435 14.8627 17.9465C14.897 17.9946 14.9107 18.0495 14.9039 18.0976V18.757C14.9039 18.7844 14.8833 18.7913 14.8558 18.7982C14.8283 18.805 14.794 18.8188 14.7665 18.8394C14.7482 18.8531 14.7299 18.876 14.7156 18.8938C14.7085 18.9027 14.7024 18.9103 14.6978 18.9149C14.6909 18.9287 14.6772 18.9493 14.6429 18.9424C14.6223 18.9355 13.9766 18.7295 13.9766 18.7295C13.9666 18.7295 13.9602 18.7258 13.9521 18.7211L13.9521 18.7211C13.9492 18.7194 13.946 18.7176 13.9423 18.7157C13.9148 18.702 13.8874 18.6814 13.8668 18.6539C13.7912 18.544 13.8187 18.3998 13.9217 18.3242C13.9423 18.3105 13.9698 18.2968 13.9973 18.2899C14.0212 18.279 14.0458 18.2709 14.0719 18.2623L14.0719 18.2623C14.1284 18.2437 14.1922 18.2226 14.272 18.1663C14.3724 18.0954 14.417 18.0296 14.4581 17.9688L14.4581 17.9688C14.4647 17.9589 14.4713 17.9492 14.478 17.9396L14.4849 17.9328L14.4986 17.919C14.5124 17.9053 14.5192 17.8984 14.533 17.8915ZM13.489 19.1759C13.441 19.0248 13.5234 18.8668 13.6676 18.8188C13.6882 18.8119 13.6882 18.7913 13.6745 18.7844L13.6712 18.7832C13.5215 18.7288 13.392 18.6817 13.2693 18.7226C13.0838 18.7776 12.9808 18.9836 13.0426 19.1691C13.0426 19.1791 13.0463 19.1855 13.0509 19.1936C13.0527 19.1965 13.0545 19.1997 13.0563 19.2034C13.0584 19.2076 13.0605 19.2123 13.0628 19.2176L13.0628 19.2176L13.0628 19.2176C13.068 19.2296 13.0742 19.244 13.0838 19.2583C13.1058 19.2943 13.1301 19.3274 13.1554 19.3618C13.217 19.4456 13.2844 19.5372 13.3379 19.6979C13.3878 19.8475 13.384 19.9524 13.3807 20.045L13.3807 20.045C13.3799 20.0672 13.3791 20.0887 13.3791 20.11C13.3723 20.1512 13.3791 20.1993 13.3929 20.2474C13.4547 20.4328 13.6539 20.5358 13.8393 20.474C13.9698 20.4328 14.0454 20.3229 14.1347 20.1856C14.1415 20.1718 14.1278 20.1581 14.1141 20.165C13.9629 20.213 13.805 20.1306 13.7569 19.9864C13.7412 19.936 13.7427 19.8726 13.7444 19.8048C13.7464 19.7248 13.7486 19.6386 13.7226 19.5605C13.7011 19.4926 13.648 19.421 13.5972 19.3524C13.5504 19.2892 13.5055 19.2286 13.489 19.1759ZM13.647 19.1759C13.6058 19.0523 13.6744 18.9218 13.7981 18.8806C13.8599 18.86 13.9148 18.8668 13.9698 18.8806C14.114 18.9287 14.5742 19.0798 14.6017 19.0866C14.6291 19.0935 14.6291 19.1141 14.6291 19.1416C14.6291 19.1691 14.636 19.2103 14.6429 19.2377C14.6497 19.2721 14.6772 19.3133 14.6909 19.327C14.7047 19.3408 14.7253 19.3614 14.7047 19.3888C14.6978 19.4094 14.2995 19.952 14.2995 19.952L14.272 19.9795C14.2514 20.0001 14.2239 20.0207 14.1896 20.0276C14.0659 20.0688 13.9354 20.0001 13.8942 19.8765C13.8805 19.849 13.8805 19.8215 13.8805 19.7941C13.8785 19.7706 13.8788 19.7478 13.8791 19.7239C13.8798 19.6637 13.8806 19.5971 13.8461 19.4987C13.8088 19.3973 13.7632 19.3374 13.7221 19.2835C13.7103 19.268 13.6989 19.2531 13.6882 19.2377C13.6813 19.2377 13.6813 19.2309 13.6813 19.2309C13.6771 19.2309 13.6754 19.2282 13.6732 19.2246C13.6718 19.2224 13.6702 19.2198 13.6676 19.2171C13.6538 19.2034 13.647 19.1897 13.647 19.1759Z" fill="#EE3124"/>
<path d="M16.9506 11.8681L18.3998 11.3667C18.3998 11.3667 18.2762 11.9711 18.3105 12.4381C18.3517 13.0425 18.702 13.5027 18.702 13.5027L16.9163 14.1209L16.9506 11.8681Z" fill="#FFC758"/>
<path d="M18.7021 13.5027C18.7021 13.5027 18.3861 13.0494 18.3312 12.5205C18.29 12.1222 18.3312 11.7788 18.3999 11.3667C18.338 11.6414 18.1045 12.4175 17.452 13.1387C17.191 13.4272 17.0743 13.6813 17.0262 13.8599L16.9987 10.4463C16.9987 10.4463 16.6553 10.5699 16.621 10.5768C16.5798 10.5906 16.5592 10.618 16.5592 10.6249C16.5592 10.6455 16.5454 10.6592 16.5179 10.6661C16.4905 10.673 16.2913 10.7485 16.1539 10.7897C16.1265 10.7966 16.1402 10.8241 16.1539 10.8241C16.3188 10.8172 16.5523 10.7966 16.5729 10.7966C16.6072 10.7897 16.621 10.776 16.621 10.7554C16.621 10.7554 16.621 10.7554 16.621 10.7485C16.6278 10.7211 16.6484 10.7004 16.6759 10.7004C16.6965 10.7004 16.8201 10.6867 16.8957 10.673L16.8614 14.3475H17.0262V14.0865L18.7021 13.5027Z" fill="#D4A11E"/>
<path d="M12.2802 14.217C12.2802 14.217 12.0123 14.0178 11.9368 13.6401C11.8612 13.2555 12.0535 13.0357 12.0535 13.0357L13.8118 12.4313C13.8118 12.4313 13.7019 12.7815 13.805 13.1799C13.9354 13.6813 14.2033 14.0178 14.2033 14.0178C14.2033 14.0178 13.5577 13.8942 12.9327 13.9766C12.342 14.0522 12.2802 14.217 12.2802 14.217Z" fill="#FFC758"/>
<path d="M10.2609 13.7774C10.2609 13.7774 10.4806 13.1799 11.1194 12.5274C11.607 12.0329 11.923 11.8887 11.923 11.8887C11.923 11.8887 11.6414 12.2939 11.5246 12.9601C11.4491 13.3722 11.5315 13.8942 11.5315 13.8942C11.5315 13.8942 11.2018 13.8255 10.8241 13.7843C10.5081 13.75 10.2609 13.7774 10.2609 13.7774Z" fill="#FFC758"/>
<path d="M11.923 11.8887C11.923 11.8887 11.6483 12.2939 11.5315 12.9601C11.456 13.3722 11.5384 13.8942 11.5384 13.8942C11.5384 13.8942 11.456 13.8736 11.2637 13.8324C10.4807 13.6538 11.923 11.8887 11.923 11.8887Z" fill="#D4A11E"/>
<path d="M12.9533 12.3694L12.9395 10.7897C12.9052 10.8035 12.5961 10.9065 12.5618 10.9202C12.5206 10.934 12.4999 10.9614 12.4999 10.9752C12.4999 10.9958 12.4862 11.0095 12.4587 11.0164C12.4313 11.0233 12.2321 11.0919 12.0947 11.14C12.0672 11.1469 12.081 11.1744 12.0947 11.1744C12.2527 11.1675 12.4931 11.1469 12.5137 11.1469C12.548 11.14 12.5618 11.1263 12.5686 11.1057C12.5686 11.1057 12.5686 11.1057 12.5686 11.0988C12.5755 11.0713 12.5961 11.0507 12.6236 11.0507C12.6442 11.0507 12.7609 11.037 12.8434 11.0301L12.8296 12.3763H12.9533V12.3694Z" fill="#D4A11E"/>
<path d="M15.0001 10.9408H15.1237V9.42294C15.1237 9.42294 14.7803 9.54657 14.746 9.55344C14.7048 9.56718 14.6842 9.59465 14.6842 9.60152C14.6842 9.62212 14.6704 9.63586 14.6429 9.64273C14.6155 9.6496 14.4163 9.71828 14.2789 9.76636C14.2514 9.77323 14.2652 9.8007 14.2789 9.8007C14.4438 9.79383 14.6773 9.77323 14.6979 9.77323C14.7322 9.76636 14.746 9.75262 14.7528 9.73202C14.7597 9.70454 14.7803 9.68394 14.8078 9.68394C14.8284 9.68394 14.9383 9.6702 15.0207 9.66333L15.0001 10.9408Z" fill="#D4A11E"/>
<path d="M14.691 9.78009H14.6979C14.7322 9.77322 14.7459 9.75949 14.7459 9.73888C14.7459 9.71828 14.7597 9.70454 14.7803 9.69767L14.7391 9.56718C14.6979 9.58091 14.6841 9.60839 14.6841 9.61525C14.6841 9.63586 14.6704 9.64273 14.6498 9.6496L14.691 9.78009Z" fill="#FFC758"/>
<path d="M12.5068 11.14H12.5137C12.548 11.1331 12.5617 11.1194 12.5617 11.0988C12.5686 11.0782 12.5755 11.0645 12.5961 11.0576L12.5549 10.9271C12.5137 10.9408 12.4999 10.9683 12.4999 10.9752C12.4999 10.9958 12.4862 11.0026 12.4656 11.0095L12.5068 11.14Z" fill="#FFC758"/>
<path d="M16.5592 10.7966H16.566C16.6004 10.7897 16.6141 10.776 16.6141 10.7554C16.621 10.7348 16.6278 10.7211 16.6484 10.7142L16.6072 10.5837C16.566 10.5974 16.5523 10.6249 16.5523 10.6318C16.5523 10.6524 16.5385 10.6592 16.5179 10.6661L16.5592 10.7966Z" fill="#FFC758"/>
<path d="M14.2033 14.0178C14.2033 14.0178 13.9217 13.6057 13.8118 13.1662C13.7156 12.7884 13.8118 12.4313 13.8118 12.4313C13.8118 12.4313 13.6263 13.0769 13.1799 13.4272C12.8708 13.6744 12.1084 13.9011 12.287 14.217C12.3145 14.1758 12.39 14.0934 12.6991 14.0178C12.7334 14.011 12.7747 14.0041 12.8159 13.9972V14.5192H12.9807V13.9766C13.5508 13.9148 14.2033 14.0178 14.2033 14.0178Z" fill="#D4A11E"/>
<path d="M12.0948 12.9258C12.0948 12.9258 11.8887 12.8022 11.9162 12.4038C11.9437 11.9917 12.1497 11.8131 12.1497 11.7994L13.5165 11.3323C13.5165 11.3323 13.4135 11.5384 13.4891 11.8475C13.5715 12.2183 13.8119 12.4313 13.8119 12.4313C13.8119 12.4313 13.125 12.4381 12.5069 12.651C12.2047 12.7541 12.0948 12.9258 12.0948 12.9258Z" fill="#FFC758"/>
<path d="M12.9052 12.0672C13.2967 11.7444 13.5096 11.3323 13.5096 11.3323C13.5096 11.3323 13.4547 11.5933 13.4959 11.8269C13.5714 12.2252 13.805 12.4313 13.805 12.4313C13.805 12.4313 13.2486 12.4381 12.6511 12.6098C12.2527 12.7197 12.1291 12.8777 12.0947 12.9326C11.9642 12.6304 12.5068 12.3969 12.9052 12.0672Z" fill="#D4A11E"/>
<path d="M14.4643 14.32C14.4643 14.32 14.0865 14.0384 13.9973 13.5096C13.9217 13.0906 14.2033 12.7884 14.2033 12.7884L16.3393 12.0535C16.3393 12.0535 16.2226 12.5274 16.3325 12.9807C16.4561 13.489 16.9231 14.1209 16.9231 14.1209C16.9231 14.1209 16.0371 13.8667 15.2679 13.9629C14.533 14.059 14.4643 14.32 14.4643 14.32Z" fill="#FFC758"/>
<path d="M14.0316 10.934C14.0179 10.6112 14.2445 10.3502 14.2514 10.3364L15.783 9.8007C15.783 9.8007 15.68 10.0411 15.7075 10.2471C15.7555 10.6386 15.9753 10.8447 15.9753 10.8447C15.9753 10.8447 15.3709 10.8103 14.6635 11.0576C14.272 11.195 14.2308 11.3804 14.2308 11.3804C14.2308 11.3804 14.0453 11.3323 14.0316 10.934Z" fill="#FFC758"/>
<path d="M15.2404 10.5219C15.5151 10.2815 15.783 9.80756 15.783 9.80756C15.783 9.80756 15.68 10.048 15.7074 10.254C15.7555 10.6455 15.9753 10.8515 15.9753 10.8515C15.9753 10.8515 15.3228 10.8447 14.6978 11.0645C14.4299 11.1606 14.2582 11.3049 14.2376 11.3873C14.1483 11.0851 14.8626 10.8515 15.2404 10.5219Z" fill="#D4A11E"/>
<path d="M14.2515 12.6991C14.2515 12.6991 14.0317 12.445 13.9905 12.0466C13.9492 11.6345 14.1896 11.4697 14.2102 11.456L15.9823 10.8447C15.9823 10.8447 15.9342 10.9752 15.9754 11.3323C16.0166 11.6345 16.3119 12.0466 16.3119 12.0466C16.3119 12.0466 15.3641 12.0741 14.7803 12.3008C14.4094 12.445 14.2515 12.6991 14.2515 12.6991Z" fill="#FFC758"/>
<path d="M15.4258 11.6757C15.8104 11.3461 15.9821 10.8516 15.9821 10.8516C15.9821 10.8516 15.9341 11.1332 15.9821 11.3529C16.0714 11.7376 16.3462 12.0604 16.3462 12.0604C16.3462 12.0604 15.522 12.0741 14.9244 12.2733C14.5329 12.4038 14.2925 12.6373 14.2582 12.706C14.1689 12.3694 15.0412 12.0054 15.4258 11.6757Z" fill="#D4A11E"/>
<path d="M16.9575 14.1552C16.9575 14.1552 16.4768 13.5302 16.3325 12.9807C16.2432 12.6167 16.3119 12.2046 16.3394 12.0604C16.2845 12.2527 16.0921 12.8777 15.6182 13.3173C15.1649 13.7362 14.272 13.9354 14.4644 14.3269C14.4987 14.2651 14.6017 14.114 14.9657 14.0247L14.9589 14.5261H15.1306V13.9904C15.9204 13.8667 16.9575 14.1552 16.9575 14.1552Z" fill="#D4A11E"/>
<path fill-rule="evenodd" clip-rule="evenodd" d="M17.7817 15.3297C17.8916 15.3091 18.0015 15.2816 18.1663 15.2404C18.1595 15.2335 18.1457 15.2267 18.1389 15.2198C17.9603 15.0206 17.9878 14.8077 18.0976 14.7047C18.496 14.3338 18.4891 14.059 18.4891 14.059C18.4891 14.059 17.5207 14.2582 16.2432 14.3269C16.1608 14.3338 15.8655 14.4643 15.7762 14.4643C15.5976 14.4711 15.419 14.478 15.2336 14.478C12.8228 14.4986 12.1497 14.3269 11.3599 14.1827C10.5563 14.0316 10.206 13.8736 10.206 13.8736L10.1785 13.956C10.1785 13.956 10.8104 14.2033 11.2637 14.4231C11.3599 14.4711 11.7376 15.0343 11.8612 15.2267H8.99716C8.83919 11.9436 9.47107 9.25811 9.47107 9.25811C9.47107 9.25811 11.6621 8.79106 14.9588 8.79106V8.44078C11.4629 8.44078 9.13453 8.9353 9.13453 8.9353C9.13453 8.9353 8.11802 12.5205 8.65375 16.7926C8.8804 18.5715 10.3502 21.9026 14.9451 23.448L15.1443 23.1664L14.9451 22.8848C10.6181 21.4356 9.35431 18.5028 9.13453 16.8338C9.08645 16.4629 9.05211 16.0921 9.02463 15.7349H14.9657V15.2335H11.9162C11.9849 15.0137 12.1978 14.9588 12.4656 15.0206C12.7404 15.0893 13.0151 15.158 13.2761 15.1442C13.9286 15.1099 13.8324 14.9382 13.8943 14.9382C14.5673 14.9794 14.8215 15.1442 15.4053 15.1305C15.941 15.1236 16.1264 14.9794 16.1745 14.9794C16.827 14.9725 17.0743 15.2747 17.7268 15.3297C17.7474 15.3297 17.768 15.3297 17.7817 15.3297Z" fill="#FFC758"/>
<path fill-rule="evenodd" clip-rule="evenodd" d="M20.7764 8.9353C20.7764 8.9353 18.4549 8.44078 14.9589 8.44078V8.79106C18.2557 8.79106 20.4398 9.25811 20.4398 9.25811C20.4398 9.25811 21.0786 11.9436 20.9137 15.2267H18.0428C17.8161 15.0069 17.9466 14.7184 18.0222 14.6497C18.3587 14.3475 18.3587 14.1415 18.3587 14.1415C18.3587 14.1415 17.5826 14.3338 16.3051 14.3887C16.2227 14.3887 15.8655 14.5536 15.7762 14.5536C15.5977 14.5604 15.3504 14.5673 15.165 14.5673C13.5028 14.5673 12.6855 14.533 11.2432 14.2239C11.2706 14.2582 11.2844 14.272 11.3118 14.3132C11.3187 14.3269 11.9437 14.4849 11.9506 14.4986C12.0468 14.6291 12.1704 14.7184 12.3215 14.8008C12.555 14.9244 12.8984 15.0275 13.18 15.0481C13.8325 15.0893 13.7089 14.842 13.7707 14.842C14.4369 14.8283 14.8696 15.0687 15.4534 15.0618C15.9892 15.0549 16.0029 14.8832 16.0578 14.8832C16.5867 14.8558 17.1224 15.0824 17.5826 15.2335H14.9589V15.7349H20.8794C20.8519 16.0989 20.8176 16.4629 20.7695 16.8338C20.5497 18.5097 19.2859 21.4356 14.9589 22.8848V23.448C19.5538 21.9026 21.0305 18.5784 21.2503 16.7926C21.7929 12.5205 20.7764 8.9353 20.7764 8.9353Z" fill="#D4A11E"/>
<path d="M4.23059 10.4807L4.47098 10.0205L5.55617 9.94493L5.00671 9.00397L5.2471 8.55067L7.17709 9.56717L6.9573 9.98614L5.69354 9.32678L6.23613 10.3021L6.22926 10.3089L5.13034 10.4188L6.38037 11.0782L6.16058 11.4972L4.23059 10.4807Z" fill="#00285E"/>
<path fill-rule="evenodd" clip-rule="evenodd" d="M6.73751 6.72371L6.4353 7.04652L7.39 9.23064L7.72654 8.87348L7.50676 8.3927L8.13864 7.71961L8.63316 7.91192L8.97657 7.5479L6.73751 6.72371ZM7.00541 7.28691L7.71971 7.56164L7.32135 7.98061L7.00541 7.28691Z" fill="#00285E"/>
<path d="M8.16614 5.45995L8.54389 5.23329L10.1167 5.85144L9.42304 4.70443L9.82826 4.45718L10.9547 6.31848L10.6044 6.5314L8.98346 5.89265L9.70464 7.08086L9.29941 7.32812L8.16614 5.45995Z" fill="#00285E"/>
<path d="M11.0989 5.08218C10.9272 4.47777 11.2294 3.85963 11.875 3.67418C12.2665 3.55742 12.5481 3.6261 12.7953 3.7566L12.5961 4.18244C12.3901 4.07941 12.2047 4.0382 11.9917 4.10002C11.6415 4.20304 11.4697 4.56706 11.5728 4.93108V4.93795C11.6758 5.2951 12.0123 5.52175 12.3695 5.41873C12.6099 5.35005 12.7266 5.21268 12.8503 5.0135L13.228 5.22642C13.0769 5.52175 12.8777 5.73467 12.4794 5.85143C11.8681 6.03001 11.2706 5.68659 11.0989 5.08218Z" fill="#00285E"/>
<path d="M13.7157 3.33077L14.1896 3.31703L14.2171 4.18244L15.0962 4.16183L15.0756 3.29643L15.5564 3.28269L15.6113 5.46681L15.1306 5.48055L15.11 4.6014L14.224 4.62888L14.2514 5.50115L13.7706 5.51489L13.7157 3.33077Z" fill="#00285E"/>
<path d="M18.3793 5.76214L18.7776 5.56983C18.8875 5.79649 19.0318 5.98193 19.2584 6.08495C19.437 6.16737 19.5744 6.14677 19.6293 6.03001V6.02314C19.6842 5.91325 19.6362 5.82396 19.3477 5.59044C18.9974 5.30197 18.7914 5.07532 18.9699 4.68382V4.67695C19.1348 4.3198 19.5331 4.21678 19.9384 4.40222C20.2268 4.53272 20.4329 4.73877 20.5565 4.9929L20.1788 5.21955C20.062 5.0135 19.9178 4.8624 19.7529 4.78685C19.5881 4.7113 19.4645 4.74564 19.4164 4.84179V4.84866C19.3546 4.97916 19.4233 5.06158 19.7255 5.30884C20.0757 5.59731 20.2406 5.85143 20.0757 6.19485V6.20172C19.8972 6.59321 19.4919 6.67563 19.0661 6.48331C18.7776 6.33221 18.5235 6.08495 18.3793 5.76214Z" fill="#00285E"/>
<path d="M21.5661 5.89264L21.0373 5.48741L21.3051 5.13713L22.7406 6.22919L22.4728 6.58634L21.9439 6.18111L20.893 7.56164L20.5084 7.27317L21.5661 5.89264Z" fill="#00285E"/>
<path fill-rule="evenodd" clip-rule="evenodd" d="M25.4606 9.88312L25.0141 8.99024L23.0498 9.96554L23.2627 10.3914L23.8877 10.0754L24.0594 10.412L23.6473 11.1469L23.9015 11.6483L24.3616 10.8241C24.5814 11.0301 24.863 11.0988 25.179 10.9408H25.1858C25.3713 10.8447 25.4949 10.7142 25.5499 10.5493C25.6117 10.357 25.5842 10.1304 25.4606 9.88312ZM24.9386 10.5219C24.7738 10.6043 24.6021 10.5356 24.499 10.3296L24.2861 9.90373L24.8425 9.62213L25.0554 10.048C25.1584 10.254 25.1309 10.4326 24.9455 10.5219H24.9386Z" fill="#00285E"/>
<path d="M16.9231 4.79372L17.7267 4.96542L17.9534 4.5808L17.0193 4.37475L17.1086 3.94205L18.2487 4.18931L18.3449 3.77721L16.7308 3.42693L16.2706 5.5561L17.8984 5.91325L17.9877 5.49428L16.827 5.24016L16.9231 4.79372Z" fill="#00285E"/>
<path d="M23.4 6.88168L21.7241 8.28281L22.7956 9.55344L23.1184 9.27871L22.3629 8.37209L22.7132 8.07676L23.2489 8.71551L23.6816 8.57128L23.0428 7.80203L23.3794 7.52043L24.128 8.4133L24.4577 8.13857L23.4 6.88168Z" fill="#00285E"/>
<path d="M11.2843 25.481C11.2843 24.8423 11.7582 24.3271 12.445 24.3271C12.864 24.3271 13.1113 24.4645 13.3242 24.6705L13.0151 25.0277C12.8434 24.8697 12.6717 24.7804 12.445 24.7804C12.0673 24.7804 11.7994 25.0895 11.7994 25.4741V25.481C11.7994 25.8588 12.0604 26.1816 12.445 26.1816C12.6992 26.1816 12.8571 26.0785 13.0288 25.9206L13.3379 26.2365C13.1113 26.4838 12.8571 26.6349 12.4244 26.6349C11.772 26.6211 11.2843 26.1129 11.2843 25.481Z" fill="#00285E"/>
<path d="M13.8119 24.3615H14.2995V26.5799H13.8119V24.3615Z" fill="#00285E"/>
<path d="M15.4327 24.8148H14.7596V24.3615H16.6003V24.8148H15.9273V26.5868H15.4396V24.8148H15.4327Z" fill="#00285E"/>
<path d="M17.6581 25.7077L16.8064 24.3615H17.3765L17.9053 25.2544L18.441 24.3615H18.9974L18.1457 25.6939V26.5799H17.6581V25.7077Z" fill="#00285E"/>
</svg>
