<svg width="12" height="14" viewBox="0 0 12 14" fill="none" xmlns="http://www.w3.org/2000/svg">
<path d="M9.99996 7.78666V5.66666C9.999 4.72208 9.66379 3.80831 9.0537 3.08718C8.44361 2.36605 7.598 1.88409 6.66663 1.72666V0.999995C6.66663 0.823184 6.59639 0.653615 6.47136 0.52859C6.34634 0.403566 6.17677 0.333328 5.99996 0.333328C5.82315 0.333328 5.65358 0.403566 5.52855 0.52859C5.40353 0.653615 5.33329 0.823184 5.33329 0.999995V1.72666C4.40192 1.88409 3.55631 2.36605 2.94622 3.08718C2.33612 3.80831 2.00092 4.72208 1.99996 5.66666V7.78666C1.61093 7.9242 1.27396 8.17871 1.03525 8.51529C0.796545 8.85186 0.667786 9.25403 0.666626 9.66666V11C0.666626 11.1768 0.736864 11.3464 0.861888 11.4714C0.986912 11.5964 1.15648 11.6667 1.33329 11.6667H3.42663C3.58015 12.2316 3.91529 12.7303 4.38036 13.0858C4.84542 13.4414 5.41456 13.634 5.99996 13.634C6.58536 13.634 7.1545 13.4414 7.61956 13.0858C8.08462 12.7303 8.41977 12.2316 8.57329 11.6667H10.6666C10.8434 11.6667 11.013 11.5964 11.138 11.4714C11.2631 11.3464 11.3333 11.1768 11.3333 11V9.66666C11.3321 9.25403 11.2034 8.85186 10.9647 8.51529C10.726 8.17871 10.389 7.9242 9.99996 7.78666ZM3.33329 5.66666C3.33329 4.95942 3.61424 4.28114 4.11434 3.78104C4.61444 3.28095 5.29272 2.99999 5.99996 2.99999C6.7072 2.99999 7.38548 3.28095 7.88558 3.78104C8.38567 4.28114 8.66663 4.95942 8.66663 5.66666V7.66666H3.33329V5.66666ZM5.99996 12.3333C5.76727 12.3319 5.53901 12.2697 5.33785 12.1527C5.13668 12.0357 4.96963 11.8682 4.85329 11.6667H7.14663C7.03029 11.8682 6.86323 12.0357 6.66207 12.1527C6.46091 12.2697 6.23264 12.3319 5.99996 12.3333ZM9.99996 10.3333H1.99996V9.66666C1.99996 9.48985 2.0702 9.32028 2.19522 9.19526C2.32025 9.07023 2.48981 9 2.66663 9H9.33329C9.5101 9 9.67967 9.07023 9.8047 9.19526C9.92972 9.32028 9.99996 9.48985 9.99996 9.66666V10.3333Z" fill="black"/>
</svg>
