<svg width="18" height="18" viewBox="0 0 18 18" fill="none" xmlns="http://www.w3.org/2000/svg">
<path d="M8.99999 0.359985C7.29116 0.359985 5.6207 0.866712 4.19986 1.81609C2.77902 2.76546 1.67161 4.11485 1.01767 5.6936C0.363729 7.27235 0.192628 9.00957 0.526004 10.6856C0.859381 12.3616 1.68226 13.9011 2.89059 15.1094C4.09891 16.3177 5.63841 17.1406 7.31441 17.474C8.9904 17.8073 10.7276 17.6362 12.3064 16.9823C13.8851 16.3284 15.2345 15.2209 16.1839 13.8001C17.1333 12.3793 17.64 10.7088 17.64 8.99998C17.6377 6.70921 16.7267 4.5129 15.1069 2.89307C13.4871 1.27325 11.2908 0.362242 8.99999 0.359985Z" fill="#0A4888"/>
<path d="M8.99993 0.976927C7.41311 0.976918 5.86192 1.44746 4.54253 2.32904C3.22313 3.21063 2.19478 4.46367 1.58753 5.9297C0.980282 7.39573 0.821398 9.00891 1.13097 10.5652C1.44055 12.1216 2.20468 13.5512 3.32674 14.6732C4.83136 16.1778 6.87207 17.0231 8.99993 17.0231C11.1278 17.0231 13.1685 16.1778 14.6731 14.6732C16.1778 13.1686 17.023 11.1279 17.023 9.00001C17.023 6.87214 16.1778 4.83143 14.6731 3.32681C13.9298 2.57949 13.0457 1.98701 12.0719 1.58365C11.0981 1.18029 10.054 0.974075 8.99993 0.976927Z" fill="white"/>
<path d="M8.99971 1.29462C10.5237 1.29446 12.0135 1.74624 13.2808 2.59282C14.548 3.4394 15.5357 4.64275 16.119 6.0507C16.7024 7.45865 16.8551 9.00795 16.5578 10.5027C16.2606 11.9974 15.5268 13.3705 14.4492 14.4481C13.3717 15.5258 11.9987 16.2598 10.504 16.5571C9.00929 16.8545 7.45997 16.702 6.05196 16.1188C4.64396 15.5356 3.44051 14.548 2.5938 13.2809C1.74709 12.0137 1.29517 10.5239 1.29517 8.99993C1.29517 6.95649 2.10687 4.99673 3.55173 3.55173C4.99659 2.10672 6.95626 1.29482 8.99971 1.29462Z" fill="#0A4888"/>
<path d="M11.9331 2.44404C11.8076 2.38746 11.6812 2.33553 11.5526 2.28903L10.7915 4.11732C10.9202 4.1646 11.0457 4.2173 11.1705 4.27233L11.9331 2.44404Z" fill="white"/>
<path d="M10.4393 2.5129C10.4393 2.13933 10.0851 1.83475 9.71151 1.83475H8.573V3.80719C8.70475 3.79712 8.83806 3.79014 8.97369 3.79014V3.19182H9.47668L9.9107 3.87772C10.0808 3.9081 10.2492 3.94742 10.4152 3.99552L9.89675 3.16624C10.1944 3.08719 10.4393 2.82446 10.4393 2.5129ZM8.97369 2.84151V2.18583H9.71151C9.79846 2.18583 9.88185 2.22037 9.94333 2.28186C10.0048 2.34334 10.0394 2.42672 10.0394 2.51367C10.0394 2.60062 10.0048 2.68401 9.94333 2.74549C9.88185 2.80697 9.79846 2.84151 9.71151 2.84151H8.97369Z" fill="white"/>
<path d="M5.38601 5.21786L4.93572 4.80787L5.49297 4.19482C5.61658 4.06137 5.68317 3.88491 5.67853 3.70306C5.6739 3.52122 5.59841 3.34837 5.46817 3.22139C5.32924 3.10231 5.14947 3.04189 4.96682 3.05288C4.78418 3.06387 4.61295 3.14541 4.48931 3.28029L3.66235 4.19017L5.10313 5.50307C5.19303 5.40387 5.28759 5.30931 5.38601 5.21786ZM4.1948 4.12972L4.73732 3.53683C4.7661 3.50421 4.80109 3.47765 4.84024 3.45869C4.8794 3.43973 4.92193 3.42875 4.96537 3.4264C5.00881 3.42404 5.05229 3.43035 5.09326 3.44497C5.13423 3.45958 5.17189 3.48221 5.20403 3.51152C5.23618 3.54084 5.26216 3.57626 5.28048 3.61571C5.2988 3.65517 5.30908 3.69788 5.31072 3.74135C5.31237 3.78483 5.30534 3.82819 5.29006 3.86892C5.27478 3.90965 5.25154 3.94693 5.22171 3.97859L4.67919 4.57149L4.1948 4.12972Z" fill="white"/>
<path d="M13.1214 4.99223C12.93 5.14724 12.3945 4.75352 12.072 4.0715L11.783 4.29006C11.8863 4.53423 12.0334 4.75748 12.217 4.94883C12.4534 5.19839 12.7107 5.36037 12.9424 5.40609C13.0252 5.42783 13.112 5.42982 13.1957 5.41192C13.2794 5.39402 13.3578 5.35672 13.4245 5.30302C13.7213 5.02711 13.6128 4.62487 13.1455 4.13273L12.9525 3.92889C12.737 3.70259 12.8254 3.57238 12.9083 3.55378C13.2059 3.48403 13.7515 4.02655 13.8562 4.39313C13.943 4.32803 14.1359 4.1862 14.1359 4.1862C13.9034 3.52898 12.9858 2.86866 12.5495 3.2833C12.2906 3.5282 12.4371 3.90332 12.6642 4.14203L12.8827 4.37453C13.1075 4.60937 13.302 4.84343 13.1214 4.99223Z" fill="white"/>
<path d="M6.39197 2.31229L6.24316 4.55986C6.37595 4.47978 6.51313 4.4046 6.6547 4.33433L6.67485 3.80731C6.94876 3.68678 7.23175 3.58805 7.52118 3.51203L7.86684 3.90884C8.02185 3.87629 8.17685 3.84917 8.33186 3.83134L6.80893 2.16348C6.66788 2.20921 6.52837 2.25726 6.39197 2.31229ZM6.69035 3.44925L6.72446 2.60137L7.28247 3.24154C7.08169 3.30066 6.88406 3.36998 6.69035 3.44925Z" fill="white"/>
<path d="M5.21004 13.4176L5.20306 13.4121L4.43811 13.7741L4.53809 13.8655L4.54429 13.8717L4.7954 13.7516L5.03333 13.9547L4.95583 14.2189L5.05813 14.2964L5.07441 14.3088L5.07983 14.2895L5.31234 13.4997L5.21004 13.4176ZM5.13796 13.5912L5.07363 13.8136L4.9287 13.6904L5.13796 13.5912Z" fill="white"/>
<path d="M5.80233 13.8673L5.71321 13.8091L5.70158 13.8006L5.27222 14.4516L5.37297 14.5183L5.38382 14.526L5.81319 13.8742L5.80233 13.8673Z" fill="white"/>
<path d="M6.50448 14.2724L6.25415 14.7483L6.13092 14.0763L6.12627 14.0732L6.03172 14.0229L6.01932 14.0174L5.66125 14.6987L5.76433 14.7583L5.77596 14.7661L6.03172 14.2809L6.15572 14.963L6.2557 15.0079L6.26655 15.0133L6.62306 14.3344L6.51688 14.2778L6.50448 14.2724Z" fill="white"/>
<path d="M6.79955 14.4096L6.76002 14.522L6.75537 14.5352L6.9995 14.6204L6.79025 15.2242L6.9034 15.2637L6.9158 15.2684L7.12661 14.6638L7.37229 14.7506L7.41182 14.6359L7.41569 14.6235L7.40329 14.6189L6.79955 14.4096Z" fill="white"/>
<path d="M9.01159 15.1847V15.2909V15.3048H9.2441V15.3746C9.2441 15.4219 9.16659 15.48 9.04337 15.48H9.03562C8.9996 15.4821 8.96353 15.4769 8.92955 15.4648C8.89557 15.4526 8.86439 15.4338 8.83785 15.4093C8.81131 15.3849 8.78996 15.3553 8.77507 15.3225C8.76018 15.2896 8.75206 15.2541 8.75118 15.218C8.75146 15.1808 8.75946 15.1439 8.77469 15.1099C8.78991 15.0759 8.81201 15.0454 8.83961 15.0203C8.86721 14.9953 8.89971 14.9762 8.93504 14.9644C8.97038 14.9525 9.00779 14.9481 9.04492 14.9514H9.05189C9.09358 14.9513 9.13477 14.9605 9.17245 14.9783C9.21013 14.9961 9.24334 15.0222 9.26967 15.0545L9.27897 15.0638L9.36345 14.9801L9.37275 14.97L9.36345 14.9615C9.32298 14.9167 9.27362 14.8808 9.21851 14.8561C9.1634 14.8314 9.10375 14.8185 9.04337 14.8181H9.03562C8.98235 14.8159 8.92919 14.8244 8.87925 14.843C8.8293 14.8617 8.78357 14.8901 8.74474 14.9266C8.70591 14.9631 8.67476 15.007 8.65311 15.0557C8.63146 15.1044 8.61974 15.157 8.61865 15.2103C8.61865 15.2103 8.61865 15.2149 8.61865 15.2173C8.61863 15.2706 8.62931 15.3233 8.65005 15.3724C8.67079 15.4215 8.70118 15.466 8.73941 15.5031C8.77764 15.5403 8.82294 15.5694 8.87262 15.5887C8.9223 15.608 8.97536 15.6172 9.02864 15.6156H9.04027C9.22395 15.6156 9.3743 15.5288 9.3774 15.3831V15.1723L9.01081 15.1669L9.01159 15.1847Z" fill="white"/>
<path d="M10.2973 15.3451L9.78505 15.4195L9.75715 15.2226L10.0059 15.187L9.98889 15.0676L9.98656 15.0552L9.73855 15.0909L9.71453 14.925L10.2082 14.8545L10.1919 14.7344L10.1888 14.722L10.1757 14.7243L9.56262 14.8111L9.6719 15.5714L10.3167 15.4784L10.2997 15.359L10.2973 15.3451Z" fill="white"/>
<path d="M11.159 14.7669C11.1588 14.7379 11.1541 14.7092 11.1451 14.6816C11.1342 14.6352 11.1075 14.594 11.0696 14.5651C11.0318 14.5361 10.985 14.5211 10.9374 14.5228C10.9064 14.5235 10.8756 14.5284 10.8459 14.5375L10.4158 14.6669L10.6359 15.4001L10.7514 15.3683H10.7645L10.6754 15.0707L10.9172 14.9979L11.1497 15.2505L11.2706 15.2071L11.29 15.2001L11.0575 14.9498C11.0898 14.9318 11.1164 14.9051 11.1343 14.8728C11.1523 14.8405 11.1608 14.8038 11.159 14.7669ZM11.0234 14.756C11.0234 14.7979 10.9978 14.8297 10.9397 14.8483L10.6374 14.939L10.5824 14.7568L10.8839 14.6654C10.9011 14.6598 10.9192 14.6571 10.9374 14.6576C10.9557 14.6573 10.9736 14.6635 10.9878 14.6752C11.002 14.6868 11.0116 14.7031 11.0149 14.7212C11.019 14.7324 11.0219 14.7441 11.0234 14.756Z" fill="white"/>
<path d="M12.4496 13.6983L12.3465 13.7712L12.3387 13.7758L12.5007 14.6004L12.6123 14.5291L12.6201 14.5253L12.5682 14.2563L12.8231 14.075L13.0556 14.2145L13.1564 14.137L13.1711 14.1246L13.1541 14.1145L12.4496 13.6983ZM12.5403 14.1114L12.4961 13.8843L12.696 14.0006L12.5403 14.1114Z" fill="white"/>
<path d="M12.9046 13.3356L12.8271 13.4084L12.817 13.4177L13.3386 13.9789L13.4277 13.8998L13.4386 13.8897L12.9147 13.3271L12.9046 13.3356Z" fill="white"/>
<path d="M13.5727 12.6294L13.4929 12.7185L13.4836 12.7286L13.8851 13.089L13.2023 13.0417L13.1976 13.0471L13.1263 13.127L13.1178 13.1355L13.6882 13.6501L13.7719 13.5649L13.7828 13.5548L13.3751 13.1882L14.0664 13.2355L14.1354 13.151L14.1432 13.1409L13.5727 12.6294Z" fill="white"/>
<path d="M11.9473 14.0384L11.852 14.0864L11.8458 14.0903L11.8295 14.5987L11.4095 14.3135L11.3072 14.3647L11.2955 14.3701L11.6311 15.0598L11.7388 15.011L11.752 15.0056L11.5412 14.5615L11.9535 14.8413L11.9698 14.343L12.2062 14.7746L12.3108 14.7157L12.3217 14.7095L11.959 14.0322L11.9473 14.0384Z" fill="white"/>
<path d="M4.5405 13.399C4.5413 13.3881 4.5413 13.3773 4.5405 13.3664C4.52634 13.248 4.47662 13.1367 4.3979 13.0471L4.32737 12.9541C4.30156 12.9234 4.28586 12.8855 4.28242 12.8456C4.28218 12.8358 4.28403 12.826 4.28784 12.8169C4.29218 12.8076 4.29877 12.7994 4.30701 12.7932C4.31526 12.787 4.32491 12.7829 4.33512 12.7813H4.34984C4.46377 12.7813 4.64668 12.9859 4.69086 13.1455L4.69628 13.1634L4.71488 13.1502L4.79238 13.1076L4.80246 13.1029V13.0897C4.73813 12.8572 4.51028 12.634 4.32737 12.6325C4.28727 12.6318 4.24805 12.6443 4.21577 12.6681C4.19765 12.6812 4.18239 12.6979 4.17093 12.7171C4.15947 12.7362 4.15205 12.7576 4.14911 12.7797C4.14828 12.7895 4.14828 12.7994 4.14911 12.8092C4.15323 12.8833 4.18032 12.9542 4.22662 13.0122L4.30412 13.1176C4.35749 13.1758 4.39417 13.2473 4.4103 13.3246C4.41068 13.3305 4.41068 13.3365 4.4103 13.3424C4.40796 13.3539 4.40324 13.3649 4.39643 13.3745C4.38963 13.3841 4.38088 13.3922 4.37077 13.3982C4.3585 13.4052 4.34457 13.4086 4.33047 13.4083C4.23747 13.4083 4.05301 13.2246 3.96543 12.9549L3.96001 12.9309L3.86468 13.0208L3.85925 13.0254V13.0355C3.8897 13.1396 3.93881 13.2373 4.00418 13.3238C4.07015 13.4223 4.16447 13.4986 4.27467 13.5424C4.30269 13.5516 4.33196 13.5566 4.36147 13.5571C4.39946 13.558 4.4368 13.5471 4.46842 13.5261C4.48824 13.5107 4.50481 13.4916 4.51718 13.4697C4.52955 13.4479 4.53748 13.4239 4.5405 13.399Z" fill="white"/>
<path d="M7.77307 15.1577L8.03658 15.2166L8.06061 15.1119L7.7971 15.0515L7.77307 15.1577Z" fill="white"/>
<path d="M9.00013 4.27222C8.06508 4.27222 7.15104 4.54949 6.37358 5.06897C5.59612 5.58845 4.99016 6.32681 4.63234 7.19068C4.27451 8.05455 4.18089 9.00513 4.3633 9.9222C4.54572 10.8393 4.99599 11.6817 5.65716 12.3428C6.31834 13.004 7.16073 13.4543 8.07781 13.6367C8.99488 13.8191 9.94546 13.7255 10.8093 13.3677C11.6732 13.0098 12.4116 12.4039 12.931 11.6264C13.4505 10.849 13.7278 9.93492 13.7278 8.99988C13.7255 7.74672 13.2267 6.54553 12.3406 5.65941C11.4545 4.77329 10.2533 4.27447 9.00013 4.27222Z" fill="white"/>
<path d="M4.58631 8.99996C4.58589 9.6885 4.74702 10.3675 5.05675 10.9825C7.00207 9.52388 8.18398 7.46773 8.37774 4.62726C7.32499 4.77703 6.36172 5.30189 5.66511 6.10529C4.96851 6.90869 4.58542 7.93661 4.58631 8.99996Z" fill="#0A4888"/>
<path d="M9.61987 4.63123C9.81363 7.46782 10.9955 9.52397 12.9409 10.9864C13.2562 10.3606 13.418 9.66872 13.4129 8.96796C13.4077 8.26719 13.2357 7.57774 12.9112 6.95664C12.5866 6.33555 12.1188 5.80068 11.5465 5.3963C10.9741 4.99192 10.3137 4.72966 9.61987 4.63123Z" fill="#0A4888"/>
<path d="M8.99997 10.4073C7.96919 10.4073 7.13293 11.201 7.13293 12.1798C7.13325 12.5142 7.2319 12.8412 7.41659 13.1199C8.43591 13.5113 9.56404 13.5113 10.5834 13.1199C10.7685 12.8405 10.8671 12.5127 10.867 12.1775C10.867 11.201 10.0308 10.4073 8.99997 10.4073Z" fill="#0A4888"/>
<path d="M9.40403 4.60553C9.27073 4.59313 9.13665 4.58615 9.00024 4.58615C8.86384 4.58615 8.72976 4.59313 8.59646 4.60553C8.56545 6.27726 8.15779 7.70563 7.46802 8.917H10.5325C9.8427 7.70641 9.43504 6.27726 9.40403 4.60553Z" fill="#E0252B"/>
<path d="M10.6338 9.08838H7.36625C6.8227 9.98014 6.12644 10.7693 5.30933 11.4197C5.66242 11.9576 6.12841 12.4122 6.67492 12.7519C6.65413 12.634 6.64349 12.5144 6.64315 12.3946C6.64315 11.1786 7.69718 10.1928 8.99846 10.1928C10.2997 10.1928 11.3538 11.1786 11.3538 12.3946C11.3534 12.5144 11.3428 12.634 11.322 12.7519C11.8691 12.4124 12.3356 11.9578 12.6891 11.4197C11.8726 10.7691 11.1768 9.98001 10.6338 9.08838Z" fill="#E0252B"/>
<path d="M9.15523 12.707C9.10293 12.6751 9.06533 12.6238 9.0506 12.5643C9.04775 12.5527 9.04108 12.5424 9.03166 12.535C9.02225 12.5277 9.01064 12.5237 8.99868 12.5237C8.98672 12.5237 8.9751 12.5277 8.96569 12.535C8.95628 12.5424 8.94961 12.5527 8.94675 12.5643C8.93202 12.6238 8.89442 12.6751 8.84212 12.707C8.83205 12.7124 8.83127 12.7163 8.83437 12.724C8.87121 12.7968 8.92204 12.8616 8.98395 12.9147C8.99403 12.9224 8.99635 12.9224 8.99868 12.9224C9.001 12.9224 9.00333 12.9224 9.0134 12.9147C9.07532 12.8616 9.12615 12.7968 9.16298 12.724C9.16763 12.7201 9.16686 12.7124 9.15523 12.707Z" fill="#C5A349"/>
<path d="M9.72394 11.8614C9.49143 11.8614 9.27597 12.0443 9.14809 12.3806C9.14692 12.3862 9.14692 12.3921 9.14809 12.3977C9.14799 12.4027 9.1489 12.4077 9.15077 12.4123C9.15264 12.417 9.15543 12.4212 9.15898 12.4248C9.16253 12.4283 9.16676 12.4311 9.17141 12.433C9.17607 12.4348 9.18105 12.4358 9.18607 12.4357C9.19309 12.4359 9.20005 12.4342 9.2061 12.4306C9.21215 12.427 9.21704 12.4218 9.22017 12.4155C9.31783 12.2047 9.49918 12.1055 9.60226 12.1055C9.62995 12.1057 9.65644 12.1168 9.67602 12.1364C9.6956 12.1559 9.70669 12.1824 9.70689 12.2101C9.70689 12.2238 9.70418 12.2374 9.69891 12.25C9.69364 12.2627 9.68592 12.2742 9.6762 12.2838C9.66647 12.2935 9.65493 12.3011 9.64224 12.3063C9.62955 12.3115 9.61596 12.3141 9.60226 12.314C9.59581 12.3144 9.58934 12.3144 9.58289 12.314C9.57887 12.3126 9.5745 12.3129 9.57063 12.3146C9.56676 12.3163 9.56367 12.3194 9.56196 12.3233C9.55733 12.343 9.55781 12.3637 9.56337 12.3832C9.56893 12.4027 9.57938 12.4205 9.59374 12.4349C9.62891 12.4695 9.67612 12.4892 9.72549 12.4899C9.80843 12.4899 9.88797 12.457 9.94662 12.3983C10.0053 12.3397 10.0382 12.2601 10.0382 12.1772C10.0382 12.0942 10.0053 12.0147 9.94662 11.9561C9.88797 11.8974 9.80843 11.8645 9.72549 11.8645L9.72394 11.8614Z" fill="#C5A349"/>
<path d="M8.96435 12.3978C8.96435 12.4072 8.9681 12.4163 8.97479 12.423C8.98148 12.4297 8.99054 12.4334 9 12.4334C9.00945 12.4334 9.01852 12.4297 9.02521 12.423C9.03189 12.4163 9.03565 12.4072 9.03565 12.3978C9.03565 12.2048 9.30691 11.8553 9.30691 11.7173C9.30691 11.5367 9.0744 10.9741 8.9969 10.9741C8.9194 10.9741 8.68689 11.5367 8.68689 11.7173C8.68689 11.8522 8.9566 12.2048 8.95815 12.3978H8.96435Z" fill="#C5A349"/>
<path d="M8.85524 12.3977C8.85641 12.3921 8.85641 12.3862 8.85524 12.3806C8.72736 12.0443 8.50803 11.8614 8.2794 11.8614C8.19646 11.8614 8.11692 11.8943 8.05827 11.953C7.99962 12.0116 7.96667 12.0911 7.96667 12.1741C7.96667 12.257 7.99962 12.3366 8.05827 12.3952C8.11692 12.4539 8.19646 12.4868 8.2794 12.4868C8.32877 12.4861 8.37597 12.4664 8.41115 12.4318C8.42551 12.4174 8.43596 12.3996 8.44152 12.3801C8.44708 12.3606 8.44756 12.3399 8.44293 12.3202C8.44122 12.3163 8.43813 12.3132 8.43426 12.3115C8.43039 12.3098 8.42602 12.3096 8.422 12.3109C8.41555 12.3113 8.40908 12.3113 8.40263 12.3109C8.38892 12.311 8.37534 12.3084 8.36265 12.3032C8.34996 12.298 8.33842 12.2904 8.32869 12.2807C8.31896 12.2711 8.31124 12.2596 8.30598 12.2469C8.30071 12.2343 8.298 12.2207 8.298 12.207C8.2982 12.1793 8.30929 12.1528 8.32887 12.1333C8.34845 12.1137 8.37494 12.1026 8.40263 12.1024C8.50571 12.1024 8.68706 12.2016 8.78472 12.4124C8.78785 12.4187 8.79274 12.4239 8.79879 12.4275C8.80484 12.4311 8.81179 12.4328 8.81882 12.4326C8.82816 12.4324 8.83709 12.4287 8.84384 12.4222C8.85059 12.4158 8.85466 12.407 8.85524 12.3977Z" fill="#C5A349"/>
</svg>
