<svg width="14" height="12" viewBox="0 0 14 12" fill="none" xmlns="http://www.w3.org/2000/svg">
<path d="M13.6133 5.73335C12.2666 2.60669 9.73326 0.666687 6.99992 0.666687C4.26659 0.666687 1.73326 2.60669 0.386589 5.73335C0.34988 5.81746 0.330933 5.90825 0.330933 6.00002C0.330933 6.09179 0.34988 6.18258 0.386589 6.26669C1.73326 9.39335 4.26659 11.3334 6.99992 11.3334C9.73326 11.3334 12.2666 9.39335 13.6133 6.26669C13.65 6.18258 13.6689 6.09179 13.6689 6.00002C13.6689 5.90825 13.65 5.81746 13.6133 5.73335ZM6.99992 10C4.88659 10 2.88659 8.47335 1.73326 6.00002C2.88659 3.52669 4.88659 2.00002 6.99992 2.00002C9.11326 2.00002 11.1133 3.52669 12.2666 6.00002C11.1133 8.47335 9.11326 10 6.99992 10ZM6.99992 3.33335C6.47251 3.33335 5.95693 3.48975 5.5184 3.78277C5.07987 4.07579 4.73808 4.49226 4.53624 4.97953C4.33441 5.4668 4.2816 6.00298 4.38449 6.52026C4.48739 7.03754 4.74136 7.5127 5.1143 7.88564C5.48724 8.25858 5.9624 8.51255 6.47968 8.61545C6.99696 8.71834 7.53314 8.66553 8.02041 8.4637C8.50768 8.26187 8.92416 7.92007 9.21717 7.48154C9.51019 7.04301 9.66659 6.52744 9.66659 6.00002C9.66659 5.29278 9.38564 4.6145 8.88554 4.1144C8.38544 3.61431 7.70717 3.33335 6.99992 3.33335ZM6.99992 7.33335C6.73621 7.33335 6.47843 7.25515 6.25916 7.10865C6.0399 6.96214 5.869 6.7539 5.76808 6.51026C5.66717 6.26663 5.64076 5.99854 5.69221 5.7399C5.74366 5.48126 5.87064 5.24368 6.05711 5.05721C6.24358 4.87074 6.48116 4.74375 6.7398 4.69231C6.99844 4.64086 7.26653 4.66726 7.51017 4.76818C7.7538 4.8691 7.96204 5.03999 8.10855 5.25926C8.25506 5.47853 8.33325 5.73631 8.33325 6.00002C8.33325 6.35364 8.19278 6.69278 7.94273 6.94283C7.69268 7.19288 7.35354 7.33335 6.99992 7.33335Z" fill="black"/>
</svg>
