<svg width="115" height="115" viewBox="0 0 115 115" fill="none" xmlns="http://www.w3.org/2000/svg">
<path d="M14.597 114.054H0.946045V100.403V86.7521H14.597H28.248V100.403V114.054H14.597ZM14.597 110.154H24.3477V100.403V90.6524H14.597H4.84632V100.403V110.154H14.597ZM14.597 106.254H8.7466V100.403V94.5527H14.597H20.4474V100.403V106.254H14.597ZM34.0984 114.054H32.1483V104.303V94.5527H34.0984H36.0486V98.4529V102.353H37.9987H39.9488V104.303V106.254H37.9987H36.0486V110.154V114.054H34.0984ZM43.8491 114.054H39.9488V112.104V110.154H41.899H43.8491V106.254V102.353H47.7494H51.6497V104.303V106.254H49.6995H47.7494V110.154V114.054H43.8491ZM69.2009 114.054H67.2508V112.104V110.154H65.3007H63.3505V108.204V106.254H61.4004H59.4502V108.204V110.154H57.5001H55.55V108.204V106.254H57.5001H59.4502V104.303V102.353H61.4004H63.3505V100.403V98.4529H59.4502H55.55V96.5028V94.5527H53.5998H51.6497V96.5028V98.4529H49.6995H47.7494V94.5527V90.6524H49.6995H51.6497V88.7022V86.7521H49.6995H47.7494V84.802V82.8518H43.8491H39.9488V86.7521V90.6524H41.899H43.8491V92.6025V94.5527H41.899H39.9488V92.6025V90.6524H36.0486H32.1483V86.7521V82.8518H36.0486H39.9488V80.9017V78.9515H34.0984H28.248V80.9017V82.8518H26.2979H24.3477V80.9017V78.9515H26.2979H28.248V77.0014V75.0513H26.2979H24.3477V73.1011V71.151H26.2979H28.248V69.2008V67.2507H22.3976H16.5472V69.2008V71.151H14.597H12.6469V73.1011V75.0513H10.6967H8.7466V71.151V67.2507H6.79646H4.84632V75.0513V82.8518H2.89618H0.946045V75.0513V67.2507H2.89618H4.84632V65.3006V63.3504H2.89618H0.946045V53.5997V43.849H4.84632H8.7466V41.8989V39.9487H4.84632H0.946045V36.0485V32.1482H10.6967H20.4474V34.0983V36.0485H22.3976H24.3477V34.0983V32.1482H34.0984H43.8491V34.0983V36.0485H41.899H39.9488V39.9487V43.849H41.899H43.8491V41.8989V39.9487H47.7494H51.6497V41.8989V43.849H49.6995H47.7494V47.7493V51.6496H55.55H63.3505V53.5997V55.5499H69.2009H75.0514V53.5997V51.6496H77.0015H78.9516V49.6994V47.7493H77.0015H75.0514V45.7992V43.849H77.0015H78.9516V41.8989V39.9487H75.0514H71.1511V37.9986V36.0485H69.2009H67.2508V37.9986V39.9487H63.3505H59.4502V37.9986V36.0485H57.5001H55.55V34.0983V32.1482H53.5998H51.6497V34.0983V36.0485H49.6995H47.7494V30.198V24.3476H49.6995H51.6497V22.3975V20.4473H49.6995H47.7494V18.4972V16.5471H45.7993H43.8491V22.3975V28.2479H41.899H39.9488V22.3975V16.5471H36.0486H32.1483V14.5969V12.6468H34.0984H36.0486V10.6966V8.7465H34.0984H32.1483V6.79636V4.84622H34.0984H36.0486V2.89609V0.945946H37.9987H39.9488V4.84622V8.7465H41.899H43.8491V6.79636V4.84622H47.7494H51.6497V6.79636V8.7465H49.6995H47.7494V12.6468V16.5471H55.55H63.3505V12.6468V8.7465H65.3007H67.2508V6.79636V4.84622H63.3505H59.4502V2.89609V0.945946H71.1511H82.8519V4.84622V8.7465H80.9018H78.9516V6.79636V4.84622H75.0514H71.1511V6.79636V8.7465H73.1012H75.0514V10.6966V12.6468H77.0015H78.9516V14.5969V16.5471H80.9018H82.8519V18.4972V20.4473H78.9516H75.0514V16.5471V12.6468H73.1012H71.1511V14.5969V16.5471H67.2508H63.3505V18.4972V20.4473H65.3007H67.2508V24.3476V28.2479H65.3007H63.3505V32.1482V36.0485H65.3007H67.2508V34.0983V32.1482H69.2009H71.1511V28.2479V24.3476H73.1012H75.0514V28.2479V32.1482H73.1012H71.1511V34.0983V36.0485H75.0514H78.9516V37.9986V39.9487H80.9018H82.8519V36.0485V32.1482H84.8021H86.7522V34.0983V36.0485H88.7023H90.6525V34.0983V32.1482H92.6026H94.5528V34.0983V36.0485H96.5029H98.453V34.0983V32.1482H100.403H102.353V34.0983V36.0485H104.303H106.254V34.0983V32.1482H108.204H110.154V34.0983V36.0485H112.104H114.054V37.9986V39.9487H104.303H94.5528V41.8989V43.849H100.403H106.254V45.7992V47.7493H108.204H110.154V49.6994V51.6496H112.104H114.054V53.5997V55.5499H110.154H106.254V57.5V59.4501H110.154H114.054V65.3006V71.151H110.154H106.254V69.2008V67.2507H104.303H102.353V63.3504V59.4501H100.403H98.453V61.4003V63.3504H96.5029H94.5528V61.4003V59.4501H92.6026H90.6525V57.5V55.5499H88.7023H86.7522V53.5997V51.6496H88.7023H90.6525V49.6994V47.7493H92.6026H94.5528V45.7992V43.849H92.6026H90.6525V41.8989V39.9487H88.7023H86.7522V43.849V47.7493H84.8021H82.8519V53.5997V59.4501H84.8021H86.7522V61.4003V63.3504H82.8519H78.9516V65.3006V67.2507H88.7023H98.453V69.2008V71.151H100.403H102.353V73.1011V75.0513H100.403H98.453V82.8518V90.6524H100.403H102.353V92.6025V94.5527H106.254H110.154V96.5028V98.4529H112.104H114.054V100.403V102.353H112.104H110.154V106.254V110.154H108.204H106.254V112.104V114.054H104.303H102.353V112.104V110.154H96.5029H90.6525V108.204V106.254H86.7522H82.8519V108.204V110.154H80.9018H78.9516V112.104V114.054H77.0015H75.0514V112.104V110.154H77.0015H78.9516V108.204V106.254H75.0514H71.1511V102.353V98.4529H69.2009H67.2508V100.403V102.353H65.3007H63.3505V104.303V106.254H65.3007H67.2508V108.204V110.154H69.2009H71.1511V112.104V114.054H69.2009ZM104.303 110.154H106.254V108.204V106.254H104.303H102.353V104.303V102.353H104.303H106.254V100.403V98.4529H104.303H102.353V100.403V102.353H100.403H98.453V100.403V98.4529H96.5029H94.5528V100.403V102.353H96.5029H98.453V104.303V106.254H100.403H102.353V108.204V110.154H104.303ZM84.8021 102.353H90.6525V100.403V98.4529H84.8021H78.9516V96.5028V94.5527H77.0015H75.0514V92.6025V90.6524H71.1511H67.2508V88.7022V86.7521H71.1511H75.0514V84.802V82.8518H77.0015H78.9516V80.9017V78.9515H84.8021H90.6525V77.0014V75.0513H94.5528H98.453V73.1011V71.151H94.5528H90.6525V73.1011V75.0513H86.7522H82.8519V73.1011V71.151H77.0015H71.1511V69.2008V67.2507H73.1012H75.0514V65.3006V63.3504H73.1012H71.1511V61.4003V59.4501H63.3505H55.55V61.4003V63.3504H53.5998H51.6497V65.3006V67.2507H49.6995H47.7494V63.3504V59.4501H49.6995H51.6497V57.5V55.5499H49.6995H47.7494V53.5997V51.6496H45.7993H43.8491V49.6994V47.7493H41.899H39.9488V49.6994V51.6496H41.899H43.8491V53.5997V55.5499H41.899H39.9488V59.4501V63.3504H41.899H43.8491V67.2507V71.151H41.899H39.9488V69.2008V67.2507H37.9987H36.0486V59.4501V51.6496H34.0984H32.1483V49.6994V47.7493H34.0984H36.0486V41.8989V36.0485H30.1981H24.3477V37.9986V39.9487H22.3976H20.4474V37.9986V36.0485H18.4973H16.5472V37.9986V39.9487H14.597H12.6469V37.9986V36.0485H10.6967H8.7466V37.9986V39.9487H10.6967H12.6469V41.8989V43.849H10.6967H8.7466V45.7992V47.7493H6.79646H4.84632V51.6496V55.5499H8.7466H12.6469V53.5997V51.6496H14.597H16.5472V57.5V63.3504H14.597H12.6469V61.4003V59.4501H8.7466H4.84632V61.4003V63.3504H6.79646H8.7466V65.3006V67.2507H12.6469H16.5472V65.3006V63.3504H22.3976H28.248V65.3006V67.2507H32.1483H36.0486V69.2008V71.151H34.0984H32.1483V73.1011V75.0513H37.9987H43.8491V73.1011V71.151H47.7494H51.6497V73.1011V75.0513H49.6995H47.7494V78.9515V82.8518H53.5998H59.4502V84.802V86.7521H61.4004H63.3505V88.7022V90.6524H65.3007H67.2508V92.6025V94.5527H69.2009H71.1511V96.5028V98.4529H75.0514H78.9516V100.403V102.353H84.8021ZM65.3007 86.7521H63.3505V84.802V82.8518H61.4004H59.4502V80.9017V78.9515H57.5001H55.55V77.0014V75.0513H57.5001H59.4502V73.1011V71.151H61.4004H63.3505V69.2008V67.2507H59.4502H55.55V65.3006V63.3504H63.3505H71.1511V65.3006V67.2507H69.2009H67.2508V73.1011V78.9515H69.2009H71.1511V80.9017V82.8518H69.2009H67.2508V84.802V86.7521H65.3007ZM65.3007 82.8518H67.2508V80.9017V78.9515H65.3007H63.3505V80.9017V82.8518H65.3007ZM26.2979 59.4501H24.3477V57.5V55.5499H26.2979H28.248V53.5997V51.6496H24.3477H20.4474V49.6994V47.7493H18.4973H16.5472V45.7992V43.849H20.4474H24.3477V41.8989V39.9487H28.248H32.1483V41.8989V43.849H28.248H24.3477V45.7992V47.7493H26.2979H28.248V49.6994V51.6496H30.1981H32.1483V53.5997V55.5499H30.1981H28.248V57.5V59.4501H26.2979ZM10.6967 51.6496H8.7466V49.6994V47.7493H10.6967H12.6469V49.6994V51.6496H10.6967ZM57.5001 94.5527H59.4502V92.6025V90.6524H57.5001H55.55V92.6025V94.5527H57.5001ZM88.7023 94.5527H94.5528V88.7022V82.8518H88.7023H82.8519V88.7022V94.5527H88.7023ZM88.7023 90.6524H86.7522V88.7022V86.7521H88.7023H90.6525V88.7022V90.6524H88.7023ZM77.0015 59.4501H78.9516V57.5V55.5499H77.0015H75.0514V57.5V59.4501H77.0015ZM102.353 55.5499H106.254V51.6496V47.7493H100.403H94.5528V49.6994V51.6496H96.5029H98.453V53.5997V55.5499H102.353ZM80.9018 47.7493H82.8519V45.7992V43.849H80.9018H78.9516V45.7992V47.7493H80.9018ZM92.6026 39.9487H94.5528V37.9986V36.0485H92.6026H90.6525V37.9986V39.9487H92.6026ZM57.5001 32.1482H59.4502V30.198V28.2479H61.4004H63.3505V26.2978V24.3476H61.4004H59.4502V26.2978V28.2479H57.5001H55.55V26.2978V24.3476H53.5998H51.6497V26.2978V28.2479H53.5998H55.55V30.198V32.1482H57.5001ZM41.899 16.5471H43.8491V14.5969V12.6468H41.899H39.9488V14.5969V16.5471H41.899ZM69.2009 12.6468H71.1511V10.6966V8.7465H69.2009H67.2508V10.6966V12.6468H69.2009ZM108.204 86.7521H106.254V84.802V82.8518H104.303H102.353V80.9017V78.9515H104.303H106.254V80.9017V82.8518H108.204H110.154V78.9515V75.0513H112.104H114.054V78.9515V82.8518H112.104H110.154V84.802V86.7521H108.204ZM10.6967 82.8518H8.7466V80.9017V78.9515H10.6967H12.6469V80.9017V82.8518H10.6967ZM69.2009 51.6496H67.2508V49.6994V47.7493H65.3007H63.3505V45.7992V43.849H65.3007H67.2508V45.7992V47.7493H69.2009H71.1511V49.6994V51.6496H69.2009ZM57.5001 47.7493H55.55V45.7992V43.849H57.5001H59.4502V45.7992V47.7493H57.5001ZM14.597 28.2479H0.946045V14.5969V0.945946H14.597H28.248V14.5969V28.2479H14.597ZM14.597 24.3476H24.3477V14.5969V4.84622H14.597H4.84632V14.5969V24.3476H14.597ZM14.597 20.4473H8.7466V14.5969V8.7465H14.597H20.4474V14.5969V20.4473H14.597ZM34.0984 28.2479H32.1483V24.3476V20.4473H34.0984H36.0486V24.3476V28.2479H34.0984ZM80.9018 28.2479H78.9516V26.2978V24.3476H80.9018H82.8519V26.2978V28.2479H80.9018ZM100.403 28.2479H86.7522V14.5969V0.945946H100.403H114.054V14.5969V28.2479H100.403ZM100.403 24.3476H110.154V14.5969V4.84622H100.403H90.6525V14.5969V24.3476H100.403ZM100.403 20.4473H94.5528V14.5969V8.7465H100.403H106.254V14.5969V20.4473H100.403ZM57.5001 12.6468H55.55V10.6966V8.7465H57.5001H59.4502V10.6966V12.6468H57.5001Z" fill="black"/>
</svg>
