<svg width="30" height="30" viewBox="0 0 30 30" fill="none" xmlns="http://www.w3.org/2000/svg">
<path fill-rule="evenodd" clip-rule="evenodd" d="M0 0H30V30H0V0Z" fill="white"/>
<path fill-rule="evenodd" clip-rule="evenodd" d="M13.0617 3.99086C12.3369 4.13887 11.5659 4.46353 11.5659 4.46353C11.9477 3.94355 12.7226 3.30653 12.7226 3.30653C12.5094 2.90592 12.3206 2.31279 12.3206 2.31279C12.3206 2.31279 13.2167 2.36197 13.9182 2.58967C13.9182 2.58967 15.1099 1.93646 16.3447 1.91638C16.3447 1.91638 15.4446 2.43605 15.0623 2.91993C15.1637 2.97331 15.8835 3.18871 16.4441 3.51913C16.4441 3.51913 15.4306 3.54777 14.5006 3.67508C14.5006 3.67508 14.1731 4.13701 13.8962 5.18833C13.8961 5.18833 13.4192 4.66306 13.0617 3.99086Z" fill="black"/>
<path fill-rule="evenodd" clip-rule="evenodd" d="M17.8767 4.86134C17.263 4.17872 16.4441 3.51913 16.4441 3.51913C17.1974 3.52987 18.3153 3.97437 18.3153 3.97437C18.5338 3.56131 18.6868 2.99292 18.6868 2.99292C18.6868 2.99292 19.1145 3.71679 19.3087 4.51723C19.3087 4.51723 20.1966 5.04889 20.8666 5.93867C20.8666 5.93867 20.1675 5.79283 19.6528 5.79532C19.6513 5.91018 19.8416 6.85459 19.8002 7.50391C19.8002 7.50391 19.2303 6.57771 18.6955 5.80622C18.6955 5.80622 17.8359 5.82178 16.9328 6.06862C16.9329 6.06862 17.4388 5.48436 17.8767 4.86134ZM18.8602 9.31086C19.3128 8.54777 19.8004 7.50406 19.8004 7.50406C19.9499 8.2021 19.9633 9.09265 19.9633 9.09265C20.4123 8.99802 21.2071 8.61671 21.2071 8.61671C21.2071 8.61671 20.8531 9.55988 20.0593 10.2831C20.0593 10.2831 20.1396 10.8482 20.149 11.5939C20.149 11.5939 19.5876 11.3438 19.1221 11.0641C19.023 11.1218 18.4603 11.5046 17.5099 11.7013C17.5099 11.7013 17.9123 11.0725 18.2453 10.4584C18.2453 10.4584 17.5826 10.0218 17.0576 9.30634C17.0576 9.30619 18.0783 9.43505 18.8602 9.31086Z" fill="black"/>
<path fill-rule="evenodd" clip-rule="evenodd" d="M15.6586 7.75368C16.3529 8.61373 17.0574 9.30631 17.0574 9.30631C15.9063 9.13526 14.9717 8.81247 14.9717 8.81247C14.5042 9.56202 13.994 10.4334 13.994 10.4334C13.994 10.4334 13.7088 9.48809 13.6605 8.41513C13.6605 8.41513 13.0823 8.21281 12.0167 7.79321C12.0167 7.79321 12.7517 7.33688 13.6414 7.08802C13.5894 6.98546 13.7257 5.70986 13.8963 5.18848C13.8963 5.18848 14.415 6.02938 14.8374 6.64757C14.8374 6.64757 15.6642 6.36711 16.9331 6.0686C16.9329 6.0686 16.2386 6.94966 15.6586 7.75368ZM9.3383 11.0068C9.2684 10.8753 9.20325 10.7413 9.14298 10.6051C9.15512 10.1489 9.1959 9.5614 9.31262 9.10569C9.31262 9.10569 8.97816 8.87364 8.63233 8.57202C8.62844 8.51957 8.62393 8.46665 8.62097 8.41358C8.81956 8.33949 9.24119 8.19055 9.60942 8.10526C9.6516 7.99803 9.88085 7.25922 10.324 6.74951C10.324 6.74951 10.3538 7.25175 10.4743 7.92036C10.4743 7.92036 11.1737 7.76193 12.0165 7.7929C12.0165 7.7929 11.2355 8.40797 10.7437 9.03285C10.9221 9.7533 11.281 10.4448 11.281 10.4448C10.7446 10.1413 10.1773 9.73929 10.1773 9.73929C9.97813 9.97617 9.57767 10.6152 9.3383 11.0068ZM13.8 14.2781C13.7131 14.2625 13.6267 14.2447 13.5408 14.2247C13.2481 13.9108 12.8015 13.3983 12.4605 12.8596C12.4605 12.8596 11.2027 12.7582 10.3163 12.37C10.3163 12.37 11.0494 12.2323 11.8543 11.8172C11.8024 11.7146 11.4954 11.1487 11.2808 10.4451C11.2808 10.4451 12.0497 11.0662 12.6193 11.4298C12.6193 11.4298 13.3432 11.0133 13.9939 10.4334C13.9939 10.4334 13.8289 11.235 13.7375 12.1504C14.158 12.3905 14.5819 12.6245 15.0091 12.8522C14.3528 12.9477 13.7067 12.9277 13.7067 12.9277C13.6812 13.436 13.7495 13.9703 13.8 14.2781ZM19.2723 12.6436C19.2723 12.6436 18.4048 12.8729 17.5581 12.9046C17.5581 12.9046 17.5517 12.3271 17.5097 11.7012C17.5097 11.7012 17.0601 12.3394 16.4732 12.953C15.7801 12.9431 15.0091 12.8523 15.0091 12.8523C15.2735 13.1214 15.5455 13.383 15.8248 13.6366C15.3028 14.0803 14.8203 14.3768 14.8203 14.3768C14.8888 14.3777 14.9585 14.3782 15.0275 14.3773C16.6752 14.3503 18.1643 13.6945 19.2723 12.6436Z" fill="black"/>
<path fill-rule="evenodd" clip-rule="evenodd" d="M8.69719 7.01817C8.69719 7.01817 9.16067 6.44014 9.70167 5.97073C9.70167 5.97073 9.88252 6.30473 10.3239 6.7497C10.3239 6.7497 10.3272 6.2059 10.3904 5.3527C10.8847 4.91567 11.5659 4.46354 11.5659 4.46354C11.0009 4.42759 10.5793 4.45513 10.5793 4.45513C10.7104 3.80768 11.0064 3.11292 11.0064 3.11292C9.80517 4.06542 8.95975 5.44608 8.69719 7.01817ZM20.8283 23.7587C20.0185 23.7587 19.5267 23.0803 19.5267 22.3363C19.5267 21.5633 20.1001 21.0032 20.8484 21.0032C21.6776 21.0032 22.1774 21.6615 22.1774 22.3851C22.1774 23.2423 21.5558 23.7587 20.8283 23.7587ZM20.783 21.3929C20.2791 21.3929 20.1286 21.8725 20.1286 22.1975C20.1286 22.6727 20.3401 23.3679 20.9214 23.3679C21.336 23.3679 21.5758 22.9989 21.5758 22.5556C21.5758 22.0844 21.3931 21.3929 20.783 21.3929ZM15.8731 23.3727C15.8731 23.5189 15.9012 23.5715 16.1373 23.6171V23.7183C15.8811 23.7061 15.722 23.694 15.5721 23.694C15.4213 23.694 15.263 23.7061 15.0842 23.7183V23.6161C15.2423 23.5881 15.2713 23.5189 15.2713 23.3276V21.3401C15.2713 21.2259 15.2224 21.1726 15.0842 21.1686V21.0554H16.2871C17.0395 21.0554 17.3122 21.4133 17.3122 21.8853C17.3122 22.3896 16.9298 22.6988 16.4054 22.6988C16.2064 22.6988 15.9139 22.5967 15.9139 22.5113C15.9139 22.4749 15.9382 22.4749 15.9748 22.4749C16.0113 22.4749 16.0638 22.487 16.1167 22.487C16.5435 22.487 16.7106 22.2472 16.7106 21.9097C16.7106 21.5434 16.4826 21.4134 16.1245 21.4134L15.8731 21.4405V23.3727ZM18.098 21.315C18.098 21.2016 18.0494 21.1482 17.9111 21.1445V21.0386C18.0897 21.0508 18.2479 21.0629 18.3987 21.0629C18.5495 21.0629 18.7078 21.0508 18.8863 21.0386V21.1445C18.7485 21.148 18.6994 21.2016 18.6994 21.315V23.4456C18.6994 23.5598 18.7485 23.6124 18.8863 23.6171V23.7183C18.7079 23.7061 18.5492 23.694 18.3987 23.694C18.2479 23.694 18.0899 23.7061 17.9111 23.7183V23.6171C18.0494 23.6126 18.098 23.56 18.098 23.4456V21.315ZM22.9926 21.3132C22.9926 21.1997 22.9434 21.1463 22.8051 21.1426V21.0358C22.984 21.0477 23.1428 21.061 23.2933 21.061C23.403 21.061 23.5249 21.061 23.6514 21.0358L24.7734 22.8546H24.7813V21.3703C24.7813 21.1585 24.6473 21.1426 24.5376 21.1426V21.0358C24.6716 21.0477 24.8014 21.061 24.9279 21.061C25.0619 21.061 25.1961 21.0477 25.3267 21.0358V21.1426C25.188 21.1462 25.1391 21.1997 25.1391 21.3132V23.7183H24.708L23.3583 21.6187H23.3504V23.3866C23.3504 23.5984 23.4838 23.6143 23.5941 23.6143V23.7164C23.4601 23.7042 23.3297 23.6912 23.2038 23.6912C23.0698 23.6912 22.9353 23.7042 22.8051 23.7164V23.6143C22.9434 23.6107 22.9926 23.5572 22.9926 23.4437V21.3132ZM26.1576 22.7936C26.2409 23.2499 26.5403 23.4636 26.9887 23.4636C27.235 23.4636 27.5912 23.3925 27.5912 23.0784C27.5912 22.8274 27.3316 22.7608 27.1392 22.7018L26.8417 22.6137C26.4149 22.4881 25.9881 22.3082 25.9881 21.8145C25.9881 21.1661 26.6158 20.9694 27.2393 20.9694C27.5037 20.9694 27.7752 21.0153 28.0181 21.1034C28.0181 21.405 28.0348 21.6596 28.0513 21.8774H27.9467C27.8589 21.4922 27.5454 21.3122 27.1688 21.3122C26.9587 21.3122 26.6079 21.3798 26.6079 21.6682C26.6079 21.8988 26.8082 21.9651 26.98 22.0151L27.4192 22.1415C27.8418 22.2621 28.2354 22.4177 28.2354 22.9614C28.2354 23.5131 27.6788 23.8065 26.9967 23.8065C26.6912 23.8065 26.369 23.757 26.0887 23.6557C26.0887 23.325 26.0762 23.037 26.0549 22.7936H26.1576ZM5.01933 21.315C5.01933 21.2016 4.97077 21.1482 4.83194 21.1445V21.0386C5.01092 21.0508 5.16967 21.0629 5.32017 21.0629C5.47068 21.0629 5.6288 21.0508 5.80794 21.0386V21.1445C5.66974 21.148 5.62149 21.2016 5.62149 21.315L5.62102 22.12L6.6048 22.1209V21.315C6.6048 21.2016 6.55655 21.1482 6.41835 21.1445V21.0386C6.59687 21.0508 6.75577 21.0629 6.90596 21.0629C7.05631 21.0629 7.21521 21.0508 7.39326 21.0386V21.1445C7.25552 21.148 7.20665 21.2016 7.20665 21.315V23.4456C7.20665 23.5598 7.25536 23.6124 7.39326 23.6161V23.7201C7.21505 23.7083 7.05631 23.6958 6.90549 23.6958C6.75577 23.6958 6.59687 23.7083 6.41788 23.7201V23.6161C6.55656 23.6126 6.6048 23.56 6.6048 23.4456V22.5105H5.62102V23.4456C5.62102 23.5598 5.66974 23.6124 5.8081 23.6161V23.7201C5.62911 23.7083 5.47083 23.6958 5.32033 23.6958C5.16999 23.6958 5.01108 23.7083 4.8321 23.7201V23.6161C4.9703 23.6126 5.01948 23.56 5.01948 23.4456V21.315H5.01933ZM8.89843 22.5547C9.00379 22.2671 9.1339 21.9455 9.22729 21.6206H9.23569C9.31709 22.031 9.38619 22.2915 9.47148 22.5547H8.89843ZM7.91402 23.7184C8.05658 23.7063 8.1951 23.6941 8.33704 23.6941C8.47525 23.6941 8.61781 23.7063 8.75586 23.7184V23.6163C8.62139 23.6077 8.56458 23.5601 8.56458 23.4862C8.56458 23.4457 8.57672 23.4007 8.59742 23.3436L8.77578 22.864H9.56844L9.69871 23.2594C9.71941 23.312 9.73949 23.4056 9.73949 23.4619C9.73949 23.5556 9.68657 23.5883 9.53607 23.6163V23.7184C9.71085 23.7063 9.88563 23.6941 10.0607 23.6941C10.2308 23.6941 10.4061 23.7063 10.577 23.7184V23.6163C10.4553 23.5844 10.3938 23.5312 10.3329 23.3522L9.58478 21.0389C9.45856 21.0511 9.32845 21.0632 9.20238 21.0632C9.07678 21.0632 8.95025 21.0511 8.82045 21.0389V21.1448C8.93002 21.1448 8.97515 21.2095 8.97515 21.2509C8.97515 21.2911 8.94605 21.3482 8.92224 21.4091L8.12522 23.4292C8.0846 23.536 8.03168 23.6007 7.91355 23.6165V23.7184H7.91402ZM11.3976 21.6975C11.4018 21.584 11.4093 21.4698 11.4093 21.3077C11.4093 21.181 11.3811 21.1652 11.2268 21.1445V21.0386C11.3485 21.0508 11.4951 21.0629 11.6418 21.0629C11.788 21.0629 11.9346 21.0508 12.0807 21.0386L12.7923 22.9236L13.43 21.0386C13.573 21.0508 13.7112 21.0629 13.8534 21.0629C13.9954 21.0629 14.1378 21.0508 14.276 21.0386V21.1445C14.1341 21.1566 14.1134 21.2016 14.1134 21.3113C14.1134 21.4256 14.1295 21.6083 14.1415 21.746L14.2723 23.4823C14.2804 23.5881 14.3979 23.6039 14.4794 23.616V23.7181C14.3042 23.706 14.1258 23.6938 13.9509 23.6938C13.7719 23.6938 13.5973 23.706 13.4298 23.7181V23.616C13.6295 23.5917 13.6824 23.5551 13.6824 23.3685C13.6824 23.2703 13.6698 23.0876 13.6581 22.9536L13.5643 21.7423H13.5563L12.8774 23.7407H12.536L11.7592 21.718H11.7506L11.7184 22.9086C11.7147 23.1204 11.7061 23.2302 11.7061 23.3397C11.7061 23.5432 11.7263 23.5881 11.9705 23.616V23.7181C11.8079 23.706 11.6574 23.6938 11.5029 23.6938C11.353 23.6938 11.202 23.706 11.0761 23.7181V23.616C11.2348 23.6039 11.2999 23.5674 11.308 23.3969L11.3976 21.6975ZM4.21951 23.5695C3.94123 23.7832 3.54218 23.8686 3.28164 23.8686C2.31233 23.8686 1.76465 23.1169 1.76465 22.346C1.76465 21.5578 2.31234 20.7951 3.36273 20.7963C3.7305 20.7963 3.9943 20.8662 4.09765 20.9067C4.09765 21.2148 4.11414 21.5119 4.13702 21.8061H4.01936C3.94777 21.4304 3.68536 21.231 3.30841 21.231C2.7973 21.231 2.40229 21.6338 2.40229 22.3141C2.40229 22.8266 2.82376 23.4067 3.41642 23.4067C3.66762 23.4067 4.02886 23.2689 4.27149 23.0647L4.21951 23.5695ZM8.62092 25.1884C8.62092 25.1006 8.58295 25.0592 8.47665 25.0564V24.97C8.61485 24.9803 8.73703 24.9889 8.85282 24.9889C8.98496 24.9889 9.1767 24.9803 9.26744 24.97V25.0564C9.10729 25.0628 9.08534 25.1416 9.08534 25.2287V26.7663H9.66572C9.87318 26.7663 9.958 26.6718 10.0111 26.4327H10.1132C10.0752 26.6369 10.0406 26.8385 10.0374 27.0428H8.47665V26.9564C8.58295 26.9536 8.62092 26.9124 8.62092 26.8242V25.1884ZM10.6185 25.1987C10.6185 25.1109 10.5806 25.0695 10.4742 25.0667V24.9812H12.0599C12.0617 25.1421 12.07 25.3029 12.0848 25.4631H11.9989C11.9676 25.2905 11.9237 25.2306 11.7544 25.2306H11.0826V25.8376H11.5001C11.6409 25.8376 11.663 25.7898 11.6817 25.6774H11.7674C11.7562 25.7768 11.7499 25.8766 11.7486 25.9766C11.7486 26.0608 11.7579 26.1985 11.7674 26.2744H11.6817C11.6628 26.161 11.6409 26.1143 11.5001 26.1143H11.0826V26.7663H11.7886C11.9582 26.7663 12.0112 26.7091 12.0649 26.4458H12.1694C12.1471 26.6441 12.1345 26.8433 12.1319 27.0428H10.4742V26.9564C10.5806 26.9536 10.6185 26.9124 10.6185 26.8242V25.1987ZM12.5459 26.9575C12.6367 26.9445 12.6776 26.8947 12.709 26.8131L13.3246 25.258C13.3434 25.2099 13.3654 25.1671 13.3654 25.1361C13.3654 25.1042 13.3305 25.0538 13.2458 25.0538V24.9683C13.3461 24.9778 13.4436 24.9872 13.5409 24.9872C13.6383 24.9872 13.7386 24.9777 13.8362 24.9683L14.4136 26.7543C14.461 26.8911 14.5077 26.9325 14.6019 26.9577V27.0431C14.4698 27.0336 14.3353 27.0243 14.2033 27.0243C14.0684 27.0243 13.9334 27.0338 13.7985 27.0431V26.9577C13.9148 26.9351 13.9554 26.9099 13.9554 26.8388C13.9554 26.7947 13.9395 26.7224 13.9239 26.6822L13.8234 26.3786H13.2114L13.0732 26.7476C13.0574 26.7907 13.0479 26.8254 13.0479 26.8573C13.0479 26.9126 13.0919 26.951 13.1954 26.9577V27.0431C13.0886 27.0336 12.9791 27.0243 12.8721 27.0243C12.762 27.0243 12.6558 27.0338 12.5456 27.0431V26.9575H12.5459ZM13.7479 26.1404C13.6824 25.937 13.6285 25.7367 13.5657 25.42H13.5596C13.4875 25.6701 13.3868 25.9185 13.3053 26.1404H13.7479ZM16.2811 26.3082C16.2811 26.1826 16.2243 26.1769 16.0834 26.1742V26.0684C16.212 26.0787 16.3408 26.0881 16.4725 26.0881C16.6141 26.0881 16.7522 26.0787 16.8932 26.0684V26.1675C16.7832 26.1706 16.727 26.1985 16.727 26.3401V27.043H16.5446L16.4725 26.8321C16.2748 27.0175 16.0672 27.0831 15.8542 27.0831C15.2638 27.0831 14.8872 26.5968 14.8872 26.032C14.8872 25.3507 15.3426 24.9383 16.0205 24.9383C16.2373 24.9383 16.4708 24.9788 16.6395 25.0844C16.6395 25.2382 16.6459 25.4155 16.6586 25.6317H16.5681C16.5276 25.3526 16.2622 25.2149 16.002 25.2149C15.5651 25.2149 15.3521 25.5484 15.3521 25.9532C15.3521 26.3429 15.5718 26.7821 15.9357 26.7821C16.1589 26.7821 16.2811 26.6785 16.2811 26.534V26.3082ZM17.5244 25.1884C17.5244 25.1006 17.4865 25.0592 17.3803 25.0564V24.97C17.5001 24.9823 17.6204 24.9886 17.7408 24.9889C17.9044 24.9889 18.0332 24.9803 18.1588 24.97V25.0564C18.0233 25.0628 17.9892 25.0874 17.9892 25.2099V26.3829C17.9892 26.7382 18.1369 26.8064 18.391 26.8064C18.6452 26.8064 18.7929 26.7317 18.7929 26.3829V25.2099C18.7929 25.0874 18.7585 25.0628 18.6229 25.0564V24.97C18.7492 24.9803 18.8774 24.9889 19.041 24.9889C19.1726 24.9889 19.3015 24.9803 19.4017 24.97V25.0564C19.2953 25.0592 19.2573 25.1005 19.2573 25.1884V26.3177C19.2573 26.8985 18.956 27.0831 18.391 27.0831C17.8256 27.0831 17.5244 26.8985 17.5244 26.3618V25.1884ZM20.066 25.1987C20.066 25.1109 20.029 25.0695 19.9219 25.0667V24.9812H21.508C21.5112 25.1535 21.5172 25.2935 21.5326 25.4631H21.4468C21.4155 25.2905 21.3715 25.2306 21.2018 25.2306H20.5312V25.8285H20.948C21.089 25.8285 21.1113 25.7814 21.1304 25.6684H21.2155C21.2047 25.7673 21.1984 25.8667 21.1967 25.9663C21.1967 26.0514 21.2067 26.1891 21.2155 26.2651H21.1304C21.1113 26.1516 21.089 26.105 20.948 26.105H20.5312V26.7664H21.2364C21.406 26.7664 21.4596 26.7093 21.513 26.446H21.6172C21.5947 26.6442 21.5822 26.8435 21.5796 27.043H19.9217V26.9566C20.0288 26.9538 20.0658 26.9126 20.0658 26.8243V25.1987H20.066ZM12.0197 20.2941C12.7103 19.5031 13.7258 19.0037 14.8589 19.0037C16.023 19.0037 17.0644 19.5321 17.756 20.3622L17.9388 20.1907C17.2023 19.3149 16.0982 18.7593 14.864 18.7593C13.6619 18.7593 12.5836 19.2868 11.8474 20.1244L12.0197 20.2941ZM14.537 18.2963L13.4342 18.5257L13.1563 17.1897L14.2441 16.9639L14.2951 17.2082L13.5803 17.3572L13.6383 17.6375L14.3205 17.4952L14.3714 17.7405L13.6891 17.882L13.756 18.2035L14.4859 18.0515L14.537 18.2963ZM16.6414 17.4342L15.9835 17.2956L15.9212 17.5925L16.5785 17.7321L16.527 17.9768L15.8699 17.8372L15.7541 18.3863L15.3813 18.3066L15.6626 16.9724L16.6933 17.1897L16.6414 17.4342ZM18.2315 19.7176L17.9044 19.4085L17.956 19.1151L17.3946 18.7251L17.1463 18.8817L16.7747 18.6737L18.1002 17.884L18.4625 18.1351L18.2315 19.7176ZM18.119 18.2588L17.618 18.5743L18.016 18.8508L18.119 18.2588ZM12.1702 19.1705C11.9257 19.3644 11.5111 19.5229 11.2079 19.1666L10.77 18.6056L11.0627 18.3743L11.4923 18.926C11.6473 19.1087 11.8423 19.0731 11.9976 18.9512C12.1526 18.8297 12.2323 18.6476 12.091 18.454L11.6608 17.9028L11.9536 17.6725L12.3917 18.2336C12.6532 18.5923 12.4911 18.9154 12.1702 19.1705Z" fill="black"/>
<path fill-rule="evenodd" clip-rule="evenodd" d="M19.5741 18.3853C18.3986 17.1493 16.7383 16.3782 14.8982 16.3782C13.036 16.3782 11.3577 17.1672 10.1805 18.4291L9.98145 18.227C11.2181 16.9321 12.9617 16.1252 14.8938 16.1252C16.8105 16.1252 18.541 16.9198 19.7758 18.196L19.5741 18.3853ZM22.139 28.0836C22.0719 28.0838 22.0055 28.0707 21.9435 28.0452C21.8815 28.0197 21.8252 27.9821 21.7777 27.9348C21.7302 27.8875 21.6925 27.8312 21.6668 27.7693C21.641 27.7074 21.6278 27.641 21.6277 27.5739C21.6281 27.4385 21.6821 27.3087 21.7779 27.213C21.8738 27.1173 22.0036 27.0635 22.139 27.0633V27.1121C22.0169 27.1126 21.8999 27.1615 21.8138 27.248C21.7276 27.3346 21.6793 27.4518 21.6794 27.5739C21.679 27.6962 21.7272 27.8137 21.8134 27.9006C21.8995 27.9874 22.0167 28.0364 22.139 28.0369V28.0836Z" fill="black"/>
<path fill-rule="evenodd" clip-rule="evenodd" d="M21.9286 27.2693H22.1346C22.2134 27.2693 22.2593 27.2805 22.2982 27.3107C22.3168 27.3247 22.3319 27.3428 22.3423 27.3636C22.3527 27.3844 22.3581 27.4073 22.3581 27.4305C22.3581 27.502 22.3068 27.5582 22.2241 27.575C22.2646 27.5871 22.2828 27.5975 22.3001 27.6181C22.3217 27.6442 22.331 27.6716 22.3472 27.7567L22.3564 27.8027C22.3625 27.8364 22.3643 27.8422 22.3759 27.8616H22.3144C22.3019 27.8355 22.2991 27.8252 22.2921 27.7851C22.2705 27.6632 22.2679 27.6546 22.2377 27.6259C22.2143 27.6033 22.1824 27.5958 22.1149 27.5958H21.9851V27.8618H21.9286V27.2693ZM22.1365 27.5496C22.2377 27.5496 22.2991 27.5046 22.2991 27.4304C22.2991 27.3526 22.2395 27.3115 22.1269 27.3115H21.9843V27.5494H22.1365V27.5496Z" fill="black"/>
<path fill-rule="evenodd" clip-rule="evenodd" d="M22.1391 28.0836C22.4214 28.0836 22.6517 27.8568 22.6517 27.5739C22.6517 27.2909 22.4214 27.0632 22.1391 27.0632V27.1121C22.3927 27.1121 22.5966 27.3188 22.5981 27.5739C22.5981 27.8304 22.3927 28.0369 22.1391 28.0369V28.0836Z" fill="black"/>
</svg>
