<svg width="18" height="5" viewBox="0 0 18 5" fill="none" xmlns="http://www.w3.org/2000/svg">
<path fill-rule="evenodd" clip-rule="evenodd" d="M4.70754 0.891116C4.76993 0.363365 5.21336 0.0104159 5.88294 0.0112931C6.23592 0.011683 12.4217 0.0114231 12.4217 0.0114231V0.0113581C13.2433 0.0113581 13.4692 0.493459 13.4037 1.02511C13.391 1.1283 13.3746 1.25687 13.3746 1.25687H4.66258C4.678 1.135 4.69299 1.01309 4.70754 0.891116ZM0.56611 0.0114881L0.566114 0.0114556V0.0114881H4.51643L4.36411 1.25687H0.413211L0.56611 0.0114881ZM13.8284 0.0114556L13.6758 1.25687H17.9589C17.9589 1.25687 17.9641 1.21183 17.9831 1.06524C18.0873 0.247763 17.5599 0.0114556 17.0507 0.0114556H13.8284ZM13.2831 4.44914L13.6168 1.73107V1.73101L15.0948 1.73159L14.7608 4.44862L13.2831 4.44914ZM16.424 1.73107L16.0898 4.44914L17.5675 4.44862L17.9015 1.73159L16.424 1.73101V1.73107ZM0.0212402 4.44927L0.355572 1.73146L0.355767 1.73153H4.30563L4.17905 2.76156H1.70622L1.64364 3.26998L4.11744 3.27024L3.97188 4.44927H0.0212402ZM4.60461 1.73146C4.49622 2.44081 4.85128 2.76146 5.3545 2.76146C5.62821 2.76146 7.35335 2.76068 7.35335 2.76068L7.29097 3.26988L4.4159 3.27014L4.27112 4.44917C4.27112 4.44917 7.40118 4.45021 7.52802 4.44917L7.54412 4.44813C7.69238 4.43899 8.37527 4.3969 8.61426 3.82274C8.68116 3.66183 8.74166 3.15654 8.77187 2.9042L8.77188 2.90417L8.7719 2.90394C8.77818 2.85152 8.78315 2.81003 8.78659 2.78485C8.90174 1.93489 8.31326 1.73224 7.84981 1.73224L6.67744 1.73195L4.60461 1.73146ZM8.87003 4.44927L9.20377 1.73153H13.3169C13.3033 1.85416 13.2882 1.97661 13.2714 2.09884C13.2189 2.47869 12.9361 2.76156 12.41 2.76156H10.5549L10.3469 4.44927H8.87003Z" fill="white"/>
</svg>
