<svg width="103" height="19" viewBox="0 0 103 19" fill="none" xmlns="http://www.w3.org/2000/svg">
<path d="M12.1347 18.3084C16.0493 18.3084 18.0067 16.5469 18.0067 13.0237C18.0067 9.50058 16.0493 7.73901 12.1347 7.73901H6.85003C4.89273 7.73901 3.91407 7.15181 3.91407 5.97743C3.91407 4.80305 4.89273 4.21586 6.85003 4.21586H18.0067V0.692719H6.26284C2.34823 0.692719 0.39093 2.45429 0.39093 5.97743C0.39093 9.50058 2.34823 11.2621 6.26284 11.2621H11.5476C13.5049 11.2621 14.4835 11.8493 14.4835 13.0237C14.4835 14.1981 13.5049 14.7853 11.5476 14.7853H0.39093V18.3084H12.1347ZM33.2736 11.2621C37.1882 11.2621 39.1455 9.50058 39.1455 5.97743C39.1455 2.45429 37.1882 0.692719 33.2736 0.692719H21.5298V4.21586H32.6864C34.6437 4.21586 35.6224 4.80305 35.6224 5.97743C35.6224 7.15181 34.6437 7.73901 32.6864 7.73901H21.5298V11.2621H33.2736ZM48.5406 18.3202L54.4125 18.3084C58.3271 18.3006 60.2844 16.3433 60.2844 12.4365V6.56462C60.2844 2.65002 58.3271 0.692719 54.4125 0.692719H48.5406C44.626 0.692719 42.6687 2.65002 42.6687 6.56462V12.4365C42.6687 16.3511 44.626 18.3084 48.5406 18.3084V18.3202ZM53.8253 14.7853H49.1278C47.1705 14.7853 46.1918 13.8066 46.1918 11.8493V7.15182C46.1918 5.19451 46.9747 4.21586 48.5406 4.21586H53.8253C55.7826 4.21586 56.7612 5.19451 56.7612 7.15182V11.8493C56.7612 13.8066 55.7826 14.7853 53.8253 14.7853ZM82.7268 18.3084L74.4592 11.2621H75.5513C79.4659 11.2621 81.4232 9.50058 81.4232 5.97743C81.4232 2.45429 79.4659 0.692719 75.5513 0.692719H63.8075V4.21586H74.9641C76.9214 4.21586 77.9001 4.80305 77.9001 5.97743C77.9001 7.15181 76.9214 7.73901 74.9641 7.73901H63.8075V11.2621H69.0453L77.3129 18.3084H82.7268ZM95.5158 18.3084V4.21586H102.562V0.692719H84.9464L84.9581 4.21586H91.9927V18.3084H95.5158Z" fill="#938D8D"/>
</svg>
