<svg width="53" height="10" viewBox="0 0 53 10" fill="none" xmlns="http://www.w3.org/2000/svg">
<path d="M6.33727 9.99391C8.34231 9.99391 9.34483 9.08003 9.34483 7.25226C9.34483 5.4245 8.34231 4.51062 6.33727 4.51062H3.63046C2.62794 4.51062 2.12668 4.20599 2.12668 3.59674C2.12668 2.98748 2.62794 2.68286 3.63046 2.68286H9.34483V0.855095H3.32971C1.32466 0.855095 0.322144 1.76898 0.322144 3.59674C0.322144 5.4245 1.32466 6.33838 3.32971 6.33838H6.03651C7.03903 6.33838 7.54029 6.64301 7.54029 7.25226C7.54029 7.86152 7.03903 8.16614 6.03651 8.16614H0.322144V9.99391H6.33727ZM17.1645 6.33838C19.1695 6.33838 20.1721 5.4245 20.1721 3.59674C20.1721 1.76898 19.1695 0.855095 17.1645 0.855095H11.1494V2.68286H16.8637C17.8663 2.68286 18.3675 2.98748 18.3675 3.59674C18.3675 4.20599 17.8663 4.51062 16.8637 4.51062H11.1494V6.33838H17.1645ZM24.9842 10L27.9917 9.99391C29.9968 9.98985 30.9993 8.97442 30.9993 6.94764V3.90137C30.9993 1.87052 29.9968 0.855095 27.9917 0.855095H24.9842C22.9791 0.855095 21.9766 1.87052 21.9766 3.90137V6.94764C21.9766 8.97848 22.9791 9.99391 24.9842 9.99391V10ZM27.691 8.16614H25.2849C24.2824 8.16614 23.7811 7.65843 23.7811 6.64301V4.20599C23.7811 3.19057 24.1821 2.68286 24.9842 2.68286H27.691C28.6935 2.68286 29.1947 3.19057 29.1947 4.20599V6.64301C29.1947 7.65843 28.6935 8.16614 27.691 8.16614ZM42.4942 9.99391L38.2595 6.33838H38.8189C40.824 6.33838 41.8265 5.4245 41.8265 3.59674C41.8265 1.76898 40.824 0.855095 38.8189 0.855095H32.8038V2.68286H38.5182C39.5207 2.68286 40.022 2.98748 40.022 3.59674C40.022 4.20599 39.5207 4.51062 38.5182 4.51062H32.8038V6.33838H35.4866L39.7212 9.99391H42.4942ZM49.0446 9.99391V2.68286H52.6537V0.855095H43.631L43.6371 2.68286H47.2401V9.99391H49.0446Z" fill="#938D8D"/>
</svg>
