<svg width="14" height="12" viewBox="0 0 14 12" fill="none" xmlns="http://www.w3.org/2000/svg">
<path fill-rule="evenodd" clip-rule="evenodd" d="M0.333374 4.9091V6.12122C3.3455 6.12122 5.78792 8.56364 5.78792 11.5758H7.00004C7.00004 7.89394 4.01519 4.9091 0.333374 4.9091ZM0.333374 7.33334V8.54546C2.0061 8.54546 3.36368 9.90303 3.36368 11.5758H4.5758C4.5758 9.23334 2.6758 7.33334 0.333374 7.33334ZM0.333374 9.75758V11.5758H2.15156C2.15156 10.5727 1.3364 9.75758 0.333374 9.75758ZM12.4546 0.666672H1.5455C0.875798 0.666672 0.333374 1.2091 0.333374 1.87879V3.69697H1.5455V1.87879H12.4546V10.3636H8.21216V11.5758H12.4546C13.1243 11.5758 13.6667 11.0333 13.6667 10.3636V1.87879C13.6667 1.2091 13.1243 0.666672 12.4546 0.666672Z" fill="#6DAAFD"/>
</svg>
