<svg width="24" height="16" viewBox="0 0 24 16" fill="none" xmlns="http://www.w3.org/2000/svg">
<path d="M2.40005 0.800049C1.51605 0.800049 0.800049 1.51605 0.800049 2.40005V13.6C0.800049 14.484 1.51605 15.2 2.40005 15.2H21.6C22.484 15.2 23.2 14.484 23.2 13.6V2.40005C23.2 1.51605 22.484 0.800049 21.6 0.800049H2.40005ZM18 4.68755C19.616 4.68755 20.6407 5.89871 20.6407 7.98911C20.6407 10.0627 19.6288 11.3125 18 11.3125C16.3664 11.3125 15.3594 10.0668 15.3594 7.98442C15.3594 5.90202 16.3792 4.68755 18 4.68755ZM6.43755 4.6938C7.84555 4.6938 8.78755 5.44899 8.78755 6.56099C8.78755 7.25859 8.37779 7.87752 7.26099 8.87192L6.22349 9.82661V9.91099H8.87505V11.1563H4.09067V10.0891L6.07974 8.21724C7.00374 7.36284 7.24067 7.04545 7.24067 6.67505C7.24067 6.21265 6.9005 5.90317 6.3813 5.90317C5.8405 5.90317 5.46411 6.26915 5.46411 6.78755V6.81724H4.00005V6.79224C4.00005 5.54104 4.97675 4.6938 6.43755 4.6938ZM12 5.60005C12.4416 5.60005 12.8 5.95845 12.8 6.40005C12.8 6.84165 12.4416 7.20005 12 7.20005C11.5584 7.20005 11.2 6.84165 11.2 6.40005C11.2 5.95845 11.5584 5.60005 12 5.60005ZM18 5.91567C17.3904 5.91567 16.9844 6.60362 16.9844 7.98442C16.9844 9.37402 17.3896 10.0844 18 10.0844C18.6104 10.0844 19.0188 9.37322 19.0188 7.98442C19.0188 6.60362 18.6096 5.91567 18 5.91567ZM12 8.80005C12.4416 8.80005 12.8 9.15845 12.8 9.60005C12.8 10.0416 12.4416 10.4 12 10.4C11.5584 10.4 11.2 10.0416 11.2 9.60005C11.2 9.15845 11.5584 8.80005 12 8.80005Z" fill="black"/>
</svg>
