<svg width="30" height="30" viewBox="0 0 30 30" fill="none" xmlns="http://www.w3.org/2000/svg">
<path d="M15.0277 0.833374C17.267 0.833374 18.5248 2.09115 19.322 4.09093C22.3985 11.491 25.5285 18.8404 28.6576 26.2402H28.6527C29.6804 28.6094 29.3073 29.1662 26.6994 29.1662C24.6619 29.1928 23.6228 28.0973 22.921 26.2821C21.6493 23.1027 15.8985 8.83247 15.8985 8.83247C15.7613 8.51109 15.453 8.29588 15.104 8.27779H15.0654C14.7124 8.27928 14.3938 8.48969 14.2538 8.81377C13.515 10.6481 12.3653 13.5022 11.1973 16.4091L10.8078 17.3787C10.2242 18.832 9.64698 20.2717 9.12519 21.5768L8.78608 22.4257C8.12645 24.0782 7.58479 25.4438 7.27747 26.2359C6.4848 28.2819 5.32294 29.1671 2.89093 29.1662C0.873364 29.1662 0.398606 28.4861 1.20877 26.5629C2.02799 24.6192 8.3048 9.80884 10.5441 4.22907C11.3886 2.14182 12.6913 0.833374 15.0277 0.833374ZM14.9176 22.0805C14.9982 22.0792 15.0787 22.082 15.1589 22.0889C17.1109 22.1762 18.6226 23.8294 18.5353 25.7814V25.7832C18.4483 27.7209 16.8178 29.2275 14.8793 29.1614L14.8829 29.1635C12.9813 29.1954 11.4136 27.6803 11.3808 25.7787V25.6279C11.3793 24.6884 11.7512 23.7869 12.4145 23.1216C13.0225 22.5118 13.8298 22.1463 14.6837 22.0885L14.9176 22.0805Z" fill="#111111"/>
</svg>
