<svg width="18" height="21" viewBox="0 0 18 21" fill="none" xmlns="http://www.w3.org/2000/svg">
<path d="M15 4.99994H11.41L13.71 2.70994C13.8032 2.6167 13.8772 2.50601 13.9277 2.38419C13.9781 2.26237 14.0041 2.1318 14.0041 1.99994C14.0041 1.86808 13.9781 1.73751 13.9277 1.61569C13.8772 1.49387 13.8032 1.38318 13.71 1.28994C13.6168 1.1967 13.5061 1.12274 13.3842 1.07228C13.2624 1.02182 13.1319 0.99585 13 0.99585C12.7337 0.99585 12.4783 1.10164 12.29 1.28994L9 4.53994L7.83 2.53994C7.76434 2.42569 7.67682 2.32549 7.57243 2.24507C7.46805 2.16464 7.34885 2.10556 7.22163 2.07121C7.09441 2.03685 6.96168 2.02788 6.83099 2.04482C6.70031 2.06177 6.57425 2.10428 6.46 2.16994C6.34575 2.2356 6.24555 2.32312 6.16513 2.42751C6.0847 2.53189 6.02562 2.6511 5.99126 2.77831C5.95691 2.90553 5.94794 3.03827 5.96488 3.16895C5.98182 3.29963 6.02434 3.42569 6.09 3.53994L7 4.99994H3C2.20435 4.99994 1.44129 5.31601 0.87868 5.87862C0.316071 6.44123 0 7.20429 0 7.99994V15.9999C0 16.7956 0.316071 17.5587 0.87868 18.1213C1.44129 18.6839 2.20435 18.9999 3 18.9999V19.9999C3 20.2652 3.10536 20.5195 3.29289 20.707C3.48043 20.8946 3.73478 20.9999 4 20.9999C4.26522 20.9999 4.51957 20.8946 4.70711 20.707C4.89464 20.5195 5 20.2652 5 19.9999V18.9999H13V19.9999C13 20.2652 13.1054 20.5195 13.2929 20.707C13.4804 20.8946 13.7348 20.9999 14 20.9999C14.2652 20.9999 14.5196 20.8946 14.7071 20.707C14.8946 20.5195 15 20.2652 15 19.9999V18.9999C15.7956 18.9999 16.5587 18.6839 17.1213 18.1213C17.6839 17.5587 18 16.7956 18 15.9999V7.99994C18 7.20429 17.6839 6.44123 17.1213 5.87862C16.5587 5.31601 15.7956 4.99994 15 4.99994ZM16 15.9999C16 16.2652 15.8946 16.5195 15.7071 16.707C15.5196 16.8946 15.2652 16.9999 15 16.9999H3C2.73478 16.9999 2.48043 16.8946 2.29289 16.707C2.10536 16.5195 2 16.2652 2 15.9999V7.99994C2 7.73472 2.10536 7.48037 2.29289 7.29283C2.48043 7.1053 2.73478 6.99994 3 6.99994H15C15.2652 6.99994 15.5196 7.1053 15.7071 7.29283C15.8946 7.48037 16 7.73472 16 7.99994V15.9999Z" fill="black"/>
</svg>
