<svg width="16" height="16" viewBox="0 0 16 16" fill="none" xmlns="http://www.w3.org/2000/svg">
<path d="M2.69423 13.2986C4.11616 14.7185 5.99955 15.5 8 15.5C10.0005 15.5 11.8846 14.7185 13.3058 13.2986C16.2314 10.3771 16.2314 5.62363 13.3058 2.70141C11.8846 1.28226 9.9997 0.5 8 0.5C6.0003 0.5 4.1154 1.28226 2.69423 2.70141C-0.23141 5.62288 -0.23141 10.3771 2.69423 13.2986ZM12.2448 12.2391C11.4426 13.0401 10.4552 13.5811 9.38366 13.8343C9.3769 12.634 9.82337 11.4771 10.6525 10.6491C11.5252 9.77769 12.7025 9.27941 13.8618 9.26218C13.6284 10.3531 13.0919 11.3932 12.2448 12.2391ZM13.9893 7.76959C12.3956 7.75386 10.7748 8.40874 9.59151 9.58961C8.44196 10.7375 7.84543 12.347 7.89345 13.9962C6.33346 13.9692 4.86726 13.3503 3.75448 12.2391C2.61244 11.0979 2.03167 9.6076 2.00465 8.10902C2.06243 8.11052 2.12021 8.11951 2.17798 8.11951C3.76499 8.11951 5.29947 7.51708 6.40774 6.41113C7.59331 5.22726 8.25137 3.60955 8.23111 2.01056C9.74308 2.06751 11.162 2.68118 12.2448 3.76165C13.3568 4.87135 13.9331 6.31223 13.9893 7.76959ZM3.75523 3.76165C4.58663 2.93144 5.61762 2.37622 6.7364 2.13645C6.72289 3.30159 6.22241 4.47722 5.34749 5.35164C4.5191 6.17811 3.36505 6.62243 2.16748 6.61869C2.4136 5.57193 2.93885 4.57613 3.75523 3.76165Z" fill="#6DAAFD"/>
</svg>
