<svg width="16" height="16" viewBox="0 0 16 16" fill="none" xmlns="http://www.w3.org/2000/svg">
<path d="M15.0574 5.48C15.0574 5.48 15.0574 5.48 15.0574 5.4425C14.529 3.99967 13.5701 2.75397 12.3105 1.8739C11.051 0.993835 9.55147 0.521881 8.0149 0.521881C6.47834 0.521881 4.97885 0.993835 3.71929 1.8739C2.45972 2.75397 1.50085 3.99967 0.972403 5.4425C0.972403 5.4425 0.972403 5.4425 0.972403 5.48C0.382246 7.10817 0.382246 8.89183 0.972403 10.52C0.972403 10.52 0.972403 10.52 0.972403 10.5575C1.50085 12.0003 2.45972 13.246 3.71929 14.1261C4.97885 15.0062 6.47834 15.4781 8.0149 15.4781C9.55147 15.4781 11.051 15.0062 12.3105 14.1261C13.5701 13.246 14.529 12.0003 15.0574 10.5575C15.0574 10.5575 15.0574 10.5575 15.0574 10.52C15.6476 8.89183 15.6476 7.10817 15.0574 5.48ZM2.1949 9.5C1.93482 8.51691 1.93482 7.48309 2.1949 6.5H3.5899C3.46993 7.4964 3.46993 8.5036 3.5899 9.5H2.1949ZM2.8099 11H3.8599C4.03594 11.6689 4.28756 12.3155 4.6099 12.9275C3.87438 12.4264 3.25953 11.768 2.8099 11ZM3.8599 5H2.8099C3.25306 4.23432 3.86005 3.5761 4.5874 3.0725C4.27282 3.68544 4.02876 4.33207 3.8599 5ZM7.2499 13.775C6.32873 13.099 5.68176 12.1139 5.4274 11H7.2499V13.775ZM7.2499 9.5H5.1049C4.96495 8.5049 4.96495 7.49511 5.1049 6.5H7.2499V9.5ZM7.2499 5H5.4274C5.68176 3.88608 6.32873 2.90099 7.2499 2.225V5ZM13.1899 5H12.1399C11.9639 4.33112 11.7122 3.68446 11.3899 3.0725C12.1254 3.57355 12.7403 4.23196 13.1899 5ZM8.7499 2.225C9.67108 2.90099 10.318 3.88608 10.5724 5H8.7499V2.225ZM8.7499 13.775V11H10.5724C10.318 12.1139 9.67108 13.099 8.7499 13.775ZM10.8949 9.5H8.7499V6.5H10.8949C11.0349 7.49511 11.0349 8.5049 10.8949 9.5ZM11.4124 12.9275C11.7347 12.3155 11.9864 11.6689 12.1624 11H13.2124C12.7628 11.768 12.1479 12.4264 11.4124 12.9275ZM13.8049 9.5H12.4099C12.4709 9.00235 12.501 8.50138 12.4999 8C12.5007 7.49863 12.4707 6.99768 12.4099 6.5H13.8049C14.065 7.48309 14.065 8.51691 13.8049 9.5Z" fill="white"/>
</svg>
