<svg width="18" height="18" viewBox="0 0 18 18" fill="none" xmlns="http://www.w3.org/2000/svg">
<path d="M0 0H17.9772V17.9772H0V0Z" fill="white"/>
<path fill-rule="evenodd" clip-rule="evenodd" d="M14.5875 5.9161L14.5891 5.94268C14.6857 7.49096 14.5232 8.99139 14.1062 10.4023C13.7548 11.5914 13.2224 12.7218 12.5236 13.7618C11.3303 15.5377 9.88069 16.7115 9.00196 17.177L8.98862 17.1841L8.97529 17.1771C8.09655 16.7117 6.64685 15.5379 5.45353 13.7618C4.7548 12.7217 4.22235 11.5914 3.87093 10.4023C3.45395 8.99139 3.29158 7.49105 3.3881 5.94268L3.38978 5.9161H3.4186C3.65465 2.34463 6.18762 1.1516 7.24141 0.793091C6.72892 1.79438 6.9355 3.40645 8.4641 3.04067C8.4836 2.95374 8.61034 2.76442 8.73457 2.68011C8.56166 2.60605 8.39528 2.25277 8.47119 1.99247C8.17517 1.95059 8.13031 1.63508 8.16874 1.47877C8.20735 1.32237 8.14458 1.02392 8.0418 0.934106C8.37121 1.04677 8.66024 1.38541 8.72478 1.6141C8.79631 1.54592 8.90142 1.53501 8.98881 1.53296C9.07601 1.5309 9.18112 1.54592 9.25275 1.6141C9.31719 1.38532 9.60631 1.04677 9.93563 0.934106C9.83294 1.02392 9.77008 1.32237 9.80851 1.47877C9.84731 1.63508 9.80217 1.95059 9.50633 1.99247C9.58234 2.25277 9.41577 2.60615 9.24277 2.68011C9.36718 2.76451 9.49374 2.95374 9.51323 3.04067C11.0418 3.40645 11.2486 1.79428 10.7358 0.793091C11.7896 1.1516 14.3227 2.34463 14.5585 5.9161H14.5875ZM4.59516 5.916L4.59503 5.91609V5.916H4.59516ZM4.59516 5.916C4.80497 5.75604 5.03268 5.73444 5.26849 5.88634C5.37314 4.90828 6.38636 4.75104 7.03259 5.44968C7.05003 4.82098 7.57399 4.20954 8.25528 4.38423C8.3077 4.52403 8.46485 4.78592 8.5347 4.85577C8.51506 4.90826 8.4806 5.02967 8.44152 5.16732L8.44152 5.16735C8.37653 5.39631 8.29879 5.67018 8.25528 5.74654C8.06409 5.65113 8.00356 5.62819 7.68991 5.916H4.59516ZM8.47787 5.9161L8.65665 5.37992C8.7266 5.24012 8.76148 5.29253 8.8139 5.37992L8.98867 5.74663L9.16336 5.37992C9.21568 5.29253 9.25065 5.24012 9.32041 5.37992L9.49929 5.9161H8.47787ZM9.72232 5.74663C9.91342 5.65113 9.97413 5.62828 10.2874 5.9161V5.91619H13.3828C13.1729 5.75605 12.9448 5.73442 12.7089 5.88644C12.6042 4.90828 11.5912 4.75113 10.9449 5.44977C10.9275 4.82108 10.4036 4.20955 9.72232 4.38432C9.6699 4.52413 9.51285 4.78601 9.44271 4.85587C9.46256 4.90861 9.49726 5.03091 9.53656 5.16936C9.60142 5.3979 9.67876 5.67043 9.72232 5.74663Z" fill="black"/>
<path d="M13.451 5.9729H10.3485C10.3607 5.98437 10.3733 5.99622 10.386 6.00862H9.5302L9.51835 5.9729H8.45925L8.4474 6.00862H7.59142L7.62891 5.9729H4.52694C4.15818 6.31341 3.85134 7.0889 3.66565 8.10436L14.3122 8.10277C14.1264 7.08797 13.8197 6.31322 13.451 5.9729Z" fill="#4486C6"/>
<path d="M3.66562 8.1044C3.62561 8.32449 3.59236 8.54575 3.56592 8.76788C3.64914 9.31489 3.76932 9.85563 3.92564 10.3864C4.27538 11.5698 4.80549 12.6949 5.50096 13.7302C6.06102 14.5638 6.71284 15.3201 7.43816 15.9778C8.19155 16.661 8.76493 17 8.98877 17.1198C9.2126 17 9.7859 16.6609 10.5393 15.9778C11.2646 15.3201 11.9164 14.5639 12.4765 13.7302C13.172 12.6949 13.7021 11.5699 14.0518 10.3864C14.2084 9.8552 14.3286 9.31399 14.4117 8.76648C14.3853 8.54433 14.352 8.32303 14.3121 8.10291L3.66562 8.1044Z" fill="#F0C660"/>
<path fill-rule="evenodd" clip-rule="evenodd" d="M4.63782 12.2263L4.6395 8.10437H5.8621L5.86219 14.2398C5.39056 13.6093 4.98055 12.9351 4.63782 12.2263ZM7.08296 15.6416L7.08483 8.10437H8.30762L8.30827 16.6865C8.06196 16.5089 7.76715 16.2761 7.43802 15.9776C7.31736 15.868 7.19899 15.756 7.08296 15.6416ZM12.1148 8.10437V14.2398C12.5864 13.6094 12.9964 12.9352 13.3393 12.2265L13.3376 8.10437H12.1148ZM9.66883 16.6865L9.66958 8.10437H10.8924L10.894 15.6415C10.7781 15.756 10.6597 15.8681 10.539 15.9776C10.2099 16.2762 9.91514 16.509 9.66883 16.6865Z" fill="#CD3529"/>
<path fill-rule="evenodd" clip-rule="evenodd" d="M11.1982 6.49207V6.93041H11.196C11.1532 6.85775 11.1028 6.82353 11.031 6.82353C10.8618 6.82353 10.7997 7.01071 10.7997 7.22195C10.7997 7.43142 10.8618 7.62457 11.031 7.62457C11.0986 7.62457 11.1575 7.59492 11.2003 7.52058H11.2023V7.60685H11.3418V6.49207H11.1982ZM8.1187 7.59193C8.06414 7.60956 8.0051 7.62457 7.94831 7.62457C7.70628 7.62457 7.53794 7.45661 7.53794 7.10584C7.53794 6.7506 7.69435 6.55157 7.94831 6.55157C8.00731 6.55238 8.06528 6.56715 8.11749 6.59466L8.10685 6.77009C8.05006 6.72541 7.99858 6.71497 7.94504 6.71497C7.79088 6.71497 7.69435 6.87846 7.69435 7.09092C7.69435 7.30207 7.78864 7.46108 7.94831 7.46108C8.00734 7.46108 8.07692 7.44327 8.11226 7.41799L8.1187 7.59193ZM4.26626 6.56929H4.10547L4.3626 7.60685H4.54698L4.7987 6.56929H4.64967L4.46006 7.38386H4.45791L4.26626 6.56929ZM5.11055 6.56929H5.27973L5.57333 7.60685H5.40713L5.34297 7.36903H5.03986L4.97448 7.60685H4.8191L5.11055 6.56929ZM5.08279 7.20545L5.19098 6.77737H5.19312L5.30121 7.20545H5.08279ZM5.81974 6.56929H5.66987V7.60685H6.11008V7.44327H5.81974V6.56929ZM6.20545 6.56929H6.64678V6.73287H6.35542V6.98842H6.62216V7.152H6.35542V7.44327H6.64892V7.60685H6.20545V6.56929ZM6.97794 6.56929H6.79356V7.60685H6.93719V6.83089H6.93924L7.22537 7.60685H7.40854V6.56929H7.26501V7.34515H7.26286L6.97794 6.56929ZM8.36622 6.56929H8.21626V7.60685H8.36622V6.56929ZM10.1423 7.59193C10.0877 7.60956 10.0287 7.62457 9.97186 7.62457C9.72975 7.62457 9.56169 7.45661 9.56169 7.10584C9.56169 6.7506 9.718 6.55157 9.97186 6.55157C10.0212 6.55157 10.0865 6.565 10.1412 6.59466L10.1303 6.77009C10.0737 6.72541 10.0221 6.71497 9.9686 6.71497C9.81453 6.71497 9.7179 6.87846 9.7179 7.09092C9.7179 7.30207 9.81229 7.46108 9.97186 7.46108C10.0307 7.46108 10.1003 7.44327 10.1356 7.41799L10.1423 7.59193ZM10.3894 7.39868H10.2393V7.60685H10.3894V7.39868ZM10.9494 7.22195C10.9494 7.32743 10.9764 7.47003 11.0706 7.47003C11.1661 7.47003 11.197 7.33032 11.1969 7.22195C11.1969 7.11479 11.1605 6.97806 11.0685 6.97806C10.9753 6.97806 10.9494 7.11926 10.9494 7.22195ZM11.5911 7.28575H11.9726C11.9726 7.01818 11.9147 6.82353 11.7101 6.82353C11.5387 6.82353 11.454 7.00633 11.454 7.22774C11.454 7.47899 11.5601 7.62449 11.7422 7.62449C11.8193 7.62449 11.8794 7.60369 11.9318 7.56358V7.40168C11.8783 7.44327 11.8183 7.47899 11.7486 7.47899C11.6597 7.47899 11.5976 7.40905 11.5911 7.28575ZM11.8352 7.14903C11.8312 7.0524 11.7989 6.96921 11.7184 6.96921C11.6381 6.96921 11.5976 7.04643 11.5911 7.14903H11.8352ZM12.3956 6.56929H12.8113V6.73287H12.5456V6.98842H12.7984V7.152H12.5456V7.60685H12.3956V6.56929ZM13.0686 7.39868H12.9187V7.60685H13.0686V7.39868ZM8.91048 6.56929H8.74121L8.44976 7.60685H8.60513L8.67042 7.36903H8.97353L9.03788 7.60685H9.20398L8.91048 6.56929ZM8.82156 6.77737L8.71318 7.20545H8.93179L8.82361 6.77737H8.82156Z" fill="white"/>
<path fill-rule="evenodd" clip-rule="evenodd" d="M7.20121 4.86276C7.0969 5.04127 7.03884 5.24302 7.03231 5.44967C6.35111 4.54146 5.60024 2.58534 6.63062 1.36255C6.21149 2.27104 6.20002 3.64696 7.20121 4.86276ZM10.7759 4.86276C10.8802 5.04129 10.9382 5.24302 10.9448 5.44967C11.6261 4.54146 12.3769 2.58534 11.3465 1.36255C11.7657 2.27104 11.7772 3.64696 10.7759 4.86276ZM12.7087 5.88633C12.6825 5.64198 12.5996 5.44864 12.4798 5.30726C13.0766 3.72955 12.4138 2.59903 11.932 1.7773C11.8796 1.6879 11.8293 1.60216 11.783 1.51989C13.4948 3.14418 13.0581 5.27508 12.7087 5.88633Z" fill="#76787A"/>
<path fill-rule="evenodd" clip-rule="evenodd" d="M14.5608 5.94445C14.6264 6.99442 14.5704 7.97173 14.4242 8.8764C14.6479 3.89515 13.3378 1.85164 10.7358 0.793091C11.7925 1.15253 14.3366 2.3507 14.5608 5.94445ZM5.26826 5.88626C5.29456 5.6419 5.37738 5.44857 5.49732 5.30718C4.90043 3.72941 5.56329 2.59887 6.04509 1.77713C6.09749 1.68777 6.14774 1.60205 6.194 1.51981C4.48214 3.1441 4.91889 5.275 5.26826 5.88626Z" fill="#76787A"/>
<path d="M3.55327 8.8764C3.40694 7.97173 3.35126 6.99442 3.41664 5.94445C3.64094 2.3507 6.18482 1.15253 7.2415 0.793091C4.63971 1.85164 3.32972 3.89515 3.55327 8.8764Z" fill="#76787A"/>
<path d="M8.98875 13.3762C9.96635 13.3762 10.7589 12.5836 10.7589 11.606C10.7589 10.6283 9.96635 9.83569 8.98875 9.83569C8.01097 9.83569 7.21851 10.6283 7.21851 11.606C7.21841 12.5836 8.01097 13.3762 8.98875 13.3762Z" fill="black"/>
<path fill-rule="evenodd" clip-rule="evenodd" d="M8.84978 10.2336C8.83477 10.2269 8.81929 10.2197 8.8039 10.212C8.79961 10.1923 8.80987 10.1372 8.81696 10.0997C8.82386 10.0632 8.83123 10.0227 8.83552 9.97963C8.88597 9.97487 8.93699 9.97217 8.98865 9.97217C9.68375 9.97217 10.2771 10.4069 10.5128 11.0191C10.3272 10.826 10.1064 10.6701 9.86226 10.5598C9.53406 10.4111 9.23329 10.3723 9.01757 10.3698C8.98539 10.2954 8.90966 10.2608 8.84978 10.2336ZM8.01929 11.8423C7.88126 11.6796 7.77643 11.4588 7.72793 11.2255C7.68292 11.0057 7.68505 10.779 7.73418 10.5601C7.48914 10.8532 7.35515 11.2232 7.35571 11.6052C7.35571 11.7926 7.38761 11.9724 7.44571 12.14C7.74696 12.2237 7.907 12.0474 8.01929 11.8423ZM10.2945 11.9374C10.1894 11.8747 10.0516 11.896 9.91455 11.9342C9.74238 12.2279 9.49234 12.4866 9.20593 12.6647C8.88081 12.8671 8.51213 12.9723 8.10709 12.9794C8.36993 13.1486 8.67601 13.2384 8.98862 13.238C9.6535 13.238 10.2251 12.8404 10.4797 12.2703C10.4346 12.0739 10.3725 11.9839 10.2945 11.9374Z" fill="#A46C39"/>
<path d="M9.00335 10.5602C8.9791 10.5995 8.9432 10.6316 8.90794 10.6631C8.85674 10.7088 8.80358 10.756 8.78362 10.826C8.75005 10.9435 8.80908 11.1478 9.01259 11.3328C9.18839 11.2883 9.42174 11.2679 9.623 11.3802C9.75488 11.4538 9.85252 11.5738 9.91389 11.7371C10.0443 11.7046 10.2325 11.6786 10.3922 11.774C10.4687 11.8196 10.5308 11.8884 10.578 11.9794C10.619 11.8051 10.6311 11.6253 10.6137 11.4471L10.5853 11.4082C10.0623 10.6511 9.30469 10.563 9.00335 10.5602Z" fill="#A46C39"/>
<path d="M9.10547 12.5031C9.36521 12.3414 9.59222 12.1073 9.74862 11.8409C9.70395 11.7012 9.63073 11.6022 9.5302 11.5462C9.38209 11.4633 9.19538 11.4848 9.07078 11.5144C9.02302 11.7293 8.9071 11.8896 8.73959 11.9696C8.57256 12.0492 8.37101 12.0432 8.17478 11.9555C8.08171 12.1212 7.88996 12.3811 7.53564 12.3497C7.61908 12.5121 7.72906 12.6594 7.86104 12.7855C8.35824 12.8143 8.76338 12.7161 9.10547 12.5031Z" fill="#A46C39"/>
<path d="M8.19336 11.7519C8.35751 11.8435 8.52594 11.8607 8.65745 11.7978C8.77197 11.7433 8.84985 11.6317 8.88482 11.4739C8.65334 11.2624 8.53947 10.9867 8.60046 10.7738C8.63562 10.6507 8.71965 10.5758 8.78102 10.5209C8.80387 10.5005 8.83819 10.4699 8.84295 10.4567C8.84336 10.4533 8.84327 10.4497 8.84267 10.4463C8.83558 10.4364 8.79669 10.4185 8.77076 10.4068C8.75463 10.3993 8.73635 10.3911 8.71742 10.3817C8.58302 10.3143 8.60997 10.1699 8.62975 10.0647C8.6332 10.0467 8.63646 10.0283 8.63945 10.01C8.41805 10.0582 8.2092 10.1523 8.02633 10.2861L8.00189 10.3415C7.7623 10.9184 7.93204 11.4737 8.19336 11.7519Z" fill="#A46C39"/>
</svg>
